SplineFontDB: 3.2
FontName: ArundinaSerif-Bold
FullName: Arundina Serif Bold
FamilyName: Arundina Serif
Weight: Bold
Copyright: Copyright (c) 2003 by Bitstream, Inc. All Rights Reserved.\nCopyright (c) 2007 by Software Industry Promotion Agency (Public Organization). All Rights Reserved.
Version: 3.07
ItalicAngle: 0
UnderlinePosition: -153
UnderlineWidth: 102
Ascent: 1638
Descent: 410
InvalidEm: 0
LayerCount: 3
Layer: 0 0 "Back" 1
Layer: 1 1 "Fore" 0
Layer: 2 0 "Cube" 0
XUID: [1021 375 425136265 5684599]
FSType: 0
OS2Version: 2
OS2_WeightWidthSlopeOnly: 0
OS2_UseTypoMetrics: 1
CreationTime: 1131289380
ModificationTime: 1772077215
PfmFamily: 17
TTFWeight: 700
TTFWidth: 5
LineGap: 0
VLineGap: 0
Panose: 2 11 3 0 2 2 2 2 2 4
OS2TypoAscent: 2478
OS2TypoAOffset: 0
OS2TypoDescent: -1107
OS2TypoDOffset: 0
OS2TypoLinegap: 0
OS2WinAscent: 0
OS2WinAOffset: 1
OS2WinDescent: 0
OS2WinDOffset: 1
HheadAscent: 0
HheadAOffset: 1
HheadDescent: 0
HheadDOffset: 1
OS2SubXSize: 1434
OS2SubYSize: 1331
OS2SubXOff: 0
OS2SubYOff: 287
OS2SupXSize: 1434
OS2SupYSize: 1331
OS2SupXOff: 0
OS2SupYOff: 977
OS2StrikeYSize: 102
OS2StrikeYPos: 512
OS2FamilyClass: 261
OS2Vendor: 'BLWK'
Lookup: 4 0 0 "'frac' Diagonal Fractions in Latin lookup 0" { "'frac' Diagonal Fractions in Latin lookup 0 subtable"  } ['frac' ('latn' <'dflt' > ) ]
Lookup: 6 0 0 "'liga' Standard Ligatures in Latin lookup 1" { "'liga' Standard Ligatures in Latin lookup 1 subtable"  } ['liga' ('latn' <'dflt' > 'thai' <'dflt' > ) ]
Lookup: 6 0 0 "'liga' Standard Ligatures in Latin lookup 2" { "'liga' Standard Ligatures in Latin lookup 2 subtable"  } ['liga' ('latn' <'dflt' > 'thai' <'dflt' > ) ]
Lookup: 6 0 0 "'liga' Standard Ligatures in Latin lookup 3" { "'liga' Standard Ligatures in Latin lookup 3 subtable"  } ['liga' ('latn' <'dflt' > 'thai' <'dflt' > ) ]
Lookup: 6 0 0 "'liga' Standard Ligatures in Latin lookup 4" { "'liga' Standard Ligatures in Latin lookup 4 subtable"  } ['liga' ('latn' <'dflt' > 'thai' <'dflt' > ) ]

StartChar: .notdef
Encoding: 373 -1 0
Width: 1083
VWidth: 3198
Flags: W
HStem: 0 162<253 839> 1331 162<253 836>
VStem: 0 162<323 1171> 918 166<326 1163>
DStem2: 253 1331 162 1171 0.557167 -0.830401<82.1619 521.962 767.771 1205.07> 162 323 253 162 0.555842 0.831288<0 442.874 685.605 1118.5>
LayerCount: 3
Fore
SplineSet
0 1493 m 1,0,-1
 1084 1493 l 1,1,-1
 1084 0 l 1,2,-1
 0 0 l 1,3,-1
 0 1493 l 1,0,-1
839 162 m 1,4,5
 800 220 800 220 763 273 c 128,-1,6
 726 326 726 326 691 378.5 c 128,-1,7
 656 431 656 431 619.5 485.5 c 128,-1,8
 583 540 583 540 543 601 c 1,9,10
 503 543 503 543 467 491 c 128,-1,11
 431 439 431 439 397.5 386 c 128,-1,12
 364 333 364 333 329 278 c 128,-1,13
 294 223 294 223 253 162 c 1,14,-1
 839 162 l 1,4,5
836 1331 m 1,15,-1
 253 1331 l 1,16,-1
 281 1285 l 2,17,18
 314 1235 314 1235 346 1188.5 c 128,-1,19
 378 1142 378 1142 408.5 1094 c 128,-1,20
 439 1046 439 1046 471 998 c 128,-1,21
 503 950 503 950 540 895 c 1,22,-1
 836 1331 l 1,15,-1
162 323 m 1,23,24
 234 428 234 428 301.5 532.5 c 128,-1,25
 369 637 369 637 445 748 c 1,26,27
 403 809 403 809 369.5 859 c 128,-1,28
 336 909 336 909 304 958 c 128,-1,29
 272 1007 272 1007 238.5 1057 c 128,-1,30
 205 1107 205 1107 162 1171 c 1,31,-1
 162 323 l 1,23,24
918 326 m 1,32,-1
 918 1163 l 1,33,34
 882 1110 882 1110 848.5 1058.5 c 128,-1,35
 815 1007 815 1007 780 958 c 128,-1,36
 745 909 745 909 711.5 856 c 128,-1,37
 678 803 678 803 640 748 c 1,38,-1
 918 326 l 1,32,-1
EndSplineSet
Layer: 2
SplineSet
0 1493 m 1
 1084 1493 l 1
 1084 0 l 1
 0 0 l 1
 0 1493 l 1
839 162 m 1
 543 601 l 1
 253 162 l 1
 839 162 l 1
836 1331 m 1
 253 1331 l 1
 540 895 l 1
 836 1331 l 1
162 323 m 1
 445 748 l 1
 162 1171 l 1
 162 323 l 1
918 326 m 1
 918 1163 l 1
 640 748 l 1
 918 326 l 1
EndSplineSet
EndChar

StartChar: exclam
Encoding: 2 33 4
Width: 897
VWidth: 3198
Flags: W
HStem: -28 379<328.768 568.868> 1473 20G<262 637>
VStem: 259 381<41.9456 281.648> 378 140<461 754.195>
LayerCount: 3
Fore
SplineSet
259 162 m 128,-1,1
 259 241 259 241 315.5 296 c 128,-1,2
 372 351 372 351 448 351 c 256,3,4
 525 351 525 351 582.5 296 c 128,-1,5
 640 241 640 241 640 162 c 128,-1,6
 640 83 640 83 582.5 27.5 c 128,-1,7
 525 -28 525 -28 448 -28 c 256,8,9
 372 -28 372 -28 315.5 27.5 c 128,-1,0
 259 83 259 83 259 162 c 128,-1,1
262 1493 m 1,10,-1
 637 1493 l 1,11,-1
 518 653 l 1,12,-1
 518 461 l 1,13,-1
 378 461 l 1,14,-1
 378 653 l 1,15,-1
 262 1493 l 1,10,-1
EndSplineSet
Layer: 2
SplineSet
448 -28 m 259xe0
 346 -28 259 59 259 162 c 3
 259 265 346 351 448 351 c 259
 551 351 640 265 640 162 c 3
 640 59 551 -28 448 -28 c 259xe0
262 1493 m 1
 637 1493 l 1
 518 653 l 1
 518 461 l 1
 378 461 l 1
 378 653 l 1xd0
 262 1493 l 1
EndSplineSet
EndChar

StartChar: quotedbl
Encoding: 3 34 5
Width: 1063
VWidth: 3198
Flags: W
HStem: 937 556<195 431 634 873>
VStem: 195 236<937 1493> 634 239<937 1493>
LayerCount: 3
Fore
SplineSet
431 1493 m 1,0,-1
 431 937 l 1,1,-1
 195 937 l 1,2,-1
 195 1493 l 1,3,-1
 431 1493 l 1,0,-1
873 1493 m 1,4,-1
 873 937 l 1,5,-1
 634 937 l 1,6,-1
 634 1493 l 1,7,-1
 873 1493 l 1,4,-1
EndSplineSet
Layer: 2
SplineSet
431 1493 m 1
 431 937 l 1
 195 937 l 1
 195 1493 l 1
 431 1493 l 1
873 1493 m 1
 873 937 l 1
 634 937 l 1
 634 1493 l 1
 873 1493 l 1
EndSplineSet
EndChar

StartChar: numbersign
Encoding: 4 35 6
Width: 1713
VWidth: 3198
Flags: W
HStem: 0 21G<320 548.052 809 1034.05> 384 214<141 419 690 906 1178 1462> 873 211<253 537 815 1023 1298 1577>
VStem: 320 223<0 223> 687 225<1246 1471> 809 220<0 220> 1174 221<1250 1471>
DStem2: 320 0 543 0 0.243311 0.969948<54.2584 396.548 670.054 899.563 1171.86 1516.09> 809 0 1029 0 0.241449 0.970414<53.1188 396.059 669.402 898.841 1170 1515.61>
LayerCount: 3
Fore
SplineSet
1023 873 m 1,0,-1
 757 873 l 1,1,-1
 690 598 l 1,2,-1
 953 598 l 1,3,-1
 1023 873 l 1,0,-1
912 1471 m 1,4,-1
 815 1084 l 1,5,-1
 1078 1084 l 1,6,-1
 1174 1471 l 1,7,-1
 1395 1471 l 1,8,-1
 1298 1084 l 1,9,-1
 1577 1084 l 1,10,-1
 1577 873 l 1,11,-1
 1248 873 l 1,12,-1
 1178 598 l 1,13,-1
 1462 598 l 1,14,-1
 1462 384 l 1,15,-1
 1126 384 l 1,16,-1
 1029 0 l 1,17,-1
 809 0 l 1,18,-1
 906 384 l 1,19,-1
 640 384 l 1,20,-1
 543 0 l 1,21,-1
 320 0 l 1,22,-1
 419 384 l 1,23,-1
 141 384 l 1,24,-1
 141 598 l 1,25,-1
 467 598 l 1,26,-1
 537 873 l 1,27,-1
 253 873 l 1,28,-1
 253 1084 l 1,29,-1
 592 1084 l 1,30,-1
 687 1471 l 1,31,-1
 912 1471 l 1,4,-1
EndSplineSet
Layer: 2
SplineSet
1023 873 m 1xf2
 757 873 l 1
 690 598 l 1
 953 598 l 1
 1023 873 l 1xf2
912 1471 m 1xfa
 815 1084 l 1
 1078 1084 l 1
 1174 1471 l 1
 1395 1471 l 1
 1298 1084 l 1
 1577 1084 l 1
 1577 873 l 1
 1248 873 l 1
 1178 598 l 1
 1462 598 l 1
 1462 384 l 1
 1126 384 l 1
 1029 0 l 1
 809 0 l 1xf6
 906 384 l 1
 640 384 l 1
 543 0 l 1
 320 0 l 1
 419 384 l 1
 141 384 l 1
 141 598 l 1
 467 598 l 1
 537 873 l 1
 253 873 l 1
 253 1084 l 1
 592 1084 l 1
 687 1471 l 1
 912 1471 l 1xfa
EndSplineSet
EndChar

StartChar: dollar
Encoding: 5 36 7
Width: 1422
VWidth: 3198
Flags: W
HStem: -28 111<446.25 647 768 905.147> 931 272<1056.41 1181> 1178 110<526.454 647 768 929.059>
VStem: 183 281<765.712 1085.21> 195 122<205.448 348> 647 121<-297 -28 83 458 839 1178 1288 1557> 973 281<181.664 520.239> 1062 119<931 1048.5>
LayerCount: 3
Fore
SplineSet
195 61 m 1,0,-1
 195 348 l 1,1,-1
 317 348 l 1,2,3
 333 214 333 214 411 148.5 c 128,-1,4
 489 83 489 83 634 83 c 2,5,-1
 647 83 l 1,6,-1
 647 489 l 1,7,8
 397 543 397 543 290 637.5 c 128,-1,9
 183 732 183 732 183 895 c 0,10,11
 183 1078 183 1078 304 1180 c 128,-1,12
 425 1282 425 1282 647 1288 c 1,13,-1
 647 1557 l 1,14,-1
 768 1557 l 1,15,-1
 768 1288 l 1,16,17
 879 1282 879 1282 981.5 1262 c 128,-1,18
 1084 1242 1084 1242 1181 1203 c 1,19,-1
 1181 931 l 1,20,-1
 1062 931 l 1,21,22
 1043 1046 1043 1046 967.5 1110 c 128,-1,23
 892 1174 892 1174 768 1178 c 1,24,-1
 768 806 l 1,25,26
 1037 745 1037 745 1145.5 646 c 128,-1,27
 1254 547 1254 547 1254 369 c 0,28,29
 1254 183 1254 183 1127.5 80.5 c 128,-1,30
 1001 -22 1001 -22 768 -28 c 1,31,-1
 768 -297 l 1,32,-1
 647 -297 l 1,33,-1
 647 -28 l 1,34,35
 537 -25 537 -25 424 -4.5 c 128,-1,36
 311 16 311 16 195 61 c 1,0,-1
647 1178 m 1,37,38
 559 1168 559 1168 511.5 1126 c 128,-1,39
 464 1084 464 1084 464 1020 c 0,40,41
 464 953 464 953 507 910 c 128,-1,42
 550 867 550 867 647 839 c 1,43,-1
 647 1178 l 1,37,38
768 83 m 1,44,45
 867 92 867 92 920 137.5 c 128,-1,46
 973 183 973 183 973 256 c 256,47,48
 973 330 973 330 924.5 377.5 c 128,-1,49
 876 425 876 425 768 458 c 1,50,-1
 768 83 l 1,44,45
EndSplineSet
Layer: 2
SplineSet
647 -28 m 1xa6
 476 -23 332 8 195 61 c 1
 195 348 l 1
 317 348 l 1xae
 339 165 442 83 647 83 c 1
 647 489 l 1
 384 546 183 625 183 895 c 3
 183 1160 377 1281 647 1288 c 1
 647 1557 l 1
 768 1557 l 1
 768 1288 l 1xb4
 926 1279 1058 1252 1181 1203 c 1
 1181 931 l 1
 1062 931 l 1xd5
 1037 1081 936 1173 768 1178 c 1
 768 806 l 1
 1053 741 1254 665 1254 369 c 3
 1254 97 1048 -21 768 -28 c 1
 768 -297 l 1
 647 -297 l 1
 647 -28 l 1xa6
647 1178 m 1
 548 1167 464 1120 464 1020 c 3xb4
 464 908 545 868 647 839 c 1
 647 1178 l 1
768 83 m 1
 881 93 973 144 973 256 c 259x86
 973 380 880 424 768 458 c 1
 768 83 l 1
EndSplineSet
EndChar

StartChar: percent
Encoding: 6 37 8
Width: 1944
VWidth: 3198
Flags: W
HStem: -28 98<1424.37 1582.84> 684 100<1422.13 1584.27> 707 99<361.095 523.58> 1420 100<360.834 523.84>
VStem: 48 272<896.786 1330.23> 419 173<-28 145> 562 274<895.978 1333.42> 1110 272<161.624 597.667> 1352 174<1346 1520> 1624 272<162.291 594.215>
DStem2: 419 -28 592 -28 0.516609 0.856221<89.3734 1807.43>
LayerCount: 3
Fore
SplineSet
442 1420 m 0,0,1
 378 1420 378 1420 349 1349.5 c 128,-1,2
 320 1279 320 1279 320 1113 c 256,3,4
 320 946 320 946 349 876 c 128,-1,5
 378 806 378 806 442 806 c 0,6,7
 509 806 509 806 535.5 876 c 128,-1,8
 562 946 562 946 562 1113 c 256,9,10
 562 1279 562 1279 535.5 1349.5 c 128,-1,11
 509 1420 509 1420 442 1420 c 0,0,1
442 1520 m 0,12,13
 634 1520 634 1520 735 1416 c 128,-1,14
 836 1312 836 1312 836 1113 c 0,15,16
 836 918 836 918 735 812.5 c 128,-1,17
 634 707 634 707 442 707 c 0,18,19
 253 707 253 707 150.5 812.5 c 128,-1,20
 48 918 48 918 48 1113 c 0,21,22
 48 1312 48 1312 150.5 1416 c 128,-1,23
 253 1520 253 1520 442 1520 c 0,12,13
1352 1520 m 1,24,-1
 1526 1520 l 1,25,-1
 592 -28 l 1,26,-1
 419 -28 l 1,27,-1
 1352 1520 l 1,24,-1
1504 784 m 0,28,29
 1691 784 1691 784 1793.5 680 c 128,-1,30
 1896 576 1896 576 1896 378 c 0,31,32
 1896 183 1896 183 1793.5 77.5 c 128,-1,33
 1691 -28 1691 -28 1504 -28 c 0,34,35
 1312 -28 1312 -28 1211 77.5 c 128,-1,36
 1110 183 1110 183 1110 378 c 0,37,38
 1110 576 1110 576 1211 680 c 128,-1,39
 1312 784 1312 784 1504 784 c 0,28,29
1504 684 m 0,40,41
 1437 684 1437 684 1409.5 613.5 c 128,-1,42
 1382 543 1382 543 1382 378 c 0,43,44
 1382 214 1382 214 1411 142 c 128,-1,45
 1440 70 1440 70 1504 70 c 256,46,47
 1568 70 1568 70 1596 142 c 128,-1,48
 1624 214 1624 214 1624 378 c 0,49,50
 1624 543 1624 543 1596 613.5 c 128,-1,51
 1568 684 1568 684 1504 684 c 0,40,41
EndSplineSet
Layer: 2
SplineSet
442 1420 m 3xba40
 326 1420 320 1266 320 1113 c 259
 320 960 326 806 442 806 c 3
 561 806 562 958 562 1113 c 259
 562 1268 561 1420 442 1420 c 3xba40
48 1113 m 3
 48 1373 185 1520 442 1520 c 3
 701 1520 836 1374 836 1113 c 3
 836 855 699 707 442 707 c 3
 187 707 48 857 48 1113 c 3
1352 1520 m 1x9cc0
 1526 1520 l 1
 592 -28 l 1
 419 -28 l 1
 1352 1520 l 1x9cc0
1110 378 m 3xd940
 1110 639 1245 784 1504 784 c 3
 1758 784 1896 636 1896 378 c 3
 1896 123 1757 -28 1504 -28 c 3
 1247 -28 1110 120 1110 378 c 3xd940
1504 684 m 3
 1386 684 1382 531 1382 378 c 3
 1382 228 1389 70 1504 70 c 259
 1619 70 1624 228 1624 378 c 3
 1624 530 1619 684 1504 684 c 3
EndSplineSet
EndChar

StartChar: ampersand
Encoding: 7 38 9
Width: 1847
VWidth: 3198
Flags: W
HStem: -28 156<637.232 997.87> 0 122<1641 1810> 793 122<1292 1474 1611.53 1794> 1398 122<733.581 1034.07>
VStem: 83 353<331.205 659.943> 339 329<1106.58 1334.24> 1129 128<1160 1294.72> 1474 144<590.875 793>
DStem2: 879 918 547 815 0.694642 -0.719356<-152.902 657.463 800.54 976.431>
LayerCount: 3
Fore
SplineSet
1810 0 m 1,0,-1
 1334 0 l 1,1,-1
 1206 131 l 1,2,3
 1107 52 1107 52 985.5 12 c 128,-1,4
 864 -28 864 -28 720 -28 c 0,5,6
 422 -28 422 -28 252.5 99 c 128,-1,7
 83 226 83 226 83 451 c 0,8,9
 83 614 83 614 169.5 729.5 c 128,-1,10
 256 845 256 845 442 928 c 1,11,12
 390 995 390 995 364.5 1056 c 128,-1,13
 339 1117 339 1117 339 1174 c 0,14,15
 339 1337 339 1337 475 1428.5 c 128,-1,16
 611 1520 611 1520 860 1520 c 0,17,18
 934 1520 934 1520 1033 1506.5 c 128,-1,19
 1132 1493 1132 1493 1257 1471 c 1,20,-1
 1257 1160 l 1,21,-1
 1129 1160 l 1,22,23
 1110 1282 1110 1282 1051 1340 c 128,-1,24
 992 1398 992 1398 885 1398 c 0,25,26
 787 1398 787 1398 727.5 1350 c 128,-1,27
 668 1302 668 1302 668 1218 c 0,28,29
 668 1129 668 1129 851 946 c 0,30,31
 867 928 867 928 879 918 c 1,32,-1
 1340 436 l 1,33,34
 1398 503 1398 503 1431.5 592 c 128,-1,35
 1465 681 1465 681 1474 793 c 1,36,-1
 1292 793 l 1,37,-1
 1292 915 l 1,38,-1
 1794 915 l 1,39,-1
 1794 793 l 1,40,-1
 1618 793 l 1,41,42
 1599 650 1599 650 1554.5 536 c 128,-1,43
 1510 422 1510 422 1437 336 c 1,44,-1
 1641 122 l 1,45,-1
 1810 122 l 1,46,-1
 1810 0 l 1,0,-1
1113 230 m 1,47,-1
 547 815 l 1,48,49
 492 748 492 748 464 673 c 128,-1,50
 436 598 436 598 436 515 c 0,51,52
 436 345 436 345 543 236.5 c 128,-1,53
 650 128 650 128 812 128 c 0,54,55
 889 128 889 128 963 154 c 128,-1,56
 1037 180 1037 180 1113 230 c 1,47,-1
EndSplineSet
Layer: 2
SplineSet
1618 793 m 1xb7
 1593 604 1535 452 1437 336 c 1
 1641 122 l 1
 1810 122 l 1
 1810 0 l 1
 1334 0 l 1x77
 1206 131 l 1
 1084 34 929 -28 720 -28 c 3
 367 -28 83 119 83 451 c 3xbb
 83 712 238 837 442 928 c 1
 388 997 339 1072 339 1174 c 3
 339 1427 581 1520 860 1520 c 3
 995 1520 1122 1495 1257 1471 c 1
 1257 1160 l 1
 1129 1160 l 1
 1106 1306 1043 1398 885 1398 c 3
 763 1398 668 1336 668 1218 c 3
 668 1146 733 1070 879 918 c 2
 1340 436 l 1
 1416 524 1462 642 1474 793 c 1
 1292 793 l 1
 1292 915 l 1
 1794 915 l 1
 1794 793 l 1
 1618 793 l 1xb7
436 515 m 3xbb
 436 294 593 128 812 128 c 3
 937 128 1028 174 1113 230 c 1
 547 815 l 1
 484 738 436 644 436 515 c 3xbb
EndSplineSet
EndChar

StartChar: quotesingle
Encoding: 8 39 10
Width: 626
VWidth: 3198
Flags: W
HStem: 937 556<195 431>
VStem: 195 236<937 1493>
LayerCount: 3
Fore
SplineSet
431 1493 m 1,0,-1
 431 937 l 1,1,-1
 195 937 l 1,2,-1
 195 1493 l 1,3,-1
 431 1493 l 1,0,-1
EndSplineSet
Layer: 2
SplineSet
431 1493 m 1
 431 937 l 1
 195 937 l 1
 195 1493 l 1
 431 1493 l 1
EndSplineSet
EndChar

StartChar: parenleft
Encoding: 9 40 11
Width: 968
VWidth: 3198
Flags: W
HStem: 1534 20G<660.5 860>
VStem: 192 373<292.367 942.676>
LayerCount: 3
Fore
SplineSet
860 -320 m 1,0,1
 525 -195 525 -195 358.5 38.5 c 128,-1,2
 192 272 192 272 192 617 c 256,3,4
 192 962 192 962 357 1192.5 c 128,-1,5
 522 1423 522 1423 860 1554 c 1,6,-1
 860 1437 l 1,7,8
 704 1340 704 1340 634.5 1151 c 128,-1,9
 565 962 565 962 565 617 c 0,10,11
 565 275 565 275 634.5 86 c 128,-1,12
 704 -103 704 -103 860 -198 c 1,13,-1
 860 -320 l 1,0,1
EndSplineSet
Layer: 2
SplineSet
860 1437 m 1
 623 1289 565 1030 565 617 c 3
 565 208 623 -55 860 -198 c 1
 860 -320 l 1
 461 -171 192 104 192 617 c 259
 192 1132 461 1400 860 1554 c 1
 860 1437 l 1
EndSplineSet
EndChar

StartChar: parenright
Encoding: 10 41 12
Width: 968
VWidth: 3198
Flags: W
HStem: 1534 20G<106 306>
VStem: 400 375<292.807 942.662>
LayerCount: 3
Fore
SplineSet
106 -320 m 1,0,-1
 106 -198 l 1,1,2
 262 -103 262 -103 331 86 c 128,-1,3
 400 275 400 275 400 617 c 0,4,5
 400 962 400 962 331 1151 c 128,-1,6
 262 1340 262 1340 106 1437 c 1,7,-1
 106 1554 l 1,8,9
 445 1423 445 1423 610 1192.5 c 128,-1,10
 775 962 775 962 775 617 c 256,11,12
 775 272 775 272 608.5 38.5 c 128,-1,13
 442 -195 442 -195 106 -320 c 1,0,-1
EndSplineSet
Layer: 2
SplineSet
106 -320 m 1
 106 -198 l 1
 342 -55 400 210 400 617 c 3
 400 1029 342 1289 106 1437 c 1
 106 1554 l 1
 506 1400 775 1133 775 617 c 259
 775 104 506 -171 106 -320 c 1
EndSplineSet
EndChar

StartChar: asterisk
Encoding: 11 42 13
Width: 1071
VWidth: 3198
Flags: W
HStem: 1500 20G<445 626>
LayerCount: 3
Fore
SplineSet
1026 1212 m 1,0,-1
 665 1043 l 1,1,-1
 1026 873 l 1,2,-1
 928 720 l 1,3,-1
 601 959 l 1,4,-1
 626 570 l 1,5,-1
 445 570 l 1,6,-1
 470 959 l 1,7,-1
 144 720 l 1,8,-1
 45 873 l 1,9,-1
 406 1043 l 1,10,-1
 45 1212 l 1,11,-1
 144 1370 l 1,12,-1
 470 1129 l 1,13,-1
 445 1520 l 1,14,-1
 626 1520 l 1,15,-1
 601 1129 l 1,16,-1
 928 1370 l 1,17,-1
 1026 1212 l 1,0,-1
EndSplineSet
Layer: 2
SplineSet
1026 1212 m 1
 665 1043 l 1
 1026 873 l 1
 928 720 l 1
 601 959 l 1
 626 570 l 1
 445 570 l 1
 470 959 l 1
 144 720 l 1
 45 873 l 1
 406 1043 l 1
 45 1212 l 1
 144 1370 l 1
 470 1129 l 1
 445 1520 l 1
 626 1520 l 1
 601 1129 l 1
 928 1370 l 1
 1026 1212 l 1
EndSplineSet
EndChar

StartChar: plus
Encoding: 12 43 14
Width: 1713
VWidth: 3198
Flags: W
HStem: 528 229<217 742 973 1496>
VStem: 742 231<3 528 757 1282>
LayerCount: 3
Fore
SplineSet
973 1282 m 1,0,-1
 973 757 l 1,1,-1
 1496 757 l 1,2,-1
 1496 528 l 1,3,-1
 973 528 l 1,4,-1
 973 3 l 1,5,-1
 742 3 l 1,6,-1
 742 528 l 1,7,-1
 217 528 l 1,8,-1
 217 757 l 1,9,-1
 742 757 l 1,10,-1
 742 1282 l 1,11,-1
 973 1282 l 1,0,-1
EndSplineSet
Layer: 2
SplineSet
973 1282 m 1
 973 757 l 1
 1496 757 l 1
 1496 528 l 1
 973 528 l 1
 973 3 l 1
 742 3 l 1
 742 528 l 1
 217 528 l 1
 217 757 l 1
 742 757 l 1
 742 1282 l 1
 973 1282 l 1
EndSplineSet
EndChar

StartChar: comma
Encoding: 13 44 15
Width: 712
VWidth: 3198
Flags: W
HStem: -339 659
VStem: 230 285<31.4648 320>
LayerCount: 3
Fore
SplineSet
25 -195 m 1,0,1
 131 -112 131 -112 180.5 -10 c 128,-1,2
 230 92 230 92 230 234 c 2,3,-1
 230 320 l 1,4,-1
 515 320 l 1,5,-1
 515 311 l 2,6,7
 515 89 515 89 422.5 -70.5 c 128,-1,8
 330 -230 330 -230 137 -339 c 1,9,-1
 25 -195 l 1,0,1
EndSplineSet
Layer: 2
SplineSet
25 -195 m 1
 152 -95 230 22 230 234 c 2
 230 320 l 1
 515 320 l 1
 515 -20 370 -208 137 -339 c 1
 25 -195 l 1
EndSplineSet
EndChar

StartChar: hyphen
Encoding: 14 45 16
Width: 849
VWidth: 3198
Flags: W
HStem: 412 272<112 739>
VStem: 112 627<412 684>
LayerCount: 3
Fore
SplineSet
112 684 m 1,0,-1
 739 684 l 1,1,-1
 739 412 l 1,2,-1
 112 412 l 1,3,-1
 112 684 l 1,0,-1
EndSplineSet
Layer: 2
SplineSet
112 684 m 1
 739 684 l 1
 739 412 l 1
 112 412 l 1
 112 684 l 1
EndSplineSet
EndChar

StartChar: period
Encoding: 15 46 17
Width: 712
VWidth: 3198
Flags: W
HStem: -28 379<235.352 477.114>
VStem: 166 381<41.9456 281.648>
LayerCount: 3
Fore
SplineSet
166 162 m 128,-1,1
 166 241 166 241 222 296 c 128,-1,2
 278 351 278 351 355 351 c 0,3,4
 436 351 436 351 491.5 296 c 128,-1,5
 547 241 547 241 547 162 c 128,-1,6
 547 83 547 83 491.5 27.5 c 128,-1,7
 436 -28 436 -28 355 -28 c 0,8,9
 278 -28 278 -28 222 27.5 c 128,-1,0
 166 83 166 83 166 162 c 128,-1,1
EndSplineSet
Layer: 2
SplineSet
355 -28 m 3
 252 -28 166 59 166 162 c 3
 166 265 252 351 355 351 c 3
 461 351 547 268 547 162 c 3
 547 56 461 -28 355 -28 c 3
EndSplineSet
EndChar

StartChar: slash
Encoding: 16 47 18
Width: 748
VWidth: 3198
Flags: W
HStem: 1473 20G<518.769 748>
VStem: 0 220<-192 28> 525 223<1270 1493>
DStem2: 0 -192 220 -192 0.299017 0.954248<65.7836 1764.89>
LayerCount: 3
Fore
SplineSet
525 1493 m 1,0,-1
 748 1493 l 1,1,-1
 220 -192 l 1,2,-1
 0 -192 l 1,3,-1
 525 1493 l 1,0,-1
EndSplineSet
Layer: 2
SplineSet
525 1493 m 1
 748 1493 l 1
 220 -192 l 1
 0 -192 l 1
 525 1493 l 1
EndSplineSet
EndChar

StartChar: zero
Encoding: 17 48 19
Width: 1422
VWidth: 3198
Flags: W
HStem: -28 117<594.577 832.386> 1401 119<594.462 832.501>
VStem: 95 408<410.748 1088.47> 921 406<402.808 1087.6>
LayerCount: 3
Fore
SplineSet
714 89 m 256,0,1
 831 89 831 89 876 197 c 128,-1,2
 921 305 921 305 921 745 c 0,3,4
 921 1181 921 1181 876 1291 c 128,-1,5
 831 1401 831 1401 714 1401 c 256,6,7
 595 1401 595 1401 549 1294 c 128,-1,8
 503 1187 503 1187 503 745 c 256,9,10
 503 305 503 305 549 197 c 128,-1,11
 595 89 595 89 714 89 c 256,0,1
714 -28 m 0,12,13
 412 -28 412 -28 253.5 172 c 128,-1,14
 95 372 95 372 95 745 c 256,15,16
 95 1120 95 1120 253.5 1320 c 128,-1,17
 412 1520 412 1520 714 1520 c 0,18,19
 1010 1520 1010 1520 1168.5 1320 c 128,-1,20
 1327 1120 1327 1120 1327 745 c 256,21,22
 1327 372 1327 372 1168.5 172 c 128,-1,23
 1010 -28 1010 -28 714 -28 c 0,12,13
EndSplineSet
Layer: 2
SplineSet
714 89 m 259
 903 89 921 260 921 745 c 3
 921 1230 903 1401 714 1401 c 259
 525 1401 503 1230 503 745 c 259
 503 260 525 89 714 89 c 259
1327 745 m 259
 1327 292 1144 -28 714 -28 c 3
 279 -28 95 289 95 745 c 259
 95 1203 278 1520 714 1520 c 3
 1145 1520 1327 1199 1327 745 c 259
EndSplineSet
EndChar

StartChar: one
Encoding: 18 49 20
Width: 1422
VWidth: 3198
Flags: W
HStem: 0 122<281 559 940 1218> 1145 147<250 397> 1500 20G<590.281 940>
VStem: 559 381<122 1327>
DStem2: 250 1292 250 1145 0.853225 0.521543<0 281.901>
LayerCount: 3
Fore
SplineSet
281 0 m 1,0,-1
 281 122 l 1,1,-1
 559 122 l 1,2,-1
 559 1327 l 1,3,-1
 250 1145 l 1,4,-1
 250 1292 l 1,5,-1
 623 1520 l 1,6,-1
 940 1520 l 1,7,-1
 940 122 l 1,8,-1
 1218 122 l 1,9,-1
 1218 0 l 1,10,-1
 281 0 l 1,0,-1
EndSplineSet
Layer: 2
SplineSet
281 0 m 1
 281 122 l 1
 559 122 l 1
 559 1327 l 1
 250 1145 l 1
 250 1292 l 1
 623 1520 l 1
 940 1520 l 1
 940 122 l 1
 1218 122 l 1
 1218 0 l 1
 281 0 l 1
EndSplineSet
EndChar

StartChar: two
Encoding: 19 50 21
Width: 1422
VWidth: 3198
Flags: W
HStem: 0 262<397 1104> 1401 119<388.271 701.371>
VStem: 150 119<1123 1266.92> 828 410<885.743 1266.34> 1104 138<262 439>
DStem2: 358 397 397 262 0.836366 0.548172<-41.385 403.458>
LayerCount: 3
Fore
SplineSet
269 1123 m 1,0,-1
 150 1123 l 1,1,-1
 150 1446 l 1,2,3
 272 1480 272 1480 392 1500 c 128,-1,4
 512 1520 512 1520 634 1520 c 0,5,6
 918 1520 918 1520 1078 1402.5 c 128,-1,7
 1238 1285 1238 1285 1238 1078 c 0,8,9
 1238 931 1238 931 1150 814 c 128,-1,10
 1062 697 1062 697 812 534 c 2,11,-1
 397 262 l 1,12,-1
 1104 262 l 1,13,-1
 1104 439 l 1,14,-1
 1242 439 l 1,15,-1
 1242 0 l 1,16,-1
 137 0 l 1,17,-1
 137 244 l 1,18,-1
 358 397 l 2,19,20
 640 592 640 592 734 729.5 c 128,-1,21
 828 867 828 867 828 1049 c 0,22,23
 828 1221 828 1221 756 1311 c 128,-1,24
 684 1401 684 1401 550 1401 c 0,25,26
 428 1401 428 1401 357.5 1330.5 c 128,-1,27
 287 1260 287 1260 269 1123 c 1,0,-1
EndSplineSet
Layer: 2
SplineSet
550 1401 m 3xf0
 372 1401 291 1289 269 1123 c 1
 150 1123 l 1
 150 1446 l 1
 299 1488 454 1520 634 1520 c 3
 966 1520 1238 1388 1238 1078 c 3xf0
 1238 824 1049 689 812 534 c 2
 397 262 l 1
 1104 262 l 1
 1104 439 l 1
 1242 439 l 1
 1242 0 l 1xe8
 137 0 l 1
 137 244 l 1
 358 397 l 2
 633 587 828 751 828 1049 c 3
 828 1257 746 1401 550 1401 c 3xf0
EndSplineSet
EndChar

StartChar: three
Encoding: 20 51 22
Width: 1422
VWidth: 3198
Flags: W
HStem: -28 117<392.413 749.902> 748 122<489 728.068> 1401 119<407.61 734.552>
VStem: 144 121<217.755 378> 176 121<1151 1287.26> 836 395<978.373 1302.53> 885 407<223.854 605.011>
LayerCount: 3
Fore
SplineSet
176 1449 m 1,0,1
 308 1484 308 1484 430.5 1502 c 128,-1,2
 553 1520 553 1520 675 1520 c 0,3,4
 943 1520 943 1520 1087 1423.5 c 128,-1,5
 1231 1327 1231 1327 1231 1145 c 0,6,7
 1231 1010 1231 1010 1148 927.5 c 128,-1,8
 1065 845 1065 845 909 815 c 1,9,10
 1101 784 1101 784 1196.5 681.5 c 128,-1,11
 1292 579 1292 579 1292 403 c 0,12,13
 1292 195 1292 195 1127 83.5 c 128,-1,14
 962 -28 962 -28 650 -28 c 0,15,16
 531 -28 531 -28 406 -9.5 c 128,-1,17
 281 9 281 9 144 52 c 1,18,-1
 144 378 l 1,19,-1
 265 378 l 1,20,21
 275 237 275 237 351.5 163 c 128,-1,22
 428 89 428 89 570 89 c 0,23,24
 720 89 720 89 802.5 172.5 c 128,-1,25
 885 256 885 256 885 412 c 0,26,27
 885 573 885 573 799.5 660.5 c 128,-1,28
 714 748 714 748 553 748 c 2,29,-1
 489 748 l 1,30,-1
 489 870 l 1,31,-1
 540 870 l 2,32,33
 687 870 687 870 761.5 937 c 128,-1,34
 836 1004 836 1004 836 1138 c 0,35,36
 836 1267 836 1267 766.5 1334 c 128,-1,37
 697 1401 697 1401 565 1401 c 0,38,39
 448 1401 448 1401 379.5 1337 c 128,-1,40
 311 1273 311 1273 297 1151 c 1,41,-1
 176 1151 l 1,42,-1
 176 1449 l 1,0,1
EndSplineSet
Layer: 2
SplineSet
565 1401 m 3xe4
 400 1401 315 1304 297 1151 c 1
 176 1151 l 1
 176 1449 l 1
 335 1491 489 1520 675 1520 c 3
 980 1520 1231 1424 1231 1145 c 3xec
 1231 943 1091 850 909 815 c 1
 1142 777 1292 659 1292 403 c 3
 1292 82 1002 -28 650 -28 c 3
 460 -28 303 2 144 52 c 1
 144 378 l 1
 265 378 l 1
 278 195 376 89 570 89 c 3
 773 89 885 207 885 412 c 3xf2
 885 626 767 748 553 748 c 2
 489 748 l 1
 489 870 l 1
 540 870 l 2
 729 870 836 953 836 1138 c 3
 836 1311 739 1401 565 1401 c 3xe4
EndSplineSet
EndChar

StartChar: four
Encoding: 21 52 23
Width: 1422
VWidth: 3198
Flags: W
HStem: 0 122<486 707 1084 1306> 394 128<262 707 1084 1340> 1500 20G<694.656 1084>
VStem: 707 377<122 394 522 1248>
DStem2: 83 509 262 522 0.525224 0.850964<105.078 956.602>
LayerCount: 3
Fore
SplineSet
1306 0 m 1,0,-1
 486 0 l 1,1,-1
 486 122 l 1,2,-1
 707 122 l 1,3,-1
 707 394 l 1,4,-1
 83 394 l 1,5,-1
 83 509 l 1,6,-1
 707 1520 l 1,7,-1
 1084 1520 l 1,8,-1
 1084 522 l 1,9,-1
 1340 522 l 1,10,-1
 1340 394 l 1,11,-1
 1084 394 l 1,12,-1
 1084 122 l 1,13,-1
 1306 122 l 1,14,-1
 1306 0 l 1,0,-1
707 522 m 1,15,-1
 707 1248 l 1,16,-1
 262 522 l 1,17,-1
 707 522 l 1,15,-1
EndSplineSet
Layer: 2
SplineSet
1306 0 m 1
 486 0 l 1
 486 122 l 1
 707 122 l 1
 707 394 l 1
 83 394 l 1
 83 509 l 1
 707 1520 l 1
 1084 1520 l 1
 1084 522 l 1
 1340 522 l 1
 1340 394 l 1
 1084 394 l 1
 1084 122 l 1
 1306 122 l 1
 1306 0 l 1
707 522 m 1
 707 1248 l 1
 262 522 l 1
 707 522 l 1
EndSplineSet
EndChar

StartChar: five
Encoding: 22 53 24
Width: 1422
VWidth: 3198
Flags: W
HStem: -28 117<400.503 732.355> 882 122<451.731 736.676> 1231 262<355 1154>
VStem: 166 121<203.941 378> 237 118<903 1231> 860 410<262.366 706.563>
LayerCount: 3
Fore
SplineSet
1154 1493 m 1,0,-1
 1154 1231 l 1,1,-1
 355 1231 l 1,2,-1
 355 903 l 1,3,4
 422 953 422 953 502.5 978.5 c 128,-1,5
 583 1004 583 1004 675 1004 c 0,6,7
 950 1004 950 1004 1110 865 c 128,-1,8
 1270 726 1270 726 1270 486 c 0,9,10
 1270 244 1270 244 1110 108 c 128,-1,11
 950 -28 950 -28 662 -28 c 0,12,13
 540 -28 540 -28 418.5 -9.5 c 128,-1,14
 297 9 297 9 166 55 c 1,15,-1
 166 378 l 1,16,-1
 287 378 l 1,17,18
 294 230 294 230 365 159.5 c 128,-1,19
 436 89 436 89 573 89 c 0,20,21
 720 89 720 89 790 186.5 c 128,-1,22
 860 284 860 284 860 486 c 0,23,24
 860 684 860 684 791.5 783 c 128,-1,25
 723 882 723 882 583 882 c 0,26,27
 506 882 506 882 446.5 850 c 128,-1,28
 387 818 387 818 336 754 c 1,29,-1
 237 754 l 1,30,-1
 237 1493 l 1,31,-1
 1154 1493 l 1,0,-1
EndSplineSet
Layer: 2
SplineSet
583 882 m 3xf4
 464 882 394 827 336 754 c 1
 237 754 l 1
 237 1493 l 1
 1154 1493 l 1
 1154 1231 l 1
 355 1231 l 1
 355 903 l 1xec
 436 964 540 1004 675 1004 c 3
 1021 1004 1270 822 1270 486 c 3
 1270 142 1019 -28 662 -28 c 3
 471 -28 321 1 166 55 c 1
 166 378 l 1
 287 378 l 1
 296 190 381 89 573 89 c 3
 793 89 860 249 860 486 c 3
 860 716 794 882 583 882 c 3xf4
EndSplineSet
EndChar

StartChar: six
Encoding: 23 54 25
Width: 1422
VWidth: 3198
Flags: W
HStem: -28 117<612.159 842.971> 870 119<608.615 841.582> 1196 263<1104.88 1238> 1401 119<667.222 1011.04>
VStem: 128 409<375.138 922.709> 918 397<251.657 719.053> 1117 121<1196 1295.84>
LayerCount: 3
Fore
SplineSet
503 882 m 1,0,1
 570 937 570 937 649.5 963 c 128,-1,2
 729 989 729 989 825 989 c 0,3,4
 1056 989 1056 989 1185.5 854.5 c 128,-1,5
 1315 720 1315 720 1315 486 c 0,6,7
 1315 241 1315 241 1167.5 106.5 c 128,-1,8
 1020 -28 1020 -28 748 -28 c 0,9,10
 445 -28 445 -28 286.5 155.5 c 128,-1,11
 128 339 128 339 128 697 c 0,12,13
 128 1107 128 1107 303.5 1313.5 c 128,-1,14
 479 1520 479 1520 821 1520 c 0,15,16
 912 1520 912 1520 1014.5 1505 c 128,-1,17
 1117 1490 1117 1490 1238 1459 c 1,18,-1
 1238 1196 l 1,19,-1
 1117 1196 l 1,20,21
 1090 1298 1090 1298 1021.5 1349.5 c 128,-1,22
 953 1401 953 1401 842 1401 c 0,23,24
 662 1401 662 1401 584 1279 c 128,-1,25
 506 1157 506 1157 503 882 c 1,0,1
726 89 m 256,26,27
 828 89 828 89 873 175.5 c 128,-1,28
 918 262 918 262 918 479 c 0,29,30
 918 693 918 693 873 781.5 c 128,-1,31
 828 870 828 870 726 870 c 256,32,33
 623 870 623 870 580 781.5 c 128,-1,34
 537 693 537 693 537 479 c 0,35,36
 537 262 537 262 580 175.5 c 128,-1,37
 623 89 623 89 726 89 c 256,26,27
EndSplineSet
Layer: 2
SplineSet
1117 1196 m 1xea
 1083 1324 999 1401 842 1401 c 3
 563 1401 506 1191 503 882 c 1
 585 949 684 989 825 989 c 3
 1134 989 1315 796 1315 486 c 3
 1315 147 1095 -28 748 -28 c 3
 318 -28 128 250 128 697 c 3
 128 1206 333 1520 821 1520 c 3xdc
 973 1520 1101 1494 1238 1459 c 1
 1238 1196 l 1
 1117 1196 l 1xea
726 89 m 259
 901 89 918 262 918 479 c 3
 918 694 901 870 726 870 c 259
 551 870 537 694 537 479 c 3
 537 262 551 89 726 89 c 259
EndSplineSet
EndChar

StartChar: seven
Encoding: 24 55 26
Width: 1422
VWidth: 3198
Flags: W
HStem: 0 21G<436 649.919> 1209 284<297 1037>
VStem: 162 135<1007 1209>
DStem2: 436 0 640 0 0.444317 0.89587<90.6406 1350.14>
LayerCount: 3
Fore
SplineSet
1254 1238 m 1,0,-1
 640 0 l 1,1,-1
 436 0 l 1,2,-1
 1037 1209 l 1,3,-1
 297 1209 l 1,4,-1
 297 1007 l 1,5,-1
 162 1007 l 1,6,-1
 162 1493 l 1,7,-1
 1254 1493 l 1,8,-1
 1254 1238 l 1,0,-1
EndSplineSet
Layer: 2
SplineSet
1254 1238 m 1
 640 0 l 1
 436 0 l 1
 1037 1209 l 1
 297 1209 l 1
 297 1007 l 1
 162 1007 l 1
 162 1493 l 1
 1254 1493 l 1
 1254 1238 l 1
EndSplineSet
EndChar

StartChar: eight
Encoding: 25 56 27
Width: 1422
VWidth: 3198
Flags: W
HStem: -28 117<571.996 847.256> 736 115<591.926 830.074> 1401 119<594.75 827.119>
VStem: 106 397<208.947 589.642> 156 387<957.541 1313.08> 879 388<957.763 1313.09> 918 397<206.372 589.642>
LayerCount: 3
Fore
SplineSet
953 793 m 1,0,1
 1129 764 1129 764 1222 661.5 c 128,-1,2
 1315 559 1315 559 1315 397 c 0,3,4
 1315 192 1315 192 1159.5 82 c 128,-1,5
 1004 -28 1004 -28 711 -28 c 0,6,7
 419 -28 419 -28 262.5 82 c 128,-1,8
 106 192 106 192 106 397 c 0,9,10
 106 559 106 559 200 661.5 c 128,-1,11
 294 764 294 764 470 793 c 1,12,13
 311 831 311 831 233.5 914.5 c 128,-1,14
 156 998 156 998 156 1129 c 0,15,16
 156 1321 156 1321 299 1420.5 c 128,-1,17
 442 1520 442 1520 711 1520 c 0,18,19
 982 1520 982 1520 1124.5 1420.5 c 128,-1,20
 1267 1321 1267 1321 1267 1129 c 0,21,22
 1267 998 1267 998 1188.5 914.5 c 128,-1,23
 1110 831 1110 831 953 793 c 1,0,1
879 1126 m 256,24,25
 879 1282 879 1282 841 1341.5 c 128,-1,26
 803 1401 803 1401 711 1401 c 256,27,28
 617 1401 617 1401 580 1341.5 c 128,-1,29
 543 1282 543 1282 543 1126 c 256,30,31
 543 970 543 970 580 910.5 c 128,-1,32
 617 851 617 851 711 851 c 0,33,34
 806 851 806 851 842.5 910.5 c 128,-1,35
 879 970 879 970 879 1126 c 256,24,25
918 412 m 0,36,37
 918 598 918 598 871.5 667 c 128,-1,38
 825 736 825 736 711 736 c 256,39,40
 595 736 595 736 549 667 c 128,-1,41
 503 598 503 598 503 412 c 0,42,43
 503 230 503 230 550.5 159.5 c 128,-1,44
 598 89 598 89 711 89 c 256,45,46
 821 89 821 89 869.5 159.5 c 128,-1,47
 918 230 918 230 918 412 c 0,36,37
EndSplineSet
Layer: 2
SplineSet
1267 1129 m 3xec
 1267 927 1131 836 953 793 c 1
 1166 758 1315 633 1315 397 c 3
 1315 86 1049 -28 711 -28 c 3
 374 -28 106 86 106 397 c 3xf2
 106 633 257 758 470 793 c 1
 290 836 156 926 156 1129 c 3
 156 1418 399 1520 711 1520 c 3
 1025 1520 1267 1419 1267 1129 c 3xec
543 1126 m 259xec
 543 954 561 851 711 851 c 3
 861 851 879 954 879 1126 c 259
 879 1297 859 1401 711 1401 c 259
 561 1401 543 1298 543 1126 c 259xec
711 89 m 259
 887 89 918 211 918 412 c 3
 918 620 893 736 711 736 c 259
 528 736 503 620 503 412 c 3xf2
 503 209 532 89 711 89 c 259
EndSplineSet
EndChar

StartChar: nine
Encoding: 26 57 28
Width: 1422
VWidth: 3198
Flags: W
HStem: -28 117<413.787 755.394> 31 263<189 319.058> 503 117<583.586 815.341> 1401 119<580.272 811.77>
VStem: 112 397<771.043 1238.4> 189 122<188.849 294> 889 406<567.213 1119.63>
LayerCount: 3
Fore
SplineSet
697 1401 m 256,0,1
 595 1401 595 1401 552 1314 c 128,-1,2
 509 1227 509 1227 509 1010 c 0,3,4
 509 796 509 796 552 708 c 128,-1,5
 595 620 595 620 697 620 c 256,6,7
 800 620 800 620 844.5 708 c 128,-1,8
 889 796 889 796 889 1010 c 0,9,10
 889 1227 889 1227 844.5 1314 c 128,-1,11
 800 1401 800 1401 697 1401 c 256,0,1
921 608 m 1,12,13
 854 553 854 553 773.5 528 c 128,-1,14
 693 503 693 503 601 503 c 0,15,16
 372 503 372 503 242 635.5 c 128,-1,17
 112 768 112 768 112 1004 c 0,18,19
 112 1251 112 1251 257.5 1385.5 c 128,-1,20
 403 1520 403 1520 675 1520 c 0,21,22
 982 1520 982 1520 1138.5 1335.5 c 128,-1,23
 1295 1151 1295 1151 1295 793 c 0,24,25
 1295 384 1295 384 1120.5 178 c 128,-1,26
 946 -28 946 -28 601 -28 c 0,27,28
 512 -28 512 -28 408.5 -14 c 128,-1,29
 305 0 305 0 189 31 c 1,30,-1
 189 294 l 1,31,-1
 311 294 l 1,32,33
 333 192 333 192 403 140.5 c 128,-1,34
 473 89 473 89 583 89 c 0,35,36
 757 89 757 89 837.5 211 c 128,-1,37
 918 333 918 333 921 608 c 1,12,13
EndSplineSet
Layer: 2
SplineSet
697 1401 m 259x3a
 522 1401 509 1226 509 1010 c 3
 509 796 523 620 697 620 c 259
 872 620 889 796 889 1010 c 3
 889 1227 873 1401 697 1401 c 259x3a
311 294 m 1x76
 339 164 430 89 583 89 c 3
 857 89 918 302 921 608 c 1
 840 542 739 503 601 503 c 3
 293 503 112 694 112 1004 c 3
 112 1345 326 1520 675 1520 c 3
 1108 1520 1295 1242 1295 793 c 3
 1295 283 1091 -28 601 -28 c 3xba
 453 -28 320 -4 189 31 c 1
 189 294 l 1
 311 294 l 1x76
EndSplineSet
EndChar

StartChar: colon
Encoding: 27 58 29
Width: 754
VWidth: 3198
Flags: W
HStem: -28 379<257.106 496.419> 623 381<257.522 492.488>
VStem: 189 376<41.9456 281.648 692.352 930.522>
LayerCount: 3
Fore
SplineSet
189 812 m 0,0,1
 189 892 189 892 243 948 c 128,-1,2
 297 1004 297 1004 378 1004 c 0,3,4
 454 1004 454 1004 509.5 946.5 c 128,-1,5
 565 889 565 889 565 812 c 256,6,7
 565 736 565 736 511.5 679.5 c 128,-1,8
 458 623 458 623 378 623 c 256,9,10
 297 623 297 623 243 679.5 c 128,-1,11
 189 736 189 736 189 812 c 0,0,1
189 162 m 128,-1,13
 189 241 189 241 243 296 c 128,-1,14
 297 351 297 351 378 351 c 0,15,16
 454 351 454 351 509.5 296 c 128,-1,17
 565 241 565 241 565 162 c 128,-1,18
 565 83 565 83 509.5 27.5 c 128,-1,19
 454 -28 454 -28 378 -28 c 0,20,21
 297 -28 297 -28 243 27.5 c 128,-1,12
 189 83 189 83 189 162 c 128,-1,13
EndSplineSet
Layer: 2
SplineSet
378 623 m 259
 273 623 189 709 189 812 c 3
 189 918 271 1004 378 1004 c 3
 479 1004 565 913 565 812 c 259
 565 709 482 623 378 623 c 259
378 -28 m 3
 272 -28 189 56 189 162 c 3
 189 268 272 351 378 351 c 3
 480 351 565 265 565 162 c 3
 565 59 480 -28 378 -28 c 3
EndSplineSet
EndChar

StartChar: semicolon
Encoding: 28 59 30
Width: 754
VWidth: 3198
Flags: W
HStem: 623 381<257.522 492.488>
VStem: 189 376<692.352 930.522> 256 284<52.0352 326>
LayerCount: 3
Fore
SplineSet
189 812 m 0,0,1
 189 892 189 892 243 948 c 128,-1,2
 297 1004 297 1004 378 1004 c 0,3,4
 454 1004 454 1004 509.5 946.5 c 128,-1,5
 565 889 565 889 565 812 c 256,6,7
 565 736 565 736 511.5 679.5 c 128,-1,8
 458 623 458 623 378 623 c 256,9,10
 297 623 297 623 243 679.5 c 128,-1,11
 189 736 189 736 189 812 c 0,0,1
55 -189 m 1,12,13
 156 -106 156 -106 206 -1.5 c 128,-1,14
 256 103 256 103 256 241 c 2,15,-1
 256 326 l 1,16,-1
 540 326 l 1,17,18
 540 103 540 103 447.5 -58.5 c 128,-1,19
 355 -220 355 -220 162 -330 c 1,20,-1
 55 -189 l 1,12,13
EndSplineSet
Layer: 2
SplineSet
378 623 m 259xc0
 273 623 189 709 189 812 c 3
 189 918 271 1004 378 1004 c 3
 479 1004 565 913 565 812 c 259
 565 709 482 623 378 623 c 259xc0
55 -189 m 1
 176 -90 256 35 256 241 c 2
 256 326 l 1
 540 326 l 1xa0
 540 -8 391 -200 162 -330 c 1
 55 -189 l 1
EndSplineSet
EndChar

StartChar: less
Encoding: 29 60 31
Width: 1713
VWidth: 3198
Flags: W
DStem2: 522 640 217 531 0.939342 -0.342981<0 1029.82>
LayerCount: 3
Fore
SplineSet
1496 979 m 1,0,-1
 522 640 l 1,1,-1
 1496 305 l 1,2,-1
 1496 64 l 1,3,-1
 217 531 l 1,4,-1
 217 754 l 1,5,-1
 1496 1218 l 1,6,-1
 1496 979 l 1,0,-1
EndSplineSet
Layer: 2
SplineSet
1496 979 m 1
 522 640 l 1
 1496 305 l 1
 1496 64 l 1
 217 531 l 1
 217 754 l 1
 1496 1218 l 1
 1496 979 l 1
EndSplineSet
EndChar

StartChar: equal
Encoding: 30 61 32
Width: 1713
VWidth: 3198
Flags: W
HStem: 301 227<217 1496> 754 228<217 1496>
LayerCount: 3
Fore
SplineSet
217 528 m 1,0,-1
 1496 528 l 1,1,-1
 1496 301 l 1,2,-1
 217 301 l 1,3,-1
 217 528 l 1,0,-1
217 982 m 1,4,-1
 1496 982 l 1,5,-1
 1496 754 l 1,6,-1
 217 754 l 1,7,-1
 217 982 l 1,4,-1
EndSplineSet
Layer: 2
SplineSet
217 528 m 1
 1496 528 l 1
 1496 301 l 1
 217 301 l 1
 217 528 l 1
217 982 m 1
 1496 982 l 1
 1496 754 l 1
 217 754 l 1
 217 982 l 1
EndSplineSet
EndChar

StartChar: greater
Encoding: 31 62 33
Width: 1713
VWidth: 3198
Flags: W
DStem2: 217 1218 217 979 0.940051 -0.341035<81.5073 1117.43> 217 305 217 64 0.939342 0.342981<0 1034.51>
LayerCount: 3
Fore
SplineSet
217 979 m 1,0,-1
 217 1218 l 1,1,-1
 1496 754 l 1,2,-1
 1496 531 l 1,3,-1
 217 64 l 1,4,-1
 217 305 l 1,5,-1
 1196 640 l 1,6,-1
 217 979 l 1,0,-1
EndSplineSet
Layer: 2
SplineSet
217 979 m 1
 217 1218 l 1
 1496 754 l 1
 1496 531 l 1
 217 64 l 1
 217 305 l 1
 1196 640 l 1
 217 979 l 1
EndSplineSet
EndChar

StartChar: question
Encoding: 32 63 34
Width: 1199
VWidth: 3198
Flags: W
HStem: -28 379<411.352 652.698> 1407 113<347.607 633.429>
VStem: 134 119<1145 1307.47> 342 381<41.9456 281.648> 464 137<436 643.965> 732 375<908.999 1296.17>
LayerCount: 3
Fore
SplineSet
342 162 m 128,-1,1
 342 241 342 241 398 296 c 128,-1,2
 454 351 454 351 531 351 c 0,3,4
 611 351 611 351 667 296 c 128,-1,5
 723 241 723 241 723 162 c 128,-1,6
 723 83 723 83 667 27.5 c 128,-1,7
 611 -28 611 -28 531 -28 c 0,8,9
 454 -28 454 -28 398 27.5 c 128,-1,0
 342 83 342 83 342 162 c 128,-1,1
134 1452 m 1,10,11
 256 1487 256 1487 367.5 1503.5 c 128,-1,12
 479 1520 479 1520 586 1520 c 0,13,14
 839 1520 839 1520 973 1409 c 128,-1,15
 1107 1298 1107 1298 1107 1093 c 0,16,17
 1107 892 1107 892 977.5 775.5 c 128,-1,18
 848 659 848 659 601 640 c 1,19,-1
 601 436 l 1,20,-1
 464 436 l 1,21,-1
 464 736 l 1,22,23
 601 778 601 778 666.5 870 c 128,-1,24
 732 962 732 962 732 1117 c 0,25,26
 732 1260 732 1260 671.5 1333.5 c 128,-1,27
 611 1407 611 1407 492 1407 c 0,28,29
 384 1407 384 1407 323 1341.5 c 128,-1,30
 262 1276 262 1276 253 1145 c 1,31,-1
 134 1145 l 1,32,-1
 134 1452 l 1,10,11
EndSplineSet
Layer: 2
SplineSet
531 -28 m 3xf4
 428 -28 342 59 342 162 c 3
 342 265 428 351 531 351 c 3
 636 351 723 267 723 162 c 3
 723 57 636 -28 531 -28 c 3xf4
492 1407 m 3
 333 1407 264 1303 253 1145 c 1
 134 1145 l 1
 134 1452 l 1
 277 1493 417 1520 586 1520 c 3
 896 1520 1107 1389 1107 1093 c 3
 1107 796 895 663 601 640 c 1
 601 436 l 1
 464 436 l 1
 464 736 l 1xec
 637 789 732 898 732 1117 c 3
 732 1294 662 1407 492 1407 c 3
EndSplineSet
EndChar

StartChar: at
Encoding: 33 64 35
Width: 2045
VWidth: 3198
Flags: W
HStem: -355 125<823.181 1329.72> 92 125<931.678 1167.72> 867 125<926.006 1167.34> 1312 128<818.123 1340.95>
VStem: 134 208<263.944 823.249> 586 242<337.5 748.299> 1270 220<230 241 322.304 760.51 845 970> 1788 116<450.229 908.381>
LayerCount: 3
Fore
SplineSet
1270 503 m 2,0,-1
 1270 579 l 2,1,2
 1270 707 1270 707 1209 787 c 128,-1,3
 1148 867 1148 867 1046 867 c 0,4,5
 946 867 946 867 887 778.5 c 128,-1,6
 828 690 828 690 828 543 c 256,7,8
 828 397 828 397 887 307 c 128,-1,9
 946 217 946 217 1046 217 c 0,10,11
 1148 217 1148 217 1209 296 c 128,-1,12
 1270 375 1270 375 1270 503 c 2,0,-1
1270 241 m 1,13,14
 1227 166 1227 166 1155.5 129 c 128,-1,15
 1084 92 1084 92 995 92 c 0,16,17
 806 92 806 92 696 212.5 c 128,-1,18
 586 333 586 333 586 543 c 256,19,20
 586 754 586 754 696 873 c 128,-1,21
 806 992 806 992 995 992 c 0,22,23
 1084 992 1084 992 1155.5 955 c 128,-1,24
 1227 918 1227 918 1270 845 c 1,25,-1
 1270 970 l 1,26,-1
 1490 970 l 1,27,-1
 1490 230 l 1,28,29
 1635 269 1635 269 1711.5 386 c 128,-1,30
 1788 503 1788 503 1788 678 c 0,31,32
 1788 821 1788 821 1733.5 938.5 c 128,-1,33
 1679 1056 1679 1056 1568 1151 c 0,34,35
 1474 1227 1474 1227 1349 1269.5 c 128,-1,36
 1224 1312 1224 1312 1087 1312 c 0,37,38
 956 1312 956 1312 842.5 1277 c 128,-1,39
 729 1242 729 1242 637 1174 c 0,40,41
 495 1065 495 1065 418.5 902 c 128,-1,42
 342 739 342 739 342 543 c 0,43,44
 342 387 342 387 390.5 249.5 c 128,-1,45
 439 112 439 112 528 12 c 0,46,47
 634 -106 634 -106 773 -168 c 128,-1,48
 912 -230 912 -230 1078 -230 c 0,49,50
 1196 -230 1196 -230 1311 -196 c 128,-1,51
 1426 -162 1426 -162 1529 -92 c 1,52,-1
 1587 -189 l 1,53,54
 1459 -272 1459 -272 1320 -313.5 c 128,-1,55
 1181 -355 1181 -355 1037 -355 c 0,56,57
 845 -355 845 -355 683.5 -292.5 c 128,-1,58
 522 -230 522 -230 394 -106 c 256,59,60
 265 19 265 19 199.5 183.5 c 128,-1,61
 134 348 134 348 134 543 c 0,62,63
 134 736 134 736 199.5 900.5 c 128,-1,64
 265 1065 265 1065 394 1190 c 0,65,66
 522 1318 522 1318 685 1379 c 128,-1,67
 848 1440 848 1440 1053 1440 c 0,68,69
 1231 1440 1231 1440 1377 1391.5 c 128,-1,70
 1523 1343 1523 1343 1638 1245 c 0,71,72
 1773 1135 1773 1135 1838.5 993 c 128,-1,73
 1904 851 1904 851 1904 675 c 0,74,75
 1904 400 1904 400 1745.5 246 c 128,-1,76
 1587 92 1587 92 1302 92 c 2,77,-1
 1270 92 l 1,78,-1
 1270 241 l 1,13,14
EndSplineSet
Layer: 2
SplineSet
1046 217 m 3
 1194 217 1270 348 1270 503 c 2
 1270 579 l 2
 1270 734 1194 867 1046 867 c 3
 893 867 828 709 828 543 c 259
 828 378 893 217 1046 217 c 3
1904 675 m 3
 1904 304 1676 92 1302 92 c 2
 1270 92 l 1
 1270 241 l 1
 1219 151 1127 92 995 92 c 3
 733 92 586 275 586 543 c 259
 586 812 733 992 995 992 c 3
 1126 992 1218 933 1270 845 c 1
 1270 970 l 1
 1490 970 l 1
 1490 230 l 1
 1679 281 1788 441 1788 678 c 3
 1788 1069 1468 1312 1087 1312 c 3
 642 1312 342 995 342 543 c 3
 342 91 652 -230 1078 -230 c 3
 1261 -230 1410 -173 1529 -92 c 1
 1587 -189 l 1
 1439 -285 1261 -355 1037 -355 c 3
 526 -355 134 6 134 543 c 3
 134 1088 532 1440 1053 1440 c 3
 1510 1440 1904 1154 1904 675 c 3
EndSplineSet
EndChar

StartChar: A
Encoding: 34 65 36
Width: 1588
VWidth: 3198
Flags: W
HStem: 0 122<-16 106 250 428 912 1059 1471 1612> 425 122<422 885> 1473 20G<659.802 917.198>
DStem2: 106 122 250 122 0.37929 0.925278<54.6177 382.388 513.099 1129.26> 909 1493 656 1117 0.37929 -0.925278<251.944 866.21 997.679 1325.45>
LayerCount: 3
Fore
SplineSet
-16 0 m 1,0,-1
 -16 122 l 1,1,-1
 106 122 l 1,2,-1
 668 1493 l 1,3,-1
 909 1493 l 1,4,-1
 1471 122 l 1,5,-1
 1612 122 l 1,6,-1
 1612 0 l 1,7,-1
 912 0 l 1,8,-1
 912 122 l 1,9,-1
 1059 122 l 1,10,-1
 934 425 l 1,11,-1
 375 425 l 1,12,-1
 250 122 l 1,13,-1
 428 122 l 1,14,-1
 428 0 l 1,15,-1
 -16 0 l 1,0,-1
422 547 m 1,16,-1
 885 547 l 1,17,-1
 656 1117 l 1,18,-1
 422 547 l 1,16,-1
EndSplineSet
Layer: 2
SplineSet
-16 0 m 1
 -16 122 l 1
 106 122 l 1
 668 1493 l 1
 909 1493 l 1
 1471 122 l 1
 1612 122 l 1
 1612 0 l 1
 912 0 l 1
 912 122 l 1
 1059 122 l 1
 934 425 l 1
 375 425 l 1
 250 122 l 1
 428 122 l 1
 428 0 l 1
 -16 0 l 1
422 547 m 1
 885 547 l 1
 656 1117 l 1
 422 547 l 1
EndSplineSet
EndChar

StartChar: B
Encoding: 35 66 37
Width: 1728
VWidth: 3198
Flags: W
HStem: 0 122<95 287 672 1044.22> 748 122<672 1030.35> 1373 120<95 287 672 1038.96>
VStem: 287 385<122 748 870 1373> 1138 388<969.926 1275.43> 1190 428<257.3 604.572>
LayerCount: 3
Fore
SplineSet
95 0 m 1,0,-1
 95 122 l 1,1,-1
 287 122 l 1,2,-1
 287 1373 l 1,3,-1
 95 1373 l 1,4,-1
 95 1493 l 1,5,-1
 982 1493 l 2,6,7
 1254 1493 1254 1493 1390 1401 c 128,-1,8
 1526 1309 1526 1309 1526 1123 c 0,9,10
 1526 992 1526 992 1433 914 c 128,-1,11
 1340 836 1340 836 1151 815 c 1,12,13
 1379 793 1379 793 1498.5 694 c 128,-1,14
 1618 595 1618 595 1618 431 c 0,15,16
 1618 211 1618 211 1450 105.5 c 128,-1,17
 1282 0 1282 0 925 0 c 2,18,-1
 95 0 l 1,0,-1
672 870 m 1,19,-1
 803 870 l 2,20,21
 976 870 976 870 1057 932.5 c 128,-1,22
 1138 995 1138 995 1138 1123 c 0,23,24
 1138 1254 1138 1254 1060 1313.5 c 128,-1,25
 982 1373 982 1373 803 1373 c 2,26,-1
 672 1373 l 1,27,-1
 672 870 l 1,19,-1
672 122 m 1,28,-1
 815 122 l 2,29,30
 1004 122 1004 122 1097 197 c 128,-1,31
 1190 272 1190 272 1190 431 c 256,32,33
 1190 592 1190 592 1097 670 c 128,-1,34
 1004 748 1004 748 815 748 c 2,35,-1
 672 748 l 1,36,-1
 672 122 l 1,28,-1
EndSplineSet
Layer: 2
SplineSet
1151 815 m 1xf8
 1407 790 1618 686 1618 431 c 3xf4
 1618 83 1317 0 925 0 c 2
 95 0 l 1
 95 122 l 1
 287 122 l 1
 287 1373 l 1
 95 1373 l 1
 95 1493 l 1
 982 1493 l 2
 1293 1493 1526 1407 1526 1123 c 3
 1526 916 1360 838 1151 815 c 1xf8
1138 1123 m 3xf8
 1138 1319 1015 1373 803 1373 c 2
 672 1373 l 1
 672 870 l 1
 803 870 l 2
 1008 870 1138 932 1138 1123 c 3xf8
1190 431 m 259xf4
 1190 659 1052 748 815 748 c 2
 672 748 l 1
 672 122 l 1
 815 122 l 2
 1050 122 1190 205 1190 431 c 259xf4
EndSplineSet
EndChar

StartChar: C
Encoding: 36 67 38
Width: 1627
VWidth: 3198
Flags: W
HStem: -28 120<746.644 1129.28> 1398 122<745.971 1143.76>
VStem: 86 429<462.394 1034.73> 1327 199<226 425> 1356 128<1023 1167.88>
LayerCount: 3
Fore
SplineSet
1526 425 m 1,0,1
 1465 195 1465 195 1312.5 83.5 c 128,-1,2
 1160 -28 1160 -28 903 -28 c 0,3,4
 525 -28 525 -28 305.5 179.5 c 128,-1,5
 86 387 86 387 86 745 c 256,6,7
 86 1104 86 1104 305.5 1312 c 128,-1,8
 525 1520 525 1520 903 1520 c 0,9,10
 1037 1520 1037 1520 1179 1488 c 128,-1,11
 1321 1456 1321 1456 1484 1391 c 1,12,-1
 1484 1023 l 1,13,-1
 1356 1023 l 1,14,15
 1318 1212 1318 1212 1215.5 1305 c 128,-1,16
 1113 1398 1113 1398 943 1398 c 0,17,18
 726 1398 726 1398 620.5 1238 c 128,-1,19
 515 1078 515 1078 515 745 c 256,20,21
 515 412 515 412 620.5 252 c 128,-1,22
 726 92 726 92 946 92 c 0,23,24
 1093 92 1093 92 1187.5 175.5 c 128,-1,25
 1282 259 1282 259 1327 425 c 1,26,-1
 1526 425 l 1,0,1
EndSplineSet
Layer: 2
SplineSet
943 1398 m 3xe8
 605 1398 515 1120 515 745 c 259
 515 368 605 92 946 92 c 3
 1170 92 1275 234 1327 425 c 1
 1526 425 l 1xf0
 1448 133 1263 -28 903 -28 c 3
 411 -28 86 259 86 745 c 259
 86 1232 411 1520 903 1520 c 3
 1127 1520 1301 1464 1484 1391 c 1
 1484 1023 l 1
 1356 1023 l 1
 1311 1248 1195 1398 943 1398 c 3xe8
EndSplineSet
EndChar

StartChar: D
Encoding: 37 68 39
Width: 1774
VWidth: 3198
Flags: W
HStem: 0 122<95 287 672 1021.85> 1373 120<95 287 672 1021.59>
VStem: 287 385<122 1373> 1260 428<457.6 1037.5>
LayerCount: 3
Fore
SplineSet
672 122 m 1,0,-1
 809 122 l 2,1,2
 1043 122 1043 122 1151.5 272 c 128,-1,3
 1260 422 1260 422 1260 748 c 0,4,5
 1260 1071 1260 1071 1153 1222 c 128,-1,6
 1046 1373 1046 1373 809 1373 c 2,7,-1
 672 1373 l 1,8,-1
 672 122 l 1,0,-1
95 0 m 1,9,-1
 95 122 l 1,10,-1
 287 122 l 1,11,-1
 287 1373 l 1,12,-1
 95 1373 l 1,13,-1
 95 1493 l 1,14,-1
 860 1493 l 2,15,16
 1263 1493 1263 1493 1475.5 1301.5 c 128,-1,17
 1688 1110 1688 1110 1688 748 c 0,18,19
 1688 384 1688 384 1475.5 192 c 128,-1,20
 1263 0 1263 0 860 0 c 2,21,-1
 95 0 l 1,9,-1
EndSplineSet
Layer: 2
SplineSet
1260 748 m 3
 1260 1129 1162 1373 809 1373 c 2
 672 1373 l 1
 672 122 l 1
 809 122 l 2
 1161 122 1260 366 1260 748 c 3
1688 748 m 3
 1688 244 1376 0 860 0 c 2
 95 0 l 1
 95 122 l 1
 287 122 l 1
 287 1373 l 1
 95 1373 l 1
 95 1493 l 1
 860 1493 l 2
 1375 1493 1688 1250 1688 748 c 3
EndSplineSet
EndChar

StartChar: E
Encoding: 38 69 40
Width: 1560
VWidth: 3198
Flags: W
HStem: 0 137<672 1318> 0 122<95 287> 742 134<672 1062> 1045 20G<1062 1199> 1356 137<672 1298> 1373 120<95 287>
VStem: 287 385<137 742 876 1356> 1062 137<550 742 876 1065> 1298 139<1138 1356> 1318 138<137 351>
LayerCount: 3
Fore
SplineSet
95 0 m 1,0,-1
 95 122 l 1,1,-1
 287 122 l 1,2,-1
 287 1373 l 1,3,-1
 95 1373 l 1,4,-1
 95 1493 l 1,5,-1
 1437 1493 l 1,6,-1
 1437 1138 l 1,7,-1
 1298 1138 l 1,8,-1
 1298 1356 l 1,9,-1
 672 1356 l 1,10,-1
 672 876 l 1,11,-1
 1062 876 l 1,12,-1
 1062 1065 l 1,13,-1
 1199 1065 l 1,14,-1
 1199 550 l 1,15,-1
 1062 550 l 1,16,-1
 1062 742 l 1,17,-1
 672 742 l 1,18,-1
 672 137 l 1,19,-1
 1318 137 l 1,20,-1
 1318 351 l 1,21,-1
 1456 351 l 1,22,-1
 1456 0 l 1,23,-1
 95 0 l 1,0,-1
EndSplineSet
Layer: 2
SplineSet
95 0 m 1x7340
 95 122 l 1
 287 122 l 1
 287 1373 l 1
 95 1373 l 1
 95 1493 l 1
 1437 1493 l 1x7780
 1437 1138 l 1
 1298 1138 l 1
 1298 1356 l 1x3b80
 672 1356 l 1
 672 876 l 1
 1062 876 l 1
 1062 1065 l 1
 1199 1065 l 1
 1199 550 l 1
 1062 550 l 1
 1062 742 l 1
 672 742 l 1
 672 137 l 1
 1318 137 l 1xbb40
 1318 351 l 1
 1456 351 l 1
 1456 0 l 1
 95 0 l 1x7340
EndSplineSet
EndChar

StartChar: F
Encoding: 39 70 41
Width: 1450
VWidth: 3198
Flags: W
HStem: 0 122<95 287 675 909> 742 134<675 1053> 1045 20G<1053 1190> 1356 137<675 1288> 1373 120<95 287>
VStem: 287 388<122 742 876 1356> 1053 137<550 742 876 1065> 1288 138<1138 1356>
LayerCount: 3
Fore
SplineSet
95 0 m 1,0,-1
 95 122 l 1,1,-1
 287 122 l 1,2,-1
 287 1373 l 1,3,-1
 95 1373 l 1,4,-1
 95 1493 l 1,5,-1
 1426 1493 l 1,6,-1
 1426 1138 l 1,7,-1
 1288 1138 l 1,8,-1
 1288 1356 l 1,9,-1
 675 1356 l 1,10,-1
 675 876 l 1,11,-1
 1053 876 l 1,12,-1
 1053 1065 l 1,13,-1
 1190 1065 l 1,14,-1
 1190 550 l 1,15,-1
 1053 550 l 1,16,-1
 1053 742 l 1,17,-1
 675 742 l 1,18,-1
 675 122 l 1,19,-1
 909 122 l 1,20,-1
 909 0 l 1,21,-1
 95 0 l 1,0,-1
EndSplineSet
Layer: 2
SplineSet
95 0 m 1xf7
 95 122 l 1
 287 122 l 1
 287 1373 l 1
 95 1373 l 1
 95 1493 l 1
 1426 1493 l 1xef
 1426 1138 l 1
 1288 1138 l 1
 1288 1356 l 1
 675 1356 l 1
 675 876 l 1
 1053 876 l 1
 1053 1065 l 1
 1190 1065 l 1
 1190 550 l 1
 1053 550 l 1
 1053 742 l 1
 675 742 l 1
 675 122 l 1
 909 122 l 1
 909 0 l 1
 95 0 l 1xf7
EndSplineSet
EndChar

StartChar: G
Encoding: 40 71 42
Width: 1749
VWidth: 3198
Flags: W
HStem: -28 120<746.593 1169.28> 576 121<1049 1227> 1398 122<752.636 1185.23>
VStem: 86 429<463.329 1031.72> 1227 360<141.347 576> 1407 128<1023 1156>
LayerCount: 3
Fore
SplineSet
1407 1023 m 1,0,1
 1362 1221 1362 1221 1256.5 1309.5 c 128,-1,2
 1151 1398 1151 1398 962 1398 c 0,3,4
 729 1398 729 1398 622 1241 c 128,-1,5
 515 1084 515 1084 515 745 c 0,6,7
 515 409 515 409 619 250.5 c 128,-1,8
 723 92 723 92 940 92 c 0,9,10
 1026 92 1026 92 1097 110 c 128,-1,11
 1168 128 1168 128 1227 166 c 1,12,-1
 1227 576 l 1,13,-1
 1049 576 l 1,14,-1
 1049 697 l 1,15,-1
 1587 697 l 1,16,-1
 1587 125 l 1,17,18
 1420 48 1420 48 1252 10 c 128,-1,19
 1084 -28 1084 -28 909 -28 c 0,20,21
 525 -28 525 -28 305.5 178 c 128,-1,22
 86 384 86 384 86 745 c 256,23,24
 86 1107 86 1107 305.5 1313.5 c 128,-1,25
 525 1520 525 1520 909 1520 c 0,26,27
 1068 1520 1068 1520 1223.5 1488 c 128,-1,28
 1379 1456 1379 1456 1535 1391 c 1,29,-1
 1535 1023 l 1,30,-1
 1407 1023 l 1,0,1
EndSplineSet
Layer: 2
SplineSet
909 1520 m 3xf8
 1152 1520 1350 1468 1535 1391 c 1
 1535 1023 l 1
 1407 1023 l 1xf4
 1352 1263 1239 1398 962 1398 c 3
 607 1398 515 1135 515 745 c 3
 515 368 601 92 940 92 c 3
 1060 92 1152 118 1227 166 c 1
 1227 576 l 1
 1049 576 l 1
 1049 697 l 1
 1587 697 l 1
 1587 125 l 1
 1389 34 1177 -28 909 -28 c 3
 411 -28 86 253 86 745 c 259
 86 1237 410 1520 909 1520 c 3xf8
EndSplineSet
EndChar

StartChar: H
Encoding: 41 72 43
Width: 1934
VWidth: 3198
Flags: W
HStem: 0 122<95 287 672 864 1074 1267 1651 1843> 732 138<672 1267> 1373 120<95 287 672 864 1074 1267 1651 1843>
VStem: 287 385<122 732 870 1373> 1267 384<122 732 870 1373>
LayerCount: 3
Fore
SplineSet
95 0 m 1,0,-1
 95 122 l 1,1,-1
 287 122 l 1,2,-1
 287 1373 l 1,3,-1
 95 1373 l 1,4,-1
 95 1493 l 1,5,-1
 864 1493 l 1,6,-1
 864 1373 l 1,7,-1
 672 1373 l 1,8,-1
 672 870 l 1,9,-1
 1267 870 l 1,10,-1
 1267 1373 l 1,11,-1
 1074 1373 l 1,12,-1
 1074 1493 l 1,13,-1
 1843 1493 l 1,14,-1
 1843 1373 l 1,15,-1
 1651 1373 l 1,16,-1
 1651 122 l 1,17,-1
 1843 122 l 1,18,-1
 1843 0 l 1,19,-1
 1074 0 l 1,20,-1
 1074 122 l 1,21,-1
 1267 122 l 1,22,-1
 1267 732 l 1,23,-1
 672 732 l 1,24,-1
 672 122 l 1,25,-1
 864 122 l 1,26,-1
 864 0 l 1,27,-1
 95 0 l 1,0,-1
EndSplineSet
Layer: 2
SplineSet
95 0 m 1
 95 122 l 1
 287 122 l 1
 287 1373 l 1
 95 1373 l 1
 95 1493 l 1
 864 1493 l 1
 864 1373 l 1
 672 1373 l 1
 672 870 l 1
 1267 870 l 1
 1267 1373 l 1
 1074 1373 l 1
 1074 1493 l 1
 1843 1493 l 1
 1843 1373 l 1
 1651 1373 l 1
 1651 122 l 1
 1843 122 l 1
 1843 0 l 1
 1074 0 l 1
 1074 122 l 1
 1267 122 l 1
 1267 732 l 1
 672 732 l 1
 672 122 l 1
 864 122 l 1
 864 0 l 1
 95 0 l 1
EndSplineSet
EndChar

StartChar: I
Encoding: 42 73 44
Width: 958
VWidth: 3198
Flags: W
HStem: 0 122<95 287 672 864> 1373 120<95 287 672 864>
VStem: 287 385<122 1373>
LayerCount: 3
Fore
SplineSet
95 0 m 1,0,-1
 95 122 l 1,1,-1
 287 122 l 1,2,-1
 287 1373 l 1,3,-1
 95 1373 l 1,4,-1
 95 1493 l 1,5,-1
 864 1493 l 1,6,-1
 864 1373 l 1,7,-1
 672 1373 l 1,8,-1
 672 122 l 1,9,-1
 864 122 l 1,10,-1
 864 0 l 1,11,-1
 95 0 l 1,0,-1
EndSplineSet
Layer: 2
SplineSet
95 0 m 1
 95 122 l 1
 287 122 l 1
 287 1373 l 1
 95 1373 l 1
 95 1493 l 1
 864 1493 l 1
 864 1373 l 1
 672 1373 l 1
 672 122 l 1
 864 122 l 1
 864 0 l 1
 95 0 l 1
EndSplineSet
EndChar

StartChar: J
Encoding: 43 74 45
Width: 968
VWidth: 3198
Flags: W
HStem: -425 120<25.6487 254.542> -358 236<-150 -16.6907> 1373 120<95 314 701 889>
VStem: -150 131<-261.989 -122> 314 387<-199.429 1373>
LayerCount: 3
Fore
SplineSet
-150 -358 m 1,0,-1
 -150 -122 l 1,1,-1
 -19 -122 l 1,2,3
 -12 -217 -12 -217 26 -261 c 128,-1,4
 64 -305 64 -305 141 -305 c 0,5,6
 237 -305 237 -305 275.5 -230.5 c 128,-1,7
 314 -156 314 -156 314 48 c 2,8,-1
 314 1373 l 1,9,-1
 95 1373 l 1,10,-1
 95 1493 l 1,11,-1
 889 1493 l 1,12,-1
 889 1373 l 1,13,-1
 701 1373 l 1,14,-1
 701 42 l 2,15,16
 701 -201 701 -201 577.5 -313 c 128,-1,17
 454 -425 454 -425 189 -425 c 0,18,19
 106 -425 106 -425 21 -407.5 c 128,-1,20
 -64 -390 -64 -390 -150 -358 c 1,0,-1
EndSplineSet
Layer: 2
SplineSet
189 -425 m 3xb8
 61 -425 -49 -396 -150 -358 c 1
 -150 -122 l 1
 -19 -122 l 1x78
 -11 -236 27 -305 141 -305 c 3
 306 -305 314 -157 314 48 c 2
 314 1373 l 1
 95 1373 l 1
 95 1493 l 1
 889 1493 l 1
 889 1373 l 1
 701 1373 l 1
 701 42 l 2
 701 -293 531 -425 189 -425 c 3xb8
EndSplineSet
EndChar

StartChar: K
Encoding: 44 75 46
Width: 1777
VWidth: 3198
Flags: W
HStem: 0 122<95 287 672 864 1694 1843> 1373 120<95 287 672 864 1145 1306 1504 1702>
VStem: 287 385<122 726 828 1373>
DStem2: 672 828 965 912 0.758327 0.651874<276.947 836.051> 965 912 672 726 0.678164 -0.73491<0 922.515>
LayerCount: 3
Fore
SplineSet
95 0 m 1,0,-1
 95 122 l 1,1,-1
 287 122 l 1,2,-1
 287 1373 l 1,3,-1
 95 1373 l 1,4,-1
 95 1493 l 1,5,-1
 864 1493 l 1,6,-1
 864 1373 l 1,7,-1
 672 1373 l 1,8,-1
 672 828 l 1,9,-1
 1306 1373 l 1,10,-1
 1145 1373 l 1,11,-1
 1145 1493 l 1,12,-1
 1702 1493 l 1,13,-1
 1702 1373 l 1,14,-1
 1504 1373 l 1,15,-1
 965 912 l 1,16,-1
 1694 122 l 1,17,-1
 1843 122 l 1,18,-1
 1843 0 l 1,19,-1
 1337 0 l 1,20,-1
 672 726 l 1,21,-1
 672 122 l 1,22,-1
 864 122 l 1,23,-1
 864 0 l 1,24,-1
 95 0 l 1,0,-1
EndSplineSet
Layer: 2
SplineSet
95 0 m 1
 95 122 l 1
 287 122 l 1
 287 1373 l 1
 95 1373 l 1
 95 1493 l 1
 864 1493 l 1
 864 1373 l 1
 672 1373 l 1
 672 828 l 1
 1306 1373 l 1
 1145 1373 l 1
 1145 1493 l 1
 1702 1493 l 1
 1702 1373 l 1
 1504 1373 l 1
 965 912 l 1
 1694 122 l 1
 1843 122 l 1
 1843 0 l 1
 1337 0 l 1
 672 726 l 1
 672 122 l 1
 864 122 l 1
 864 0 l 1
 95 0 l 1
EndSplineSet
EndChar

StartChar: L
Encoding: 45 76 47
Width: 1438
VWidth: 3198
Flags: W
HStem: 0 137<672 1260> 0 122<95 287> 1373 120<95 287 672 864>
VStem: 287 385<137 1373> 1260 135<137 372>
LayerCount: 3
Fore
SplineSet
95 0 m 1,0,-1
 95 122 l 1,1,-1
 287 122 l 1,2,-1
 287 1373 l 1,3,-1
 95 1373 l 1,4,-1
 95 1493 l 1,5,-1
 864 1493 l 1,6,-1
 864 1373 l 1,7,-1
 672 1373 l 1,8,-1
 672 137 l 1,9,-1
 1260 137 l 1,10,-1
 1260 372 l 1,11,-1
 1395 372 l 1,12,-1
 1395 0 l 1,13,-1
 95 0 l 1,0,-1
EndSplineSet
Layer: 2
SplineSet
95 0 m 1x78
 95 122 l 1
 287 122 l 1x78
 287 1373 l 1
 95 1373 l 1
 95 1493 l 1
 864 1493 l 1
 864 1373 l 1
 672 1373 l 1
 672 137 l 1
 1260 137 l 1xb8
 1260 372 l 1
 1395 372 l 1
 1395 0 l 1
 95 0 l 1x78
EndSplineSet
EndChar

StartChar: M
Encoding: 46 77 48
Width: 2262
VWidth: 3198
Flags: W
HStem: 0 122<86 275 415 604 1401 1593 1980 2169> 1373 120<86 275 1980 2169>
VStem: 275 140<122 1260> 1593 387<122 1260>
DStem2: 704 1493 415 1260 0.404266 -0.914641<96.2785 1048.95> 1129 534 1129 217 0.406464 0.913667<0 851.921>
LayerCount: 3
Fore
SplineSet
86 0 m 1,0,-1
 86 122 l 1,1,-1
 275 122 l 1,2,-1
 275 1373 l 1,3,-1
 86 1373 l 1,4,-1
 86 1493 l 1,5,-1
 704 1493 l 1,6,-1
 1129 534 l 1,7,-1
 1554 1493 l 1,8,-1
 2169 1493 l 1,9,-1
 2169 1373 l 1,10,-1
 1980 1373 l 1,11,-1
 1980 122 l 1,12,-1
 2169 122 l 1,13,-1
 2169 0 l 1,14,-1
 1401 0 l 1,15,-1
 1401 122 l 1,16,-1
 1593 122 l 1,17,-1
 1593 1260 l 1,18,-1
 1129 217 l 1,19,-1
 876 217 l 1,20,-1
 415 1260 l 1,21,-1
 415 122 l 1,22,-1
 604 122 l 1,23,-1
 604 0 l 1,24,-1
 86 0 l 1,0,-1
EndSplineSet
Layer: 2
SplineSet
86 0 m 1
 86 122 l 1
 275 122 l 1
 275 1373 l 1
 86 1373 l 1
 86 1493 l 1
 704 1493 l 1
 1129 534 l 1
 1554 1493 l 1
 2169 1493 l 1
 2169 1373 l 1
 1980 1373 l 1
 1980 122 l 1
 2169 122 l 1
 2169 0 l 1
 1401 0 l 1
 1401 122 l 1
 1593 122 l 1
 1593 1260 l 1
 1129 217 l 1
 876 217 l 1
 415 1260 l 1
 415 122 l 1
 604 122 l 1
 604 0 l 1
 86 0 l 1
EndSplineSet
EndChar

StartChar: N
Encoding: 47 78 49
Width: 1870
VWidth: 3198
Flags: W
HStem: 0 122<89 281 422 611> 1373 120<89 281 1267 1459 1599 1788>
VStem: 281 141<122 1078> 1459 140<436 1373>
DStem2: 556 1493 422 1078 0.647115 -0.762393<229.68 1390.19>
LayerCount: 3
Fore
SplineSet
89 0 m 1,0,-1
 89 122 l 1,1,-1
 281 122 l 1,2,-1
 281 1373 l 1,3,-1
 89 1373 l 1,4,-1
 89 1493 l 1,5,-1
 556 1493 l 1,6,-1
 1459 436 l 1,7,-1
 1459 1373 l 1,8,-1
 1267 1373 l 1,9,-1
 1267 1493 l 1,10,-1
 1788 1493 l 1,11,-1
 1788 1373 l 1,12,-1
 1599 1373 l 1,13,-1
 1599 0 l 1,14,-1
 1337 0 l 1,15,-1
 422 1078 l 1,16,-1
 422 122 l 1,17,-1
 611 122 l 1,18,-1
 611 0 l 1,19,-1
 89 0 l 1,0,-1
EndSplineSet
Layer: 2
SplineSet
89 0 m 1
 89 122 l 1
 281 122 l 1
 281 1373 l 1
 89 1373 l 1
 89 1493 l 1
 556 1493 l 1
 1459 436 l 1
 1459 1373 l 1
 1267 1373 l 1
 1267 1493 l 1
 1788 1493 l 1
 1788 1373 l 1
 1599 1373 l 1
 1599 0 l 1
 1337 0 l 1
 422 1078 l 1
 422 122 l 1
 611 122 l 1
 611 0 l 1
 89 0 l 1
EndSplineSet
EndChar

StartChar: O
Encoding: 48 79 50
Width: 1780
VWidth: 3198
Flags: W
HStem: -28 120<728.262 1062.47> 1398 122<728.132 1062.47>
VStem: 86 429<454.439 1035.46> 1267 427<452.277 1038.27>
LayerCount: 3
Fore
SplineSet
889 92 m 0,0,1
 1081 92 1081 92 1174 252 c 128,-1,2
 1267 412 1267 412 1267 745 c 256,3,4
 1267 1078 1267 1078 1174 1238 c 128,-1,5
 1081 1398 1081 1398 889 1398 c 0,6,7
 701 1398 701 1398 608 1234.5 c 128,-1,8
 515 1071 515 1071 515 745 c 256,9,10
 515 419 515 419 608 255.5 c 128,-1,11
 701 92 701 92 889 92 c 0,0,1
889 -28 m 0,12,13
 515 -28 515 -28 300.5 178 c 128,-1,14
 86 384 86 384 86 745 c 256,15,16
 86 1107 86 1107 300.5 1313.5 c 128,-1,17
 515 1520 515 1520 889 1520 c 0,18,19
 1267 1520 1267 1520 1480.5 1313.5 c 128,-1,20
 1694 1107 1694 1107 1694 745 c 256,21,22
 1694 384 1694 384 1480.5 178 c 128,-1,23
 1267 -28 1267 -28 889 -28 c 0,12,13
EndSplineSet
Layer: 2
SplineSet
889 92 m 3
 1199 92 1267 390 1267 745 c 259
 1267 1101 1199 1398 889 1398 c 3
 586 1398 515 1091 515 745 c 259
 515 398 586 92 889 92 c 3
1694 745 m 259
 1694 256 1383 -28 889 -28 c 3
 399 -28 86 258 86 745 c 259
 86 1232 398 1520 889 1520 c 3
 1383 1520 1694 1235 1694 745 c 259
EndSplineSet
EndChar

StartChar: P
Encoding: 49 80 51
Width: 1538
VWidth: 3198
Flags: W
HStem: 0 122<95 287 672 912> 617 122<672 940.658> 1373 120<95 287 672 941.546>
VStem: 287 385<122 617 739 1373> 1068 419<876.194 1235.68>
LayerCount: 3
Fore
SplineSet
95 0 m 1,0,-1
 95 122 l 1,1,-1
 287 122 l 1,2,-1
 287 1373 l 1,3,-1
 95 1373 l 1,4,-1
 95 1493 l 1,5,-1
 946 1493 l 2,6,7
 1193 1493 1193 1493 1340 1373.5 c 128,-1,8
 1487 1254 1487 1254 1487 1056 c 256,9,10
 1487 857 1487 857 1340 737 c 128,-1,11
 1193 617 1193 617 946 617 c 2,12,-1
 672 617 l 1,13,-1
 672 122 l 1,14,-1
 912 122 l 1,15,-1
 912 0 l 1,16,-1
 95 0 l 1,0,-1
672 739 m 1,17,-1
 784 739 l 2,18,19
 912 739 912 739 990 825.5 c 128,-1,20
 1068 912 1068 912 1068 1056 c 256,21,22
 1068 1199 1068 1199 991.5 1286 c 128,-1,23
 915 1373 915 1373 784 1373 c 2,24,-1
 672 1373 l 1,25,-1
 672 739 l 1,17,-1
EndSplineSet
Layer: 2
SplineSet
1487 1056 m 259
 1487 769 1246 617 946 617 c 2
 672 617 l 1
 672 122 l 1
 912 122 l 1
 912 0 l 1
 95 0 l 1
 95 122 l 1
 287 122 l 1
 287 1373 l 1
 95 1373 l 1
 95 1493 l 1
 946 1493 l 2
 1246 1493 1487 1342 1487 1056 c 259
1068 1056 m 259
 1068 1239 964 1373 784 1373 c 2
 672 1373 l 1
 672 739 l 1
 784 739 l 2
 962 739 1068 874 1068 1056 c 259
EndSplineSet
EndChar

StartChar: Q
Encoding: 50 81 52
Width: 1780
VWidth: 3198
Flags: W
HStem: -369 247<1161.37 1440> -28 120<728.763 901.091> 1398 122<728.132 1062.47>
VStem: 86 429<454.487 1035.46> 1267 427<449.345 1038.27>
LayerCount: 3
Fore
SplineSet
882 -28 m 1,0,1
 509 -22 509 -22 297.5 181 c 128,-1,2
 86 384 86 384 86 745 c 256,3,4
 86 1107 86 1107 300.5 1313.5 c 128,-1,5
 515 1520 515 1520 889 1520 c 0,6,7
 1267 1520 1267 1520 1480.5 1313.5 c 128,-1,8
 1694 1107 1694 1107 1694 745 c 0,9,10
 1694 425 1694 425 1529.5 228 c 128,-1,11
 1365 31 1365 31 1062 -16 c 1,12,13
 1117 -73 1117 -73 1192 -97.5 c 128,-1,14
 1267 -122 1267 -122 1388 -122 c 2,15,-1
 1440 -122 l 1,16,-1
 1440 -369 l 1,17,-1
 1410 -369 l 2,18,19
 1218 -369 1218 -369 1091.5 -287 c 128,-1,20
 965 -205 965 -205 882 -28 c 1,0,1
889 92 m 0,21,22
 1081 92 1081 92 1174 252 c 128,-1,23
 1267 412 1267 412 1267 745 c 256,24,25
 1267 1078 1267 1078 1174 1238 c 128,-1,26
 1081 1398 1081 1398 889 1398 c 0,27,28
 701 1398 701 1398 608 1234.5 c 128,-1,29
 515 1071 515 1071 515 745 c 256,30,31
 515 419 515 419 608 255.5 c 128,-1,32
 701 92 701 92 889 92 c 0,21,22
EndSplineSet
Layer: 2
SplineSet
1062 -16 m 1
 1138 -95 1230 -122 1388 -122 c 2
 1440 -122 l 1
 1440 -369 l 1
 1410 -369 l 2
 1123 -369 981 -238 882 -28 c 1
 395 -20 86 256 86 745 c 259
 86 1232 398 1520 889 1520 c 3
 1383 1520 1694 1235 1694 745 c 3
 1694 304 1451 44 1062 -16 c 1
889 92 m 3
 1199 92 1267 390 1267 745 c 259
 1267 1101 1199 1398 889 1398 c 3
 586 1398 515 1091 515 745 c 259
 515 398 586 92 889 92 c 3
EndSplineSet
EndChar

StartChar: R
Encoding: 51 82 53
Width: 1700
VWidth: 3198
Flags: W
HStem: 0 122<95 287 672 864 1560 1715> 668 119<672 875.92> 1373 120<95 287 672 974.747>
VStem: 287 385<122 668 787 1373> 1093 397<913.06 1254.53>
DStem2: 1343 537 985 451 0.46364 -0.886024<-186.18 419.231>
LayerCount: 3
Fore
SplineSet
1087 729 m 1,0,1
 1174 717 1174 717 1236 670 c 128,-1,2
 1298 623 1298 623 1343 537 c 2,3,-1
 1560 122 l 1,4,-1
 1715 122 l 1,5,-1
 1715 0 l 1,6,-1
 1221 0 l 1,7,-1
 985 451 l 2,8,9
 915 592 915 592 866.5 630 c 128,-1,10
 818 668 818 668 732 668 c 2,11,-1
 672 668 l 1,12,-1
 672 122 l 1,13,-1
 864 122 l 1,14,-1
 864 0 l 1,15,-1
 95 0 l 1,16,-1
 95 122 l 1,17,-1
 287 122 l 1,18,-1
 287 1373 l 1,19,-1
 95 1373 l 1,20,-1
 95 1493 l 1,21,-1
 946 1493 l 2,22,23
 1209 1493 1209 1493 1349.5 1387.5 c 128,-1,24
 1490 1282 1490 1282 1490 1090 c 0,25,26
 1490 934 1490 934 1389 844 c 128,-1,27
 1288 754 1288 754 1087 729 c 1,0,1
672 787 m 1,28,-1
 803 787 l 2,29,30
 940 787 940 787 1016.5 863.5 c 128,-1,31
 1093 940 1093 940 1093 1081 c 256,32,33
 1093 1221 1093 1221 1016.5 1297 c 128,-1,34
 940 1373 940 1373 803 1373 c 2,35,-1
 672 1373 l 1,36,-1
 672 787 l 1,28,-1
EndSplineSet
Layer: 2
SplineSet
1490 1090 m 3
 1490 852 1318 758 1087 729 c 1
 1216 711 1289 640 1343 537 c 2
 1560 122 l 1
 1715 122 l 1
 1715 0 l 1
 1221 0 l 1
 985 451 l 2
 912 591 889 668 732 668 c 2
 672 668 l 1
 672 122 l 1
 864 122 l 1
 864 0 l 1
 95 0 l 1
 95 122 l 1
 287 122 l 1
 287 1373 l 1
 95 1373 l 1
 95 1493 l 1
 946 1493 l 2
 1255 1493 1490 1377 1490 1090 c 3
1093 1081 m 259
 1093 1266 987 1373 803 1373 c 2
 672 1373 l 1
 672 787 l 1
 803 787 l 2
 987 787 1093 895 1093 1081 c 259
EndSplineSet
EndChar

StartChar: S
Encoding: 52 83 54
Width: 1477
VWidth: 3198
Flags: W
HStem: -28 120<487.612 930.564> 1398 122<518.444 958.173>
VStem: 134 294<909.5 1260.53> 156 128<288.847 425> 1037 319<225.783 457.428> 1135 125<1101 1226.38>
DStem2: 736 953 531 611 0.967801 -0.251715<-287.84 386.34>
LayerCount: 3
Fore
SplineSet
156 70 m 1,0,-1
 156 425 l 1,1,-1
 284 425 l 1,2,3
 314 259 314 259 422.5 175.5 c 128,-1,4
 531 92 531 92 720 92 c 0,5,6
 876 92 876 92 956.5 151.5 c 128,-1,7
 1037 211 1037 211 1037 323 c 0,8,9
 1037 412 1037 412 982.5 463.5 c 128,-1,10
 928 515 928 515 754 556 c 2,11,-1
 531 611 l 2,12,13
 314 668 314 668 224 767.5 c 128,-1,14
 134 867 134 867 134 1049 c 0,15,16
 134 1273 134 1273 281 1396.5 c 128,-1,17
 428 1520 428 1520 697 1520 c 0,18,19
 828 1520 828 1520 969 1497 c 128,-1,20
 1110 1474 1110 1474 1260 1429 c 1,21,-1
 1260 1101 l 1,22,-1
 1135 1101 l 1,23,24
 1107 1254 1107 1254 1008 1326 c 128,-1,25
 909 1398 909 1398 729 1398 c 0,26,27
 583 1398 583 1398 505.5 1346.5 c 128,-1,28
 428 1295 428 1295 428 1193 c 0,29,30
 428 1101 428 1101 481 1052.5 c 128,-1,31
 534 1004 534 1004 736 953 c 2,32,-1
 959 895 l 2,33,34
 1168 845 1168 845 1262 734 c 128,-1,35
 1356 623 1356 623 1356 431 c 0,36,37
 1356 208 1356 208 1199.5 90 c 128,-1,38
 1043 -28 1043 -28 742 -28 c 0,39,40
 595 -28 595 -28 451.5 -4.5 c 128,-1,41
 308 19 308 19 156 70 c 1,0,-1
EndSplineSet
Layer: 2
SplineSet
742 -28 m 3xe8
 517 -28 338 9 156 70 c 1
 156 425 l 1
 284 425 l 1
 323 207 464 92 720 92 c 3
 902 92 1037 154 1037 323 c 3xd8
 1037 487 926 513 754 556 c 2
 531 611 l 2
 282 672 134 770 134 1049 c 3
 134 1368 364 1520 697 1520 c 3
 903 1520 1086 1481 1260 1429 c 1
 1260 1101 l 1
 1135 1101 l 1xe4
 1098 1305 970 1398 729 1398 c 3
 561 1398 428 1348 428 1193 c 3
 428 1019 542 1003 736 953 c 2
 959 895 l 2
 1207 831 1356 718 1356 431 c 3
 1356 99 1098 -28 742 -28 c 3xe8
EndSplineSet
EndChar

StartChar: T
Encoding: 53 84 55
Width: 1521
VWidth: 3198
Flags: W
HStem: 0 122<372 570 956 1154> 1120 373<22 159 1370 1504> 1356 137<159 570 956 1370>
VStem: 22 137<1120 1356> 570 386<122 1356> 1370 134<1120 1356>
LayerCount: 3
Fore
SplineSet
372 0 m 1,0,-1
 372 122 l 1,1,-1
 570 122 l 1,2,-1
 570 1356 l 1,3,-1
 159 1356 l 1,4,-1
 159 1120 l 1,5,-1
 22 1120 l 1,6,-1
 22 1493 l 1,7,-1
 1504 1493 l 1,8,-1
 1504 1120 l 1,9,-1
 1370 1120 l 1,10,-1
 1370 1356 l 1,11,-1
 956 1356 l 1,12,-1
 956 122 l 1,13,-1
 1154 122 l 1,14,-1
 1154 0 l 1,15,-1
 372 0 l 1,0,-1
EndSplineSet
Layer: 2
SplineSet
372 0 m 1xbc
 372 122 l 1
 570 122 l 1
 570 1356 l 1
 159 1356 l 1xbc
 159 1120 l 1
 22 1120 l 1
 22 1493 l 1
 1504 1493 l 1
 1504 1120 l 1
 1370 1120 l 1xdc
 1370 1356 l 1
 956 1356 l 1
 956 122 l 1
 1154 122 l 1
 1154 0 l 1
 372 0 l 1xbc
EndSplineSet
EndChar

StartChar: U
Encoding: 54 85 56
Width: 1783
VWidth: 3198
Flags: W
HStem: -28 150<818.354 1230.65> 1373 120<70 259 647 839 1218 1410 1548 1740>
VStem: 259 388<311.609 1373> 1410 138<311.188 1373>
LayerCount: 3
Fore
SplineSet
259 1373 m 1,0,-1
 70 1373 l 1,1,-1
 70 1493 l 1,2,-1
 839 1493 l 1,3,-1
 839 1373 l 1,4,-1
 647 1373 l 1,5,-1
 647 623 l 2,6,7
 647 345 647 345 734 233.5 c 128,-1,8
 821 122 821 122 1034 122 c 0,9,10
 1238 122 1238 122 1324 235 c 128,-1,11
 1410 348 1410 348 1410 623 c 2,12,-1
 1410 1373 l 1,13,-1
 1218 1373 l 1,14,-1
 1218 1493 l 1,15,-1
 1740 1493 l 1,16,-1
 1740 1373 l 1,17,-1
 1548 1373 l 1,18,-1
 1548 604 l 2,19,20
 1548 262 1548 262 1401 117 c 128,-1,21
 1254 -28 1254 -28 906 -28 c 256,22,23
 556 -28 556 -28 407.5 118.5 c 128,-1,24
 259 265 259 265 259 604 c 2,25,-1
 259 1373 l 1,0,-1
EndSplineSet
Layer: 2
SplineSet
906 -28 m 259
 444 -28 259 145 259 604 c 2
 259 1373 l 1
 70 1373 l 1
 70 1493 l 1
 839 1493 l 1
 839 1373 l 1
 647 1373 l 1
 647 623 l 2
 647 287 721 122 1034 122 c 3
 1338 122 1410 295 1410 623 c 2
 1410 1373 l 1
 1218 1373 l 1
 1218 1493 l 1
 1740 1493 l 1
 1740 1373 l 1
 1548 1373 l 1
 1548 604 l 2
 1548 144 1368 -28 906 -28 c 259
EndSplineSet
EndChar

StartChar: V
Encoding: 55 86 57
Width: 1588
VWidth: 3198
Flags: W
HStem: 0 21G<681.814 939.186> 1373 120<-12 128 543 687 1174 1349 1493 1618>
DStem2: 543 1373 128 1373 0.378817 -0.925472<0 1067.95> 946 384 931 0 0.378817 0.925472<0 1067.95>
LayerCount: 3
Fore
SplineSet
1618 1493 m 1,0,-1
 1618 1373 l 1,1,-1
 1493 1373 l 1,2,-1
 931 0 l 1,3,-1
 690 0 l 1,4,-1
 128 1373 l 1,5,-1
 -12 1373 l 1,6,-1
 -12 1493 l 1,7,-1
 687 1493 l 1,8,-1
 687 1373 l 1,9,-1
 543 1373 l 1,10,-1
 946 384 l 1,11,-1
 1349 1373 l 1,12,-1
 1174 1373 l 1,13,-1
 1174 1493 l 1,14,-1
 1618 1493 l 1,0,-1
EndSplineSet
Layer: 2
SplineSet
1618 1493 m 1
 1618 1373 l 1
 1493 1373 l 1
 931 0 l 1
 690 0 l 1
 128 1373 l 1
 -12 1373 l 1
 -12 1493 l 1
 687 1493 l 1
 687 1373 l 1
 543 1373 l 1
 946 384 l 1
 1349 1373 l 1
 1174 1373 l 1
 1174 1493 l 1
 1618 1493 l 1
EndSplineSet
EndChar

StartChar: W
Encoding: 56 87 58
Width: 2298
VWidth: 3198
Flags: W
HStem: 0 21G<546.809 815.237 1480.76 1749.21> 1087 406<932 1623> 1373 120<-19 128 531 690 1862 2038 2169 2322>
DStem2: 531 1373 128 1373 0.295699 -0.955281<0 961.882> 815 454 809 0 0.297725 0.954652<0 703.437> 1420 1493 1148 1087 0.297725 -0.954652<306.607 1104.15> 1749 439 1743 0 0.296334 0.955085<0 977.689>
LayerCount: 3
Fore
SplineSet
1743 0 m 1,0,-1
 1487 0 l 1,1,-1
 1148 1087 l 1,2,-1
 809 0 l 1,3,-1
 553 0 l 1,4,-1
 128 1373 l 1,5,-1
 -19 1373 l 1,6,-1
 -19 1493 l 1,7,-1
 690 1493 l 1,8,-1
 690 1373 l 1,9,-1
 531 1373 l 1,10,-1
 815 454 l 1,11,-1
 1135 1493 l 1,12,-1
 1420 1493 l 1,13,-1
 1749 439 l 1,14,-1
 2038 1373 l 1,15,-1
 1862 1373 l 1,16,-1
 1862 1493 l 1,17,-1
 2322 1493 l 1,18,-1
 2322 1373 l 1,19,-1
 2169 1373 l 1,20,-1
 1743 0 l 1,0,-1
EndSplineSet
Layer: 2
SplineSet
1743 0 m 1xa0
 1487 0 l 1
 1148 1087 l 1xc0
 809 0 l 1
 553 0 l 1
 128 1373 l 1
 -19 1373 l 1
 -19 1493 l 1
 690 1493 l 1
 690 1373 l 1
 531 1373 l 1xa0
 815 454 l 1
 1135 1493 l 1
 1420 1493 l 1xc0
 1749 439 l 1
 2038 1373 l 1
 1862 1373 l 1
 1862 1493 l 1
 2322 1493 l 1
 2322 1373 l 1
 2169 1373 l 1
 1743 0 l 1xa0
EndSplineSet
EndChar

StartChar: X
Encoding: 57 88 59
Width: 1588
VWidth: 3198
Flags: W
HStem: 0 122<39 220 384 565 842 1007 1446 1587> 1373 120<9 147 589 751 989 1163 1324 1510>
DStem2: 589 1373 147 1373 0.566501 -0.824061<0 508.691 715.693 1267.7> 220 122 384 122 0.569962 0.821671<93.4738 642.631> 876 953 956 836 0.56529 0.824893<0 508.693>
LayerCount: 3
Fore
SplineSet
693 576 m 1,0,-1
 384 122 l 1,1,-1
 565 122 l 1,2,-1
 565 0 l 1,3,-1
 39 0 l 1,4,-1
 39 122 l 1,5,-1
 220 122 l 1,6,-1
 614 690 l 1,7,-1
 147 1373 l 1,8,-1
 9 1373 l 1,9,-1
 9 1493 l 1,10,-1
 751 1493 l 1,11,-1
 751 1373 l 1,12,-1
 589 1373 l 1,13,-1
 876 953 l 1,14,-1
 1163 1373 l 1,15,-1
 989 1373 l 1,16,-1
 989 1493 l 1,17,-1
 1510 1493 l 1,18,-1
 1510 1373 l 1,19,-1
 1324 1373 l 1,20,-1
 956 836 l 1,21,-1
 1446 122 l 1,22,-1
 1587 122 l 1,23,-1
 1587 0 l 1,24,-1
 842 0 l 1,25,-1
 842 122 l 1,26,-1
 1007 122 l 1,27,-1
 693 576 l 1,0,-1
EndSplineSet
Layer: 2
SplineSet
693 576 m 1
 384 122 l 1
 565 122 l 1
 565 0 l 1
 39 0 l 1
 39 122 l 1
 220 122 l 1
 614 690 l 1
 147 1373 l 1
 9 1373 l 1
 9 1493 l 1
 751 1493 l 1
 751 1373 l 1
 589 1373 l 1
 876 953 l 1
 1163 1373 l 1
 989 1373 l 1
 989 1493 l 1
 1510 1493 l 1
 1510 1373 l 1
 1324 1373 l 1
 956 836 l 1
 1446 122 l 1
 1587 122 l 1
 1587 0 l 1
 842 0 l 1
 842 122 l 1
 1007 122 l 1
 693 576 l 1
EndSplineSet
EndChar

StartChar: Y
Encoding: 58 89 60
Width: 1460
VWidth: 3198
Flags: W
HStem: 0 122<351 553 940 1138> 1373 120<-19 109 531 697 1053 1203 1352 1480>
VStem: 553 387<122 617>
DStem2: 531 1373 109 1373 0.506422 -0.862286<0 661.661> 867 803 940 668 0.504556 0.863379<0 661.657>
LayerCount: 3
Fore
SplineSet
351 0 m 1,0,-1
 351 122 l 1,1,-1
 553 122 l 1,2,-1
 553 617 l 1,3,-1
 109 1373 l 1,4,-1
 -19 1373 l 1,5,-1
 -19 1493 l 1,6,-1
 697 1493 l 1,7,-1
 697 1373 l 1,8,-1
 531 1373 l 1,9,-1
 867 803 l 1,10,-1
 1203 1373 l 1,11,-1
 1053 1373 l 1,12,-1
 1053 1493 l 1,13,-1
 1480 1493 l 1,14,-1
 1480 1373 l 1,15,-1
 1352 1373 l 1,16,-1
 940 668 l 1,17,-1
 940 122 l 1,18,-1
 1138 122 l 1,19,-1
 1138 0 l 1,20,-1
 351 0 l 1,0,-1
EndSplineSet
Layer: 2
SplineSet
351 0 m 1
 351 122 l 1
 553 122 l 1
 553 617 l 1
 109 1373 l 1
 -19 1373 l 1
 -19 1493 l 1
 697 1493 l 1
 697 1373 l 1
 531 1373 l 1
 867 803 l 1
 1203 1373 l 1
 1053 1373 l 1
 1053 1493 l 1
 1480 1493 l 1
 1480 1373 l 1
 1352 1373 l 1
 940 668 l 1
 940 122 l 1
 1138 122 l 1
 1138 0 l 1
 351 0 l 1
EndSplineSet
EndChar

StartChar: Z
Encoding: 59 90 61
Width: 1492
VWidth: 3198
Flags: W
HStem: 0 137<531 1282> 1356 137<253 965>
VStem: 116 137<1132 1356> 1282 138<137 345>
DStem2: 77 141 531 137 0.590067 0.807355<264.661 1504.91>
LayerCount: 3
Fore
SplineSet
77 0 m 1,0,-1
 77 141 l 1,1,-1
 965 1356 l 1,2,-1
 253 1356 l 1,3,-1
 253 1132 l 1,4,-1
 116 1132 l 1,5,-1
 116 1493 l 1,6,-1
 1410 1493 l 1,7,-1
 1410 1349 l 1,8,-1
 531 137 l 1,9,-1
 1282 137 l 1,10,-1
 1282 345 l 1,11,-1
 1420 345 l 1,12,-1
 1420 0 l 1,13,-1
 77 0 l 1,0,-1
EndSplineSet
Layer: 2
SplineSet
77 0 m 1
 77 141 l 1
 965 1356 l 1
 253 1356 l 1
 253 1132 l 1
 116 1132 l 1
 116 1493 l 1
 1410 1493 l 1
 1410 1349 l 1
 531 137 l 1
 1282 137 l 1
 1282 345 l 1
 1420 345 l 1
 1420 0 l 1
 77 0 l 1
EndSplineSet
EndChar

StartChar: bracketleft
Encoding: 60 91 62
Width: 968
VWidth: 3198
Flags: W
HStem: -269 119<611 821> 1437 117<611 821>
VStem: 256 355<-150 1437>
LayerCount: 3
Fore
SplineSet
256 1554 m 1,0,-1
 821 1554 l 1,1,-1
 821 1437 l 1,2,-1
 611 1437 l 1,3,-1
 611 -150 l 1,4,-1
 821 -150 l 1,5,-1
 821 -269 l 1,6,-1
 256 -269 l 1,7,-1
 256 1554 l 1,0,-1
EndSplineSet
Layer: 2
SplineSet
256 1554 m 1
 821 1554 l 1
 821 1437 l 1
 611 1437 l 1
 611 -150 l 1
 821 -150 l 1
 821 -269 l 1
 256 -269 l 1
 256 1554 l 1
EndSplineSet
EndChar

StartChar: backslash
Encoding: 61 92 63
Width: 748
VWidth: 3198
Flags: W
HStem: 1473 20G<0 226.267>
VStem: 0 220<1273 1493> 525 223<-192 31>
DStem2: 220 1493 0 1493 0.299017 -0.954248<0 1699.11>
LayerCount: 3
Fore
SplineSet
220 1493 m 1,0,-1
 748 -192 l 1,1,-1
 525 -192 l 1,2,-1
 0 1493 l 1,3,-1
 220 1493 l 1,0,-1
EndSplineSet
Layer: 2
SplineSet
220 1493 m 1
 748 -192 l 1
 525 -192 l 1
 0 1493 l 1
 220 1493 l 1
EndSplineSet
EndChar

StartChar: bracketright
Encoding: 62 93 64
Width: 968
VWidth: 3198
Flags: W
HStem: -269 119<144 358> 1437 117<144 358>
VStem: 358 356<-150 1437>
LayerCount: 3
Fore
SplineSet
714 1554 m 1,0,-1
 714 -269 l 1,1,-1
 144 -269 l 1,2,-1
 144 -150 l 1,3,-1
 358 -150 l 1,4,-1
 358 1437 l 1,5,-1
 144 1437 l 1,6,-1
 144 1554 l 1,7,-1
 714 1554 l 1,0,-1
EndSplineSet
Layer: 2
SplineSet
714 1554 m 1
 714 -269 l 1
 144 -269 l 1
 144 -150 l 1
 358 -150 l 1
 358 1437 l 1
 144 1437 l 1
 144 1554 l 1
 714 1554 l 1
EndSplineSet
EndChar

StartChar: asciicircum
Encoding: 63 94 65
Width: 1713
VWidth: 3198
Flags: W
HStem: 1251 242<627 1094>
LayerCount: 3
Fore
SplineSet
973 1493 m 1,0,-1
 1510 934 l 1,1,-1
 1295 934 l 1,2,-1
 857 1251 l 1,3,-1
 419 934 l 1,4,-1
 208 934 l 1,5,-1
 748 1493 l 1,6,-1
 973 1493 l 1,0,-1
EndSplineSet
Layer: 2
SplineSet
973 1493 m 1
 1510 934 l 1
 1295 934 l 1
 857 1251 l 1
 419 934 l 1
 208 934 l 1
 748 1493 l 1
 973 1493 l 1
EndSplineSet
EndChar

StartChar: underscore
Encoding: 64 95 66
Width: 1022
VWidth: 3198
Flags: W
HStem: -483 189<0 1023>
LayerCount: 3
Fore
SplineSet
1023 -294 m 1,0,-1
 1023 -483 l 1,1,-1
 0 -483 l 1,2,-1
 0 -294 l 1,3,-1
 1023 -294 l 1,0,-1
EndSplineSet
Layer: 2
SplineSet
1023 -294 m 1
 1023 -483 l 1
 0 -483 l 1
 0 -294 l 1
 1023 -294 l 1
EndSplineSet
EndChar

StartChar: grave
Encoding: 65 96 67
Width: 1022
VWidth: 3198
Flags: W
HStem: 1260 378
VStem: 141 537
LayerCount: 3
Fore
SplineSet
419 1638 m 1,0,-1
 678 1260 l 1,1,-1
 515 1260 l 1,2,-1
 141 1638 l 1,3,-1
 419 1638 l 1,0,-1
EndSplineSet
Layer: 2
SplineSet
419 1638 m 1
 678 1260 l 1
 515 1260 l 1
 141 1638 l 1
 419 1638 l 1
EndSplineSet
EndChar

StartChar: a
Encoding: 66 97 68
Width: 1325
VWidth: 3198
Flags: W
HStem: -28 165<312.5 628.432> 0 122<1129 1279> 547 118<509.275 775> 793 230<166 287.607> 982 108<361.646 688.995>
VStem: 83 353<180.211 480.518> 166 112<793 897.127> 775 354<122 134 199.725 547 665 870.081>
LayerCount: 3
Fore
SplineSet
1129 653 m 2,0,-1
 1129 122 l 1,1,-1
 1279 122 l 1,2,-1
 1279 0 l 1,3,-1
 775 0 l 1,4,-1
 775 134 l 1,5,6
 704 52 704 52 617.5 12 c 128,-1,7
 531 -28 531 -28 422 -28 c 0,8,9
 259 -28 259 -28 171 58 c 128,-1,10
 83 144 83 144 83 311 c 0,11,12
 83 486 83 486 209.5 575.5 c 128,-1,13
 336 665 336 665 589 665 c 2,14,-1
 775 665 l 1,15,-1
 775 729 l 2,16,17
 775 857 775 857 714 919.5 c 128,-1,18
 653 982 653 982 525 982 c 0,19,20
 419 982 419 982 362 938.5 c 128,-1,21
 305 895 305 895 278 793 c 1,22,-1
 166 793 l 1,23,-1
 166 1023 l 1,24,25
 259 1059 259 1059 361.5 1074.5 c 128,-1,26
 464 1090 464 1090 576 1090 c 0,27,28
 860 1090 860 1090 994.5 984.5 c 128,-1,29
 1129 879 1129 879 1129 653 c 2,0,-1
775 333 m 2,30,-1
 775 547 l 1,31,-1
 640 547 l 2,32,33
 543 547 543 547 489.5 493 c 128,-1,34
 436 439 436 439 436 339 c 0,35,36
 436 237 436 237 474 187 c 128,-1,37
 512 137 512 137 592 137 c 0,38,39
 675 137 675 137 725 192 c 128,-1,40
 775 247 775 247 775 333 c 2,30,-1
EndSplineSet
Layer: 2
SplineSet
576 1090 m 3x2b
 923 1090 1129 981 1129 653 c 2
 1129 122 l 1
 1279 122 l 1
 1279 0 l 1
 775 0 l 1x6b
 775 134 l 1
 692 38 588 -28 422 -28 c 3
 203 -28 83 91 83 311 c 3
 83 578 298 665 589 665 c 2
 775 665 l 1
 775 729 l 2
 775 900 696 982 525 982 c 3xad
 373 982 312 920 278 793 c 1
 166 793 l 1
 166 1023 l 1x33
 284 1069 418 1090 576 1090 c 3x2b
592 137 m 3xa5
 704 137 775 221 775 333 c 2
 775 547 l 1
 640 547 l 2
 509 547 436 471 436 339 c 3
 436 215 475 137 592 137 c 3xa5
EndSplineSet
Substitution2: "Single Substitution lookup 22 subtable" uni0E38
EndChar

StartChar: b
Encoding: 67 98 69
Width: 1428
VWidth: 3198
Flags: W
HStem: -28 156<665.141 875.592> 0 122<48 198> 934 156<664.947 876.032> 1437 117<48 198>
VStem: 198 355<122 134 212.195 850.816 928 1437> 953 396<270.409 792.214>
LayerCount: 3
Fore
SplineSet
198 122 m 1,0,-1
 198 1437 l 1,1,-1
 48 1437 l 1,2,-1
 48 1554 l 1,3,-1
 553 1554 l 1,4,-1
 553 928 l 1,5,6
 598 1010 598 1010 673 1050 c 128,-1,7
 748 1090 748 1090 860 1090 c 0,8,9
 1087 1090 1087 1090 1218 941.5 c 128,-1,10
 1349 793 1349 793 1349 531 c 256,11,12
 1349 269 1349 269 1218 120.5 c 128,-1,13
 1087 -28 1087 -28 860 -28 c 0,14,15
 748 -28 748 -28 673 12 c 128,-1,16
 598 52 598 52 553 134 c 1,17,-1
 553 0 l 1,18,-1
 48 0 l 1,19,-1
 48 122 l 1,20,-1
 198 122 l 1,0,-1
553 479 m 2,21,22
 553 294 553 294 600 211 c 128,-1,23
 647 128 647 128 754 128 c 0,24,25
 860 128 860 128 906.5 216.5 c 128,-1,26
 953 305 953 305 953 531 c 0,27,28
 953 761 953 761 906.5 847.5 c 128,-1,29
 860 934 860 934 754 934 c 0,30,31
 647 934 647 934 600 852.5 c 128,-1,32
 553 771 553 771 553 583 c 2,33,-1
 553 479 l 2,21,22
EndSplineSet
Layer: 2
SplineSet
860 -28 m 3xbc
 703 -28 610 30 553 134 c 1
 553 0 l 1
 48 0 l 1
 48 122 l 1
 198 122 l 1x7c
 198 1437 l 1
 48 1437 l 1
 48 1554 l 1
 553 1554 l 1
 553 928 l 1
 610 1032 703 1090 860 1090 c 3
 1179 1090 1349 860 1349 531 c 259
 1349 202 1179 -28 860 -28 c 3xbc
754 934 m 3
 581 934 553 784 553 583 c 2
 553 479 l 2
 553 281 582 128 754 128 c 3xbc
 936 128 953 305 953 531 c 3
 953 760 938 934 754 934 c 3
EndSplineSet
Substitution2: "Single Substitution lookup 22 subtable" uni0E39
EndChar

StartChar: c
Encoding: 68 99 70
Width: 1246
VWidth: 3198
Flags: W
HStem: -28 111<593.001 884.696> 979 111<594.628 906.126>
VStem: 83 396<287.674 771.131> 989 165<202.657 333> 1007 113<714 869.039>
LayerCount: 3
Fore
SplineSet
1154 333 m 1,0,1
 1117 150 1117 150 999.5 61 c 128,-1,2
 882 -28 882 -28 678 -28 c 0,3,4
 397 -28 397 -28 240 118.5 c 128,-1,5
 83 265 83 265 83 531 c 256,6,7
 83 796 83 796 236.5 943 c 128,-1,8
 390 1090 390 1090 665 1090 c 0,9,10
 778 1090 778 1090 891 1069.5 c 128,-1,11
 1004 1049 1004 1049 1120 1007 c 1,12,-1
 1120 714 l 1,13,-1
 1007 714 l 1,14,15
 992 848 992 848 929.5 913.5 c 128,-1,16
 867 979 867 979 751 979 c 0,17,18
 604 979 604 979 541.5 878.5 c 128,-1,19
 479 778 479 778 479 531 c 0,20,21
 479 290 479 290 540 186.5 c 128,-1,22
 601 83 601 83 739 83 c 0,23,24
 845 83 845 83 910.5 148.5 c 128,-1,25
 976 214 976 214 989 333 c 1,26,-1
 1154 333 l 1,0,1
EndSplineSet
Layer: 2
SplineSet
739 83 m 3xe8
 892 83 973 188 989 333 c 1
 1154 333 l 1xf0
 1106 96 958 -28 678 -28 c 3
 312 -28 83 169 83 531 c 259
 83 889 304 1090 665 1090 c 3
 838 1090 982 1057 1120 1007 c 1
 1120 714 l 1
 1007 714 l 1
 989 876 921 979 751 979 c 3
 517 979 479 800 479 531 c 3
 479 272 515 83 739 83 c 3xe8
EndSplineSet
Substitution2: "Single Substitution lookup 22 subtable" uni0E3A
EndChar

StartChar: d
Encoding: 69 100 71
Width: 1428
VWidth: 3198
Flags: W
HStem: -28 156<554.726 765.029> 0 122<1231 1385> 934 156<553.625 765.223> 1437 117<726 879>
VStem: 83 396<265.9 793.472> 879 352<122 134 218.431 844.619 928 1437>
LayerCount: 3
Fore
SplineSet
879 479 m 2,0,-1
 879 583 l 2,1,2
 879 771 879 771 830 852.5 c 128,-1,3
 781 934 781 934 678 934 c 0,4,5
 565 934 565 934 522 847.5 c 128,-1,6
 479 761 479 761 479 531 c 0,7,8
 479 305 479 305 524.5 216.5 c 128,-1,9
 570 128 570 128 678 128 c 0,10,11
 781 128 781 128 830 211 c 128,-1,12
 879 294 879 294 879 479 c 2,0,-1
1231 122 m 1,13,-1
 1385 122 l 1,14,-1
 1385 0 l 1,15,-1
 879 0 l 1,16,-1
 879 134 l 1,17,18
 831 52 831 52 756 12 c 128,-1,19
 681 -28 681 -28 570 -28 c 0,20,21
 342 -28 342 -28 212.5 120.5 c 128,-1,22
 83 269 83 269 83 531 c 256,23,24
 83 793 83 793 212.5 941.5 c 128,-1,25
 342 1090 342 1090 570 1090 c 0,26,27
 681 1090 681 1090 756 1050 c 128,-1,28
 831 1010 831 1010 879 928 c 1,29,-1
 879 1437 l 1,30,-1
 726 1437 l 1,31,-1
 726 1554 l 1,32,-1
 1231 1554 l 1,33,-1
 1231 122 l 1,13,-1
EndSplineSet
Layer: 2
SplineSet
678 128 m 3xbc
 846 128 879 283 879 479 c 2
 879 583 l 2
 879 782 847 934 678 934 c 3
 488 934 479 765 479 531 c 3
 479 302 493 128 678 128 c 3xbc
570 1090 m 3
 727 1090 819 1031 879 928 c 1
 879 1437 l 1
 726 1437 l 1
 726 1554 l 1
 1231 1554 l 1
 1231 122 l 1
 1385 122 l 1
 1385 0 l 1
 879 0 l 1x7c
 879 134 l 1
 819 31 727 -28 570 -28 c 3
 250 -28 83 201 83 531 c 259
 83 861 250 1090 570 1090 c 3
EndSplineSet
EndChar

StartChar: e
Encoding: 70 101 72
Width: 1300
VWidth: 3198
Flags: W
HStem: -28 111<586.605 901.376> 479 122<479 821> 979 111<542.042 756.348>
VStem: 83 396<279.92 479 601 779.191> 1017 167<207.826 320>
LayerCount: 3
Fore
SplineSet
821 601 m 1,0,1
 821 809 821 809 781.5 894 c 128,-1,2
 742 979 742 979 650 979 c 256,3,4
 556 979 556 979 517.5 895.5 c 128,-1,5
 479 812 479 812 479 617 c 2,6,-1
 479 601 l 1,7,-1
 821 601 l 1,0,1
1209 479 m 1,8,-1
 479 479 l 1,9,-1
 479 473 l 2,10,11
 479 265 479 265 540 174 c 128,-1,12
 601 83 601 83 742 83 c 0,13,14
 857 83 857 83 927.5 145.5 c 128,-1,15
 998 208 998 208 1017 320 c 1,16,-1
 1184 320 l 1,17,18
 1138 141 1138 141 1010 56.5 c 128,-1,19
 882 -28 882 -28 656 -28 c 0,20,21
 378 -28 378 -28 230.5 117 c 128,-1,22
 83 262 83 262 83 531 c 0,23,24
 83 796 83 796 233.5 943 c 128,-1,25
 384 1090 384 1090 656 1090 c 0,26,27
 918 1090 918 1090 1058.5 935.5 c 128,-1,28
 1199 781 1199 781 1209 479 c 1,8,-1
EndSplineSet
Layer: 2
SplineSet
821 601 m 1
 821 804 811 979 650 979 c 259
 492 979 479 811 479 617 c 2
 479 601 l 1
 821 601 l 1
83 531 m 3
 83 887 298 1090 656 1090 c 3
 1029 1090 1197 855 1209 479 c 1
 479 479 l 1
 479 237 523 83 742 83 c 3
 903 83 993 179 1017 320 c 1
 1184 320 l 1
 1122 80 957 -28 656 -28 c 3
 290 -28 83 168 83 531 c 3
EndSplineSet
EndChar

StartChar: f
Encoding: 71 102 73
Width: 879
VWidth: 3198
Flags: W
HStem: 0 122<70 220 576 781> 940 122<64 220 576 842> 1288 228<875.879 992> 1443 111<624.499 840.124>
VStem: 220 356<122 940 1062 1381.8> 879 113<1288 1405.06>
LayerCount: 3
Fore
SplineSet
992 1288 m 1,0,-1
 879 1288 l 1,1,2
 870 1370 870 1370 833 1406.5 c 128,-1,3
 796 1443 796 1443 726 1443 c 0,4,5
 647 1443 647 1443 611.5 1385 c 128,-1,6
 576 1327 576 1327 576 1199 c 2,7,-1
 576 1062 l 1,8,-1
 842 1062 l 1,9,-1
 842 940 l 1,10,-1
 576 940 l 1,11,-1
 576 122 l 1,12,-1
 781 122 l 1,13,-1
 781 0 l 1,14,-1
 70 0 l 1,15,-1
 70 122 l 1,16,-1
 220 122 l 1,17,-1
 220 940 l 1,18,-1
 64 940 l 1,19,-1
 64 1062 l 1,20,-1
 220 1062 l 1,21,-1
 220 1196 l 2,22,23
 220 1373 220 1373 334 1463.5 c 128,-1,24
 448 1554 448 1554 665 1554 c 0,25,26
 751 1554 751 1554 831.5 1544.5 c 128,-1,27
 912 1535 912 1535 992 1516 c 1,28,-1
 992 1288 l 1,0,-1
EndSplineSet
Layer: 2
SplineSet
665 1554 m 3xdc
 787 1554 890 1540 992 1516 c 1
 992 1288 l 1
 879 1288 l 1xec
 868 1387 829 1443 726 1443 c 3
 601 1443 576 1340 576 1199 c 2
 576 1062 l 1
 842 1062 l 1
 842 940 l 1
 576 940 l 1
 576 122 l 1
 781 122 l 1
 781 0 l 1
 70 0 l 1
 70 122 l 1
 220 122 l 1
 220 940 l 1
 64 940 l 1
 64 1062 l 1
 220 1062 l 1
 220 1196 l 2
 220 1450 399 1554 665 1554 c 3xdc
EndSplineSet
EndChar

StartChar: g
Encoding: 72 103 74
Width: 1428
VWidth: 3198
Flags: W
HStem: -454 112<392.788 767.207> -390 256<186 301.035> -28 156<554.726 765.029> 934 156<553.625 765.223> 940 122<1231 1385>
VStem: 83 396<265.9 793.472> 186 111<-251.364 -134> 879 352<-187.571 134 218.431 844.619 928 940>
LayerCount: 3
Fore
SplineSet
1231 940 m 1,0,-1
 1231 12 l 2,1,2
 1231 -211 1231 -211 1071.5 -332.5 c 128,-1,3
 912 -454 912 -454 623 -454 c 0,4,5
 515 -454 515 -454 406 -438 c 128,-1,6
 297 -422 297 -422 186 -390 c 1,7,-1
 186 -134 l 1,8,-1
 297 -134 l 1,9,10
 311 -241 311 -241 381 -291.5 c 128,-1,11
 451 -342 451 -342 579 -342 c 0,12,13
 742 -342 742 -342 810.5 -264 c 128,-1,14
 879 -186 879 -186 879 12 c 2,15,-1
 879 134 l 1,16,17
 831 52 831 52 756 12 c 128,-1,18
 681 -28 681 -28 570 -28 c 0,19,20
 342 -28 342 -28 212.5 120.5 c 128,-1,21
 83 269 83 269 83 531 c 256,22,23
 83 793 83 793 212.5 941.5 c 128,-1,24
 342 1090 342 1090 570 1090 c 0,25,26
 681 1090 681 1090 756 1050 c 128,-1,27
 831 1010 831 1010 879 928 c 1,28,-1
 879 1062 l 1,29,-1
 1385 1062 l 1,30,-1
 1385 940 l 1,31,-1
 1231 940 l 1,0,-1
879 583 m 2,32,33
 879 771 879 771 830 852.5 c 128,-1,34
 781 934 781 934 678 934 c 0,35,36
 565 934 565 934 522 847.5 c 128,-1,37
 479 761 479 761 479 531 c 0,38,39
 479 305 479 305 524.5 216.5 c 128,-1,40
 570 128 570 128 678 128 c 0,41,42
 781 128 781 128 830 211 c 128,-1,43
 879 294 879 294 879 479 c 2,44,-1
 879 583 l 2,32,33
EndSplineSet
Layer: 2
SplineSet
570 1090 m 3xb5
 727 1090 819 1031 879 928 c 1
 879 1062 l 1
 1385 1062 l 1
 1385 940 l 1
 1231 940 l 1
 1231 12 l 2
 1231 -315 969 -454 623 -454 c 3xad
 461 -454 320 -429 186 -390 c 1
 186 -134 l 1
 297 -134 l 1x63
 316 -280 412 -342 579 -342 c 3
 813 -342 879 -235 879 12 c 2
 879 134 l 1
 819 31 727 -28 570 -28 c 3
 250 -28 83 201 83 531 c 259
 83 861 250 1090 570 1090 c 3xb5
678 128 m 3
 846 128 879 283 879 479 c 2
 879 583 l 2
 879 782 847 934 678 934 c 3x35
 488 934 479 765 479 531 c 3
 479 302 493 128 678 128 c 3
EndSplineSet
EndChar

StartChar: h
Encoding: 73 104 75
Width: 1486
VWidth: 3198
Flags: W
HStem: 0 122<70 220 576 704 806 934 1288 1443> 925 165<718.082 1053.5> 1437 117<64 220>
VStem: 220 356<122 837.392 912 1437> 934 354<122 885.576>
LayerCount: 3
Fore
SplineSet
70 0 m 1,0,-1
 70 122 l 1,1,-1
 220 122 l 1,2,-1
 220 1437 l 1,3,-1
 64 1437 l 1,4,-1
 64 1554 l 1,5,-1
 576 1554 l 1,6,-1
 576 912 l 1,7,8
 640 1007 640 1007 721.5 1048.5 c 128,-1,9
 803 1090 803 1090 928 1090 c 0,10,11
 1107 1090 1107 1090 1197.5 984.5 c 128,-1,12
 1288 879 1288 879 1288 675 c 2,13,-1
 1288 122 l 1,14,-1
 1443 122 l 1,15,-1
 1443 0 l 1,16,-1
 806 0 l 1,17,-1
 806 122 l 1,18,-1
 934 122 l 1,19,-1
 934 684 l 2,20,21
 934 821 934 821 900.5 873 c 128,-1,22
 867 925 867 925 781 925 c 0,23,24
 675 925 675 925 625.5 846.5 c 128,-1,25
 576 768 576 768 576 598 c 2,26,-1
 576 122 l 1,27,-1
 704 122 l 1,28,-1
 704 0 l 1,29,-1
 70 0 l 1,0,-1
EndSplineSet
Layer: 2
SplineSet
781 925 m 3
 614 925 576 786 576 598 c 2
 576 122 l 1
 704 122 l 1
 704 0 l 1
 70 0 l 1
 70 122 l 1
 220 122 l 1
 220 1437 l 1
 64 1437 l 1
 64 1554 l 1
 576 1554 l 1
 576 912 l 1
 655 1029 745 1090 928 1090 c 3
 1179 1090 1288 933 1288 675 c 2
 1288 122 l 1
 1443 122 l 1
 1443 0 l 1
 806 0 l 1
 806 122 l 1
 934 122 l 1
 934 684 l 2
 934 837 916 925 781 925 c 3
EndSplineSet
EndChar

StartChar: i
Encoding: 74 105 76
Width: 776
VWidth: 3198
Flags: W
HStem: 0 122<70 220 576 726> 940 122<70 220> 1174 380<256.81 503.114>
VStem: 189 384<1241.51 1485.36> 220 356<122 940>
LayerCount: 3
Fore
SplineSet
189 1362 m 0,0,1
 189 1446 189 1446 243 1500 c 128,-1,2
 297 1554 297 1554 381 1554 c 0,3,4
 461 1554 461 1554 517 1500 c 128,-1,5
 573 1446 573 1446 573 1362 c 0,6,7
 573 1282 573 1282 517 1228 c 128,-1,8
 461 1174 461 1174 381 1174 c 0,9,10
 297 1174 297 1174 243 1228 c 128,-1,11
 189 1282 189 1282 189 1362 c 0,0,1
576 122 m 1,12,-1
 726 122 l 1,13,-1
 726 0 l 1,14,-1
 70 0 l 1,15,-1
 70 122 l 1,16,-1
 220 122 l 1,17,-1
 220 940 l 1,18,-1
 70 940 l 1,19,-1
 70 1062 l 1,20,-1
 576 1062 l 1,21,-1
 576 122 l 1,12,-1
EndSplineSet
Layer: 2
SplineSet
381 1174 m 3xf0
 272 1174 189 1254 189 1362 c 3
 189 1473 270 1554 381 1554 c 3
 489 1554 573 1471 573 1362 c 3
 573 1256 487 1174 381 1174 c 3xf0
576 122 m 1xe8
 726 122 l 1
 726 0 l 1
 70 0 l 1
 70 122 l 1
 220 122 l 1
 220 940 l 1
 70 940 l 1
 70 1062 l 1
 576 1062 l 1
 576 122 l 1xe8
EndSplineSet
EndChar

StartChar: j
Encoding: 75 106 77
Width: 741
VWidth: 3198
Flags: W
HStem: -454 112<-14.0497 188.756> -415 223<-150 -39.3621> 940 122<67 217> 1174 380<247.395 490.834>
VStem: -150 111<-318.275 -192> 180 379<1241.93 1483.06> 217 356<-294.79 940>
LayerCount: 3
Fore
SplineSet
180 1362 m 0,0,1
 180 1446 180 1446 233.5 1500 c 128,-1,2
 287 1554 287 1554 372 1554 c 0,3,4
 448 1554 448 1554 503.5 1498.5 c 128,-1,5
 559 1443 559 1443 559 1362 c 256,6,7
 559 1282 559 1282 505 1228 c 128,-1,8
 451 1174 451 1174 372 1174 c 256,9,10
 290 1174 290 1174 235 1228 c 128,-1,11
 180 1282 180 1282 180 1362 c 0,0,1
217 940 m 1,12,-1
 67 940 l 1,13,-1
 67 1062 l 1,14,-1
 573 1062 l 1,15,-1
 573 -125 l 2,16,17
 573 -287 573 -287 457.5 -370.5 c 128,-1,18
 342 -454 342 -454 116 -454 c 0,19,20
 58 -454 58 -454 -11 -445 c 128,-1,21
 -80 -436 -80 -436 -150 -415 c 1,22,-1
 -150 -192 l 1,23,-1
 -39 -192 l 1,24,25
 -39 -269 -39 -269 -8.5 -305.5 c 128,-1,26
 22 -342 22 -342 89 -342 c 0,27,28
 162 -342 162 -342 189.5 -294.5 c 128,-1,29
 217 -247 217 -247 217 -125 c 2,30,-1
 217 940 l 1,12,-1
EndSplineSet
Layer: 2
SplineSet
372 1174 m 259x3c
 264 1174 180 1255 180 1362 c 3
 180 1474 260 1554 372 1554 c 3
 475 1554 559 1467 559 1362 c 259
 559 1257 477 1174 372 1174 c 259x3c
89 -342 m 3xba
 205 -342 217 -259 217 -125 c 2
 217 940 l 1
 67 940 l 1
 67 1062 l 1
 573 1062 l 1
 573 -125 l 2
 573 -369 380 -454 116 -454 c 3xba
 22 -454 -71 -439 -150 -415 c 1
 -150 -192 l 1
 -39 -192 l 1x7a
 -39 -289 -5 -342 89 -342 c 3xba
EndSplineSet
EndChar

StartChar: k
Encoding: 76 107 78
Width: 1419
VWidth: 3198
Flags: W
HStem: 0 122<70 220 576 707 845 970 1340 1452> 940 122<876 1004 1163 1362> 1437 117<70 220>
VStem: 220 356<122 412 556 1437>
DStem2: 576 556 675 498 0.743483 0.668755<0 34.817 327.005 575.013> 889 697 675 498 0.617157 -0.78684<24.5097 502.423>
LayerCount: 3
Fore
SplineSet
707 0 m 1,0,-1
 70 0 l 1,1,-1
 70 122 l 1,2,-1
 220 122 l 1,3,-1
 220 1437 l 1,4,-1
 70 1437 l 1,5,-1
 70 1554 l 1,6,-1
 576 1554 l 1,7,-1
 576 556 l 1,8,-1
 1004 940 l 1,9,-1
 876 940 l 1,10,-1
 876 1062 l 1,11,-1
 1362 1062 l 1,12,-1
 1362 940 l 1,13,-1
 1163 940 l 1,14,-1
 889 697 l 1,15,-1
 1340 122 l 1,16,-1
 1452 122 l 1,17,-1
 1452 0 l 1,18,-1
 845 0 l 1,19,-1
 845 122 l 1,20,-1
 970 122 l 1,21,-1
 675 498 l 1,22,-1
 576 412 l 1,23,-1
 576 122 l 1,24,-1
 707 122 l 1,25,-1
 707 0 l 1,0,-1
EndSplineSet
Layer: 2
SplineSet
707 0 m 1
 70 0 l 1
 70 122 l 1
 220 122 l 1
 220 1437 l 1
 70 1437 l 1
 70 1554 l 1
 576 1554 l 1
 576 556 l 1
 1004 940 l 1
 876 940 l 1
 876 1062 l 1
 1362 1062 l 1
 1362 940 l 1
 1163 940 l 1
 889 697 l 1
 1340 122 l 1
 1452 122 l 1
 1452 0 l 1
 845 0 l 1
 845 122 l 1
 970 122 l 1
 675 498 l 1
 576 412 l 1
 576 122 l 1
 707 122 l 1
 707 0 l 1
EndSplineSet
EndChar

StartChar: l
Encoding: 77 108 79
Width: 776
VWidth: 3198
Flags: W
HStem: 0 122<70 220 576 726> 1437 117<70 220>
VStem: 220 356<122 1437>
LayerCount: 3
Fore
SplineSet
576 122 m 1,0,-1
 726 122 l 1,1,-1
 726 0 l 1,2,-1
 70 0 l 1,3,-1
 70 122 l 1,4,-1
 220 122 l 1,5,-1
 220 1437 l 1,6,-1
 70 1437 l 1,7,-1
 70 1554 l 1,8,-1
 576 1554 l 1,9,-1
 576 122 l 1,0,-1
EndSplineSet
Layer: 2
SplineSet
576 122 m 1
 726 122 l 1
 726 0 l 1
 70 0 l 1
 70 122 l 1
 220 122 l 1
 220 1437 l 1
 70 1437 l 1
 70 1554 l 1
 576 1554 l 1
 576 122 l 1
EndSplineSet
EndChar

StartChar: m
Encoding: 78 109 80
Width: 2164
VWidth: 3198
Flags: W
HStem: 0 122<70 220 576 704 790 918 1270 1398 1487 1612 1968 2118> 925 165<712.53 999.5 1405.83 1731> 940 122<70 220>
VStem: 220 356<122 839.756 912 940> 918 352<122 838.048> 1612 356<122 887.841>
CounterMasks: 1 1c
LayerCount: 3
Fore
SplineSet
1242 889 m 1,0,1
 1318 995 1318 995 1402.5 1042.5 c 128,-1,2
 1487 1090 1487 1090 1602 1090 c 0,3,4
 1788 1090 1788 1090 1878 986 c 128,-1,5
 1968 882 1968 882 1968 675 c 2,6,-1
 1968 122 l 1,7,-1
 2118 122 l 1,8,-1
 2118 0 l 1,9,-1
 1487 0 l 1,10,-1
 1487 122 l 1,11,-1
 1612 122 l 1,12,-1
 1612 623 l 2,13,14
 1612 821 1612 821 1581.5 873 c 128,-1,15
 1551 925 1551 925 1471 925 c 0,16,17
 1376 925 1376 925 1323 853 c 128,-1,18
 1270 781 1270 781 1270 647 c 2,19,-1
 1270 122 l 1,20,-1
 1398 122 l 1,21,-1
 1398 0 l 1,22,-1
 790 0 l 1,23,-1
 790 122 l 1,24,-1
 918 122 l 1,25,-1
 918 623 l 2,26,27
 918 821 918 821 887.5 873 c 128,-1,28
 857 925 857 925 775 925 c 0,29,30
 678 925 678 925 627 853 c 128,-1,31
 576 781 576 781 576 647 c 2,32,-1
 576 122 l 1,33,-1
 704 122 l 1,34,-1
 704 0 l 1,35,-1
 70 0 l 1,36,-1
 70 122 l 1,37,-1
 220 122 l 1,38,-1
 220 940 l 1,39,-1
 70 940 l 1,40,-1
 70 1062 l 1,41,-1
 576 1062 l 1,42,-1
 576 912 l 1,43,44
 637 1004 637 1004 716.5 1047 c 128,-1,45
 796 1090 796 1090 909 1090 c 0,46,47
 1037 1090 1037 1090 1116.5 1041 c 128,-1,48
 1196 992 1196 992 1242 889 c 1,0,1
EndSplineSet
Layer: 2
SplineSet
909 1090 m 3xdc
 1090 1090 1184 1019 1242 889 c 1
 1328 1009 1419 1090 1602 1090 c 3
 1860 1090 1968 940 1968 675 c 2
 1968 122 l 1
 2118 122 l 1
 2118 0 l 1
 1487 0 l 1
 1487 122 l 1
 1612 122 l 1
 1612 623 l 2
 1612 818 1604 925 1471 925 c 3
 1327 925 1270 802 1270 647 c 2
 1270 122 l 1
 1398 122 l 1
 1398 0 l 1
 790 0 l 1
 790 122 l 1
 918 122 l 1
 918 623 l 2
 918 820 913 925 775 925 c 3xdc
 630 925 576 803 576 647 c 2
 576 122 l 1
 704 122 l 1
 704 0 l 1
 70 0 l 1
 70 122 l 1
 220 122 l 1
 220 940 l 1
 70 940 l 1
 70 1062 l 1
 576 1062 l 1xbc
 576 912 l 1
 649 1022 740 1090 909 1090 c 3xdc
EndSplineSet
EndChar

StartChar: n
Encoding: 79 110 81
Width: 1486
VWidth: 3198
Flags: W
HStem: 0 122<70 220 576 704 806 934 1288 1443> 925 165<718.082 1053.5> 940 122<70 220>
VStem: 220 356<122 837.392 912 940> 934 354<122 885.576>
LayerCount: 3
Fore
SplineSet
70 0 m 1,0,-1
 70 122 l 1,1,-1
 220 122 l 1,2,-1
 220 940 l 1,3,-1
 70 940 l 1,4,-1
 70 1062 l 1,5,-1
 576 1062 l 1,6,-1
 576 912 l 1,7,8
 640 1007 640 1007 721.5 1048.5 c 128,-1,9
 803 1090 803 1090 928 1090 c 0,10,11
 1107 1090 1107 1090 1197.5 984.5 c 128,-1,12
 1288 879 1288 879 1288 675 c 2,13,-1
 1288 122 l 1,14,-1
 1443 122 l 1,15,-1
 1443 0 l 1,16,-1
 806 0 l 1,17,-1
 806 122 l 1,18,-1
 934 122 l 1,19,-1
 934 684 l 2,20,21
 934 821 934 821 900.5 873 c 128,-1,22
 867 925 867 925 781 925 c 0,23,24
 675 925 675 925 625.5 846.5 c 128,-1,25
 576 768 576 768 576 598 c 2,26,-1
 576 122 l 1,27,-1
 704 122 l 1,28,-1
 704 0 l 1,29,-1
 70 0 l 1,0,-1
EndSplineSet
Layer: 2
SplineSet
781 925 m 3xd8
 614 925 576 786 576 598 c 2
 576 122 l 1
 704 122 l 1
 704 0 l 1
 70 0 l 1
 70 122 l 1
 220 122 l 1
 220 940 l 1
 70 940 l 1
 70 1062 l 1
 576 1062 l 1xb8
 576 912 l 1
 655 1029 745 1090 928 1090 c 3
 1179 1090 1288 933 1288 675 c 2
 1288 122 l 1
 1443 122 l 1
 1443 0 l 1
 806 0 l 1
 806 122 l 1
 934 122 l 1
 934 684 l 2
 934 837 916 925 781 925 c 3xd8
EndSplineSet
EndChar

StartChar: o
Encoding: 80 111 82
Width: 1364
VWidth: 3198
Flags: W
HStem: -28 111<566.898 800.842> 979 111<567.116 801.014>
VStem: 83 396<291.172 771.27> 885 397<291.152 771.27>
LayerCount: 3
Fore
SplineSet
684 83 m 256,0,1
 796 83 796 83 840.5 179 c 128,-1,2
 885 275 885 275 885 531 c 256,3,4
 885 787 885 787 840.5 883 c 128,-1,5
 796 979 796 979 684 979 c 256,6,7
 573 979 573 979 526 883 c 128,-1,8
 479 787 479 787 479 531 c 0,9,10
 479 278 479 278 526 180.5 c 128,-1,11
 573 83 573 83 684 83 c 256,0,1
684 -28 m 0,12,13
 403 -28 403 -28 243 120.5 c 128,-1,14
 83 269 83 269 83 531 c 256,15,16
 83 793 83 793 243 941.5 c 128,-1,17
 403 1090 403 1090 684 1090 c 256,18,19
 965 1090 965 1090 1123.5 941.5 c 128,-1,20
 1282 793 1282 793 1282 531 c 256,21,22
 1282 269 1282 269 1122 120.5 c 128,-1,23
 962 -28 962 -28 684 -28 c 0,12,13
EndSplineSet
Layer: 2
SplineSet
684 83 m 259
 870 83 885 282 885 531 c 259
 885 780 869 979 684 979 c 259
 501 979 479 780 479 531 c 3
 479 284 500 83 684 83 c 259
1282 531 m 259
 1282 175 1045 -28 684 -28 c 3
 321 -28 83 173 83 531 c 259
 83 889 321 1090 684 1090 c 259
 1048 1090 1282 889 1282 531 c 259
EndSplineSet
EndChar

StartChar: p
Encoding: 81 112 83
Width: 1428
VWidth: 3198
Flags: W
HStem: -425 120<48 198 553 717> -28 156<665.141 875.592> 934 156<664.947 876.032> 940 122<48 198>
VStem: 198 355<-305 134 212.195 850.816 928 940> 953 396<270.409 792.214>
LayerCount: 3
Fore
SplineSet
553 583 m 2,0,-1
 553 479 l 2,1,2
 553 294 553 294 600 211 c 128,-1,3
 647 128 647 128 754 128 c 0,4,5
 860 128 860 128 906.5 216.5 c 128,-1,6
 953 305 953 305 953 531 c 0,7,8
 953 761 953 761 906.5 847.5 c 128,-1,9
 860 934 860 934 754 934 c 0,10,11
 647 934 647 934 600 852.5 c 128,-1,12
 553 771 553 771 553 583 c 2,0,-1
198 940 m 1,13,-1
 48 940 l 1,14,-1
 48 1062 l 1,15,-1
 553 1062 l 1,16,-1
 553 928 l 1,17,18
 598 1010 598 1010 673 1050 c 128,-1,19
 748 1090 748 1090 860 1090 c 0,20,21
 1087 1090 1087 1090 1218 941.5 c 128,-1,22
 1349 793 1349 793 1349 531 c 256,23,24
 1349 269 1349 269 1218 120.5 c 128,-1,25
 1087 -28 1087 -28 860 -28 c 0,26,27
 748 -28 748 -28 673 12 c 128,-1,28
 598 52 598 52 553 134 c 1,29,-1
 553 -305 l 1,30,-1
 717 -305 l 1,31,-1
 717 -425 l 1,32,-1
 48 -425 l 1,33,-1
 48 -305 l 1,34,-1
 198 -305 l 1,35,-1
 198 940 l 1,13,-1
EndSplineSet
Layer: 2
SplineSet
754 934 m 3xec
 581 934 553 784 553 583 c 2
 553 479 l 2
 553 281 582 128 754 128 c 3
 936 128 953 305 953 531 c 3
 953 760 938 934 754 934 c 3xec
860 -28 m 3
 703 -28 610 30 553 134 c 1
 553 -305 l 1
 717 -305 l 1
 717 -425 l 1
 48 -425 l 1
 48 -305 l 1
 198 -305 l 1
 198 940 l 1
 48 940 l 1
 48 1062 l 1
 553 1062 l 1xdc
 553 928 l 1
 610 1032 703 1090 860 1090 c 3
 1179 1090 1349 860 1349 531 c 259
 1349 202 1179 -28 860 -28 c 3
EndSplineSet
EndChar

StartChar: q
Encoding: 82 113 84
Width: 1428
VWidth: 3198
Flags: W
HStem: -425 120<714 879 1231 1385> -28 156<554.726 765.029> 934 156<553.625 765.223> 940 122<1231 1385>
VStem: 83 396<265.9 793.472> 879 352<-305 134 218.431 844.619 928 940>
LayerCount: 3
Fore
SplineSet
1231 940 m 1,0,-1
 1231 -305 l 1,1,-1
 1385 -305 l 1,2,-1
 1385 -425 l 1,3,-1
 714 -425 l 1,4,-1
 714 -305 l 1,5,-1
 879 -305 l 1,6,-1
 879 134 l 1,7,8
 831 52 831 52 756 12 c 128,-1,9
 681 -28 681 -28 570 -28 c 0,10,11
 342 -28 342 -28 212.5 120.5 c 128,-1,12
 83 269 83 269 83 531 c 256,13,14
 83 793 83 793 212.5 941.5 c 128,-1,15
 342 1090 342 1090 570 1090 c 0,16,17
 681 1090 681 1090 756 1050 c 128,-1,18
 831 1010 831 1010 879 928 c 1,19,-1
 879 1062 l 1,20,-1
 1385 1062 l 1,21,-1
 1385 940 l 1,22,-1
 1231 940 l 1,0,-1
879 583 m 2,23,24
 879 771 879 771 830 852.5 c 128,-1,25
 781 934 781 934 678 934 c 0,26,27
 565 934 565 934 522 847.5 c 128,-1,28
 479 761 479 761 479 531 c 0,29,30
 479 305 479 305 524.5 216.5 c 128,-1,31
 570 128 570 128 678 128 c 0,32,33
 781 128 781 128 830 211 c 128,-1,34
 879 294 879 294 879 479 c 2,35,-1
 879 583 l 2,23,24
EndSplineSet
Layer: 2
SplineSet
570 1090 m 3xec
 727 1090 819 1031 879 928 c 1
 879 1062 l 1
 1385 1062 l 1
 1385 940 l 1
 1231 940 l 1xdc
 1231 -305 l 1
 1385 -305 l 1
 1385 -425 l 1
 714 -425 l 1
 714 -305 l 1
 879 -305 l 1
 879 134 l 1
 819 31 727 -28 570 -28 c 3
 250 -28 83 201 83 531 c 259
 83 861 250 1090 570 1090 c 3xec
678 128 m 3
 846 128 879 283 879 479 c 2
 879 583 l 2
 879 782 847 934 678 934 c 3xec
 488 934 479 765 479 531 c 3
 479 302 493 128 678 128 c 3
EndSplineSet
EndChar

StartChar: r
Encoding: 83 114 85
Width: 1077
VWidth: 3198
Flags: W
HStem: 0 122<70 220 576 768> 925 165<726.021 946.979> 940 122<61 220>
VStem: 220 356<122 780.897 873 940> 985 116<757 885.221>
LayerCount: 3
Fore
SplineSet
1101 1074 m 1,0,-1
 1101 757 l 1,1,-1
 985 757 l 1,2,3
 982 845 982 845 942.5 885 c 128,-1,4
 903 925 903 925 825 925 c 0,5,6
 707 925 707 925 641.5 824 c 128,-1,7
 576 723 576 723 576 540 c 2,8,-1
 576 122 l 1,9,-1
 768 122 l 1,10,-1
 768 0 l 1,11,-1
 70 0 l 1,12,-1
 70 122 l 1,13,-1
 220 122 l 1,14,-1
 220 940 l 1,15,-1
 61 940 l 1,16,-1
 61 1062 l 1,17,-1
 576 1062 l 1,18,-1
 576 873 l 1,19,20
 626 985 626 985 713 1037.5 c 128,-1,21
 800 1090 800 1090 921 1090 c 0,22,23
 953 1090 953 1090 998 1087 c 128,-1,24
 1043 1084 1043 1084 1101 1074 c 1,0,-1
EndSplineSet
Layer: 2
SplineSet
921 1090 m 3xd8
 983 1090 1039 1085 1101 1074 c 1
 1101 757 l 1
 985 757 l 1
 981 868 935 925 825 925 c 3xd8
 641 925 576 743 576 540 c 2
 576 122 l 1
 768 122 l 1
 768 0 l 1
 70 0 l 1
 70 122 l 1
 220 122 l 1
 220 940 l 1
 61 940 l 1
 61 1062 l 1
 576 1062 l 1xb8
 576 873 l 1
 636 1007 740 1090 921 1090 c 3xd8
EndSplineSet
EndChar

StartChar: s
Encoding: 84 115 86
Width: 1150
VWidth: 3198
Flags: W
HStem: -28 111<325.53 677.098> 979 111<447.53 807.751>
VStem: 89 317<648.132 930.188> 95 113<200.514 326> 726 342<140.874 333.973> 903 111<757 884.281>
LayerCount: 3
Fore
SplineSet
95 31 m 1,0,-1
 95 326 l 1,1,-1
 208 326 l 1,2,3
 223 208 223 208 297.5 145.5 c 128,-1,4
 372 83 372 83 503 83 c 0,5,6
 611 83 611 83 668.5 121 c 128,-1,7
 726 159 726 159 726 230 c 0,8,9
 726 294 726 294 689.5 327.5 c 128,-1,10
 653 361 653 361 547 390 c 2,11,-1
 400 425 l 2,12,13
 237 467 237 467 163 543.5 c 128,-1,14
 89 620 89 620 89 748 c 0,15,16
 89 925 89 925 207.5 1007.5 c 128,-1,17
 326 1090 326 1090 576 1090 c 0,18,19
 672 1090 672 1090 777 1076 c 128,-1,20
 882 1062 882 1062 1014 1026 c 1,21,-1
 1014 757 l 1,22,-1
 903 757 l 1,23,24
 892 867 892 867 823 923 c 128,-1,25
 754 979 754 979 626 979 c 0,26,27
 518 979 518 979 462 944 c 128,-1,28
 406 909 406 909 406 845 c 0,29,30
 406 790 406 790 438 758 c 128,-1,31
 470 726 470 726 553 707 c 2,32,-1
 701 668 l 2,33,34
 909 617 909 617 988.5 539 c 128,-1,35
 1068 461 1068 461 1068 320 c 0,36,37
 1068 141 1068 141 938.5 56.5 c 128,-1,38
 809 -28 809 -28 540 -28 c 0,39,40
 442 -28 442 -28 329.5 -14 c 128,-1,41
 217 0 217 0 95 31 c 1,0,-1
EndSplineSet
Layer: 2
SplineSet
540 -28 m 3xe8
 382 -28 234 -4 95 31 c 1
 95 326 l 1
 208 326 l 1
 228 170 327 83 503 83 c 3
 624 83 726 120 726 230 c 3xd8
 726 340 656 364 547 390 c 2
 400 425 l 2
 219 468 89 548 89 748 c 3
 89 1015 285 1090 576 1090 c 3
 741 1090 865 1067 1014 1026 c 1
 1014 757 l 1
 903 757 l 1xe4
 888 907 793 979 626 979 c 3
 510 979 406 948 406 845 c 3
 406 753 466 730 553 707 c 2
 701 668 l 2
 922 610 1068 555 1068 320 c 3
 1068 44 845 -28 540 -28 c 3xe8
EndSplineSet
EndChar

StartChar: t
Encoding: 85 116 87
Width: 946
VWidth: 3198
Flags: W
HStem: -28 111<437.618 752.586> 940 122<48 201 556 851>
VStem: 201 355<101.478 940 1062 1391> 787 147<117.969 259>
LayerCount: 3
Fore
SplineSet
201 940 m 1,0,-1
 48 940 l 1,1,-1
 48 1062 l 1,2,-1
 201 1062 l 1,3,-1
 201 1391 l 1,4,-1
 556 1391 l 1,5,-1
 556 1062 l 1,6,-1
 851 1062 l 1,7,-1
 851 940 l 1,8,-1
 556 940 l 1,9,-1
 556 290 l 2,10,11
 556 150 556 150 578.5 116.5 c 128,-1,12
 601 83 601 83 659 83 c 0,13,14
 723 83 723 83 753.5 126.5 c 128,-1,15
 784 170 784 170 787 259 c 1,16,-1
 934 259 l 1,17,18
 928 98 928 98 849.5 35 c 128,-1,19
 771 -28 771 -28 576 -28 c 0,20,21
 358 -28 358 -28 279.5 40.5 c 128,-1,22
 201 109 201 109 201 290 c 2,23,-1
 201 940 l 1,0,-1
EndSplineSet
Layer: 2
SplineSet
576 -28 m 3
 303 -28 201 31 201 290 c 2
 201 940 l 1
 48 940 l 1
 48 1062 l 1
 201 1062 l 1
 201 1391 l 1
 556 1391 l 1
 556 1062 l 1
 851 1062 l 1
 851 940 l 1
 556 940 l 1
 556 290 l 2
 556 149 558 83 659 83 c 3
 756 83 784 157 787 259 c 1
 934 259 l 1
 925 31 822 -28 576 -28 c 3
EndSplineSet
EndChar

StartChar: u
Encoding: 86 117 88
Width: 1486
VWidth: 3198
Flags: W
HStem: -28 165<435.5 770.188> 0 122<1267 1420> 940 122<48 198 784 912>
VStem: 198 355<177.31 940> 912 355<122 150 225.312 940>
LayerCount: 3
Fore
SplineSet
1267 1062 m 1,0,-1
 1267 122 l 1,1,-1
 1420 122 l 1,2,-1
 1420 0 l 1,3,-1
 912 0 l 1,4,-1
 912 150 l 1,5,6
 851 55 851 55 767.5 13.5 c 128,-1,7
 684 -28 684 -28 559 -28 c 0,8,9
 384 -28 384 -28 291 77.5 c 128,-1,10
 198 183 198 183 198 387 c 2,11,-1
 198 940 l 1,12,-1
 48 940 l 1,13,-1
 48 1062 l 1,14,-1
 553 1062 l 1,15,-1
 553 442 l 2,16,17
 553 244 553 244 585 190.5 c 128,-1,18
 617 137 617 137 707 137 c 0,19,20
 812 137 812 137 862 215.5 c 128,-1,21
 912 294 912 294 912 467 c 2,22,-1
 912 940 l 1,23,-1
 784 940 l 1,24,-1
 784 1062 l 1,25,-1
 1267 1062 l 1,0,-1
EndSplineSet
Layer: 2
SplineSet
707 137 m 3xb8
 874 137 912 277 912 467 c 2
 912 940 l 1
 784 940 l 1
 784 1062 l 1
 1267 1062 l 1
 1267 122 l 1
 1420 122 l 1
 1420 0 l 1
 912 0 l 1x78
 912 150 l 1
 837 33 741 -28 559 -28 c 3
 312 -28 198 131 198 387 c 2
 198 940 l 1
 48 940 l 1
 48 1062 l 1
 553 1062 l 1
 553 442 l 2
 553 240 561 137 707 137 c 3xb8
EndSplineSet
EndChar

StartChar: v
Encoding: 87 118 89
Width: 1188
VWidth: 3198
Flags: W
HStem: 0 21G<449.957 749.979> 940 122<-39 80 445 573 842 982 1117 1242>
DStem2: 445 940 80 940 0.373092 -0.927794<0 722.912> 714 269 742 0 0.370539 0.928817<0 722.541>
LayerCount: 3
Fore
SplineSet
458 0 m 1,0,-1
 80 940 l 1,1,-1
 -39 940 l 1,2,-1
 -39 1062 l 1,3,-1
 573 1062 l 1,4,-1
 573 940 l 1,5,-1
 445 940 l 1,6,-1
 714 269 l 1,7,-1
 982 940 l 1,8,-1
 842 940 l 1,9,-1
 842 1062 l 1,10,-1
 1242 1062 l 1,11,-1
 1242 940 l 1,12,-1
 1117 940 l 1,13,-1
 742 0 l 1,14,-1
 458 0 l 1,0,-1
EndSplineSet
Layer: 2
SplineSet
458 0 m 1
 80 940 l 1
 -39 940 l 1
 -39 1062 l 1
 573 1062 l 1
 573 940 l 1
 445 940 l 1
 714 269 l 1
 982 940 l 1
 842 940 l 1
 842 1062 l 1
 1242 1062 l 1
 1242 940 l 1
 1117 940 l 1
 742 0 l 1
 458 0 l 1
EndSplineSet
EndChar

StartChar: w
Encoding: 88 119 90
Width: 1761
VWidth: 3198
Flags: W
HStem: 0 21G<412.17 668.827 1106.26 1362.87> 940 122<-19 98 458 583 1407 1545 1679 1804>
DStem2: 458 940 98 940 0.323166 -0.946342<0 604.348> 656 369 662 0 0.322368 0.946614<0 355.31> 1343 355 1356 0 0.324967 0.945725<0 618.893>
LayerCount: 3
Fore
SplineSet
1104 1062 m 1,0,-1
 1343 355 l 1,1,-1
 1545 940 l 1,2,-1
 1407 940 l 1,3,-1
 1407 1062 l 1,4,-1
 1804 1062 l 1,5,-1
 1804 940 l 1,6,-1
 1679 940 l 1,7,-1
 1356 0 l 1,8,-1
 1113 0 l 1,9,-1
 889 665 l 1,10,-1
 662 0 l 1,11,-1
 419 0 l 1,12,-1
 98 940 l 1,13,-1
 -19 940 l 1,14,-1
 -19 1062 l 1,15,-1
 583 1062 l 1,16,-1
 583 940 l 1,17,-1
 458 940 l 1,18,-1
 656 369 l 1,19,-1
 892 1062 l 1,20,-1
 1104 1062 l 1,0,-1
EndSplineSet
Layer: 2
SplineSet
1104 1062 m 1
 1343 355 l 1
 1545 940 l 1
 1407 940 l 1
 1407 1062 l 1
 1804 1062 l 1
 1804 940 l 1
 1679 940 l 1
 1356 0 l 1
 1113 0 l 1
 889 665 l 1
 662 0 l 1
 419 0 l 1
 98 940 l 1
 -19 940 l 1
 -19 1062 l 1
 583 1062 l 1
 583 940 l 1
 458 940 l 1
 656 369 l 1
 892 1062 l 1
 1104 1062 l 1
EndSplineSet
EndChar

StartChar: x
Encoding: 89 120 91
Width: 1218
VWidth: 3198
Flags: W
HStem: 0 122<0 150 294 439 559 697 1093 1235> 940 122<9 128 531 659 778 909 1049 1190>
DStem2: 531 940 128 940 0.571035 -0.820926<0 292.182 451.356 766.309> 150 122 294 122 0.585491 0.810679<84.3106 427.363> 720 678 778 562 0.582661 0.812715<0 323.054>
LayerCount: 3
Fore
SplineSet
720 678 m 1,0,-1
 909 940 l 1,1,-1
 778 940 l 1,2,-1
 778 1062 l 1,3,-1
 1190 1062 l 1,4,-1
 1190 940 l 1,5,-1
 1049 940 l 1,6,-1
 778 562 l 1,7,-1
 1093 122 l 1,8,-1
 1235 122 l 1,9,-1
 1235 0 l 1,10,-1
 559 0 l 1,11,-1
 559 122 l 1,12,-1
 697 122 l 1,13,-1
 495 400 l 1,14,-1
 294 122 l 1,15,-1
 439 122 l 1,16,-1
 439 0 l 1,17,-1
 0 0 l 1,18,-1
 0 122 l 1,19,-1
 150 122 l 1,20,-1
 436 518 l 1,21,-1
 128 940 l 1,22,-1
 9 940 l 1,23,-1
 9 1062 l 1,24,-1
 659 1062 l 1,25,-1
 659 940 l 1,26,-1
 531 940 l 1,27,-1
 720 678 l 1,0,-1
EndSplineSet
Layer: 2
SplineSet
720 678 m 1
 909 940 l 1
 778 940 l 1
 778 1062 l 1
 1190 1062 l 1
 1190 940 l 1
 1049 940 l 1
 778 562 l 1
 1093 122 l 1
 1235 122 l 1
 1235 0 l 1
 559 0 l 1
 559 122 l 1
 697 122 l 1
 495 400 l 1
 294 122 l 1
 439 122 l 1
 439 0 l 1
 0 0 l 1
 0 122 l 1
 150 122 l 1
 436 518 l 1
 128 940 l 1
 9 940 l 1
 9 1062 l 1
 659 1062 l 1
 659 940 l 1
 531 940 l 1
 720 678 l 1
EndSplineSet
EndChar

StartChar: y
Encoding: 90 121 92
Width: 1188
VWidth: 3198
Flags: W
HStem: -454 112<242.133 464.93> -412 220<98 214> 940 122<-25 89 458 586 839 982 1110 1238>
VStem: 98 116<-314.377 -192>
DStem2: 458 940 89 940 0.394436 -0.918924<0 682.138> 534 -173 640 -241 0.369762 0.929126<-182.16 42.1521 524.588 1199.77>
LayerCount: 3
Fore
SplineSet
640 -241 m 2,0,1
 592 -355 592 -355 523 -404.5 c 128,-1,2
 454 -454 454 -454 339 -454 c 0,3,4
 290 -454 290 -454 230 -442.5 c 128,-1,5
 170 -431 170 -431 98 -412 c 1,6,-1
 98 -192 l 1,7,-1
 214 -192 l 1,8,9
 214 -269 214 -269 247.5 -305.5 c 128,-1,10
 281 -342 281 -342 348 -342 c 256,11,12
 415 -342 415 -342 455 -305.5 c 128,-1,13
 495 -269 495 -269 534 -173 c 2,14,-1
 550 -134 l 1,15,-1
 89 940 l 1,16,-1
 -25 940 l 1,17,-1
 -25 1062 l 1,18,-1
 586 1062 l 1,19,-1
 586 940 l 1,20,-1
 458 940 l 1,21,-1
 729 314 l 1,22,-1
 982 940 l 1,23,-1
 839 940 l 1,24,-1
 839 1062 l 1,25,-1
 1238 1062 l 1,26,-1
 1238 940 l 1,27,-1
 1110 940 l 1,28,-1
 640 -241 l 2,0,1
EndSplineSet
Layer: 2
SplineSet
214 -192 m 1x70
 214 -289 254 -342 348 -342 c 259
 463 -342 493 -273 534 -173 c 2
 550 -134 l 1
 89 940 l 1
 -25 940 l 1
 -25 1062 l 1
 586 1062 l 1
 586 940 l 1
 458 940 l 1
 729 314 l 1
 982 940 l 1
 839 940 l 1
 839 1062 l 1
 1238 1062 l 1
 1238 940 l 1
 1110 940 l 1
 640 -241 l 2
 586 -376 513 -454 339 -454 c 3xb0
 254 -454 177 -433 98 -412 c 1
 98 -192 l 1
 214 -192 l 1x70
EndSplineSet
EndChar

StartChar: z
Encoding: 91 122 93
Width: 1163
VWidth: 3198
Flags: W
HStem: 0 119<483 976> 946 116<223 681>
VStem: 106 117<764 946> 976 117<119 311>
DStem2: 70 122 483 119 0.595624 0.803264<243.583 1025.82>
LayerCount: 3
Fore
SplineSet
70 0 m 1,0,-1
 70 122 l 1,1,-1
 681 946 l 1,2,-1
 223 946 l 1,3,-1
 223 764 l 1,4,-1
 106 764 l 1,5,-1
 106 1062 l 1,6,-1
 1093 1062 l 1,7,-1
 1093 943 l 1,8,-1
 483 119 l 1,9,-1
 976 119 l 1,10,-1
 976 311 l 1,11,-1
 1093 311 l 1,12,-1
 1093 0 l 1,13,-1
 70 0 l 1,0,-1
EndSplineSet
Layer: 2
SplineSet
70 0 m 1
 70 122 l 1
 681 946 l 1
 223 946 l 1
 223 764 l 1
 106 764 l 1
 106 1062 l 1
 1093 1062 l 1
 1093 943 l 1
 483 119 l 1
 976 119 l 1
 976 311 l 1
 1093 311 l 1
 1093 0 l 1
 70 0 l 1
EndSplineSet
EndChar

StartChar: braceleft
Encoding: 92 123 94
Width: 1316
VWidth: 3198
Flags: W
HStem: -333 119<888.182 1132> 550 122<173 413.801> 1437 117<888.182 1132>
VStem: 479 357<-165.938 483.13 739.117 1388.62>
LayerCount: 3
Fore
SplineSet
1132 -214 m 1,0,-1
 1132 -333 l 1,1,-1
 985 -333 l 2,2,3
 748 -333 748 -333 667 -308.5 c 128,-1,4
 586 -284 586 -284 534 -223 c 0,5,6
 506 -186 506 -186 492.5 -131.5 c 128,-1,7
 479 -77 479 -77 479 36 c 2,8,-1
 479 284 l 2,9,10
 479 436 479 436 427 493 c 128,-1,11
 375 550 375 550 234 550 c 2,12,-1
 173 550 l 1,13,-1
 173 672 l 1,14,-1
 234 672 l 2,15,16
 375 672 375 672 427 729.5 c 128,-1,17
 479 787 479 787 479 937 c 2,18,-1
 479 1187 l 2,19,20
 479 1298 479 1298 492.5 1352.5 c 128,-1,21
 506 1407 506 1407 534 1446 c 0,22,23
 586 1507 586 1507 667 1530.5 c 128,-1,24
 748 1554 748 1554 985 1554 c 2,25,-1
 1132 1554 l 1,26,-1
 1132 1437 l 1,27,-1
 1029 1437 l 2,28,29
 918 1437 918 1437 877 1388.5 c 128,-1,30
 836 1340 836 1340 836 1206 c 2,31,-1
 836 934 l 2,32,33
 836 778 836 778 786 709 c 128,-1,34
 736 640 736 640 608 611 c 1,35,36
 739 576 739 576 787.5 512 c 128,-1,37
 836 448 836 448 836 287 c 2,38,-1
 836 16 l 2,39,40
 836 -119 836 -119 877 -166.5 c 128,-1,41
 918 -214 918 -214 1029 -214 c 2,42,-1
 1132 -214 l 1,0,-1
EndSplineSet
Layer: 2
SplineSet
836 16 m 2
 836 -153 870 -214 1029 -214 c 2
 1132 -214 l 1
 1132 -333 l 1
 985 -333 l 2
 620 -333 479 -306 479 36 c 2
 479 284 l 2
 479 482 428 550 234 550 c 2
 173 550 l 1
 173 672 l 1
 234 672 l 2
 427 672 479 741 479 937 c 2
 479 1187 l 2
 479 1529 620 1554 985 1554 c 2
 1132 1554 l 1
 1132 1437 l 1
 1029 1437 l 2
 870 1437 836 1374 836 1206 c 2
 836 934 l 2
 836 724 779 650 608 611 c 1
 783 565 836 506 836 287 c 2
 836 16 l 2
EndSplineSet
EndChar

StartChar: bar
Encoding: 93 124 95
Width: 744
VWidth: 3198
Flags: W
VStem: 265 214<-483 1563>
LayerCount: 3
Fore
SplineSet
479 1563 m 1,0,-1
 479 -483 l 1,1,-1
 265 -483 l 1,2,-1
 265 1563 l 1,3,-1
 479 1563 l 1,0,-1
EndSplineSet
Layer: 2
SplineSet
479 1563 m 1
 479 -483 l 1
 265 -483 l 1
 265 1563 l 1
 479 1563 l 1
EndSplineSet
EndChar

StartChar: braceright
Encoding: 94 125 96
Width: 1316
VWidth: 3198
Flags: W
HStem: -333 119<186 428.82> 550 122<901.733 1145> 1437 117<186 428.82>
VStem: 479 357<-165.516 483.548 738.627 1388.2>
LayerCount: 3
Fore
SplineSet
186 -214 m 1,0,-1
 287 -214 l 2,1,2
 397 -214 397 -214 438 -166.5 c 128,-1,3
 479 -119 479 -119 479 16 c 2,4,-1
 479 287 l 2,5,6
 479 445 479 445 529 510.5 c 128,-1,7
 579 576 579 576 711 611 c 1,8,9
 583 640 583 640 531 709 c 128,-1,10
 479 778 479 778 479 934 c 2,11,-1
 479 1206 l 2,12,13
 479 1340 479 1340 438 1388.5 c 128,-1,14
 397 1437 397 1437 287 1437 c 2,15,-1
 186 1437 l 1,16,-1
 186 1554 l 1,17,-1
 333 1554 l 2,18,19
 565 1554 565 1554 647 1530.5 c 128,-1,20
 729 1507 729 1507 781 1446 c 0,21,22
 809 1407 809 1407 822.5 1352.5 c 128,-1,23
 836 1298 836 1298 836 1187 c 2,24,-1
 836 937 l 2,25,26
 836 787 836 787 888 729.5 c 128,-1,27
 940 672 940 672 1084 672 c 2,28,-1
 1145 672 l 1,29,-1
 1145 550 l 1,30,-1
 1084 550 l 2,31,32
 940 550 940 550 888 493 c 128,-1,33
 836 436 836 436 836 284 c 2,34,-1
 836 36 l 2,35,36
 836 -77 836 -77 822.5 -131.5 c 128,-1,37
 809 -186 809 -186 781 -223 c 0,38,39
 729 -284 729 -284 647 -308.5 c 128,-1,40
 565 -333 565 -333 333 -333 c 2,41,-1
 186 -333 l 1,42,-1
 186 -214 l 1,0,-1
EndSplineSet
Layer: 2
SplineSet
1084 550 m 2
 887 550 836 484 836 284 c 2
 836 36 l 2
 836 -305 694 -333 333 -333 c 2
 186 -333 l 1
 186 -214 l 1
 287 -214 l 2
 446 -214 479 -152 479 16 c 2
 479 287 l 2
 479 503 537 566 711 611 c 1
 540 650 479 724 479 934 c 2
 479 1206 l 2
 479 1373 445 1437 287 1437 c 2
 186 1437 l 1
 186 1554 l 1
 333 1554 l 2
 694 1554 836 1528 836 1187 c 2
 836 937 l 2
 836 739 888 672 1084 672 c 2
 1145 672 l 1
 1145 550 l 1
 1084 550 l 2
EndSplineSet
EndChar

StartChar: asciitilde
Encoding: 95 126 97
Width: 1713
VWidth: 3198
Flags: W
HStem: 458 226<947.077 1324.24> 598 230<400.365 758.836>
LayerCount: 3
Fore
SplineSet
1496 831 m 1,0,-1
 1496 623 l 1,1,2
 1407 537 1407 537 1312.5 497.5 c 128,-1,3
 1218 458 1218 458 1117 458 c 0,4,5
 1023 458 1023 458 870 515 c 0,6,7
 854 522 854 522 845 525 c 1,8,9
 839 525 839 525 825 531 c 0,10,11
 653 598 653 598 556 598 c 0,12,13
 479 598 479 598 396.5 561.5 c 128,-1,14
 314 525 314 525 217 451 c 1,15,-1
 217 659 l 1,16,17
 314 745 314 745 406 786.5 c 128,-1,18
 498 828 498 828 598 828 c 0,19,20
 690 828 690 828 845 771 c 0,21,22
 860 764 860 764 870 757 c 1,23,-1
 882 754 l 2,24,25
 1059 684 1059 684 1157 684 c 0,26,27
 1238 684 1238 684 1319.5 720.5 c 128,-1,28
 1401 757 1401 757 1496 831 c 1,0,-1
EndSplineSet
Layer: 2
SplineSet
1496 623 m 1x80
 1399 529 1278 458 1117 458 c 3x80
 1054 458 973 478 870 515 c 2
 825 531 l 2
 709 572 621 598 556 598 c 3
 424 598 317 526 217 451 c 1
 217 659 l 1
 322 751 441 828 598 828 c 3x40
 659 828 783 799 845 771 c 2
 882 754 l 2
 966 715 1092 684 1157 684 c 3
 1291 684 1397 754 1496 831 c 1
 1496 623 l 1x80
EndSplineSet
EndChar

StartChar: nounicode-3-1-45
Encoding: 376 -1 98
Width: 0
VWidth: 3198
Flags: W
HStem: 0 21G<-959 0>
VStem: -959 959<0 1919>
LayerCount: 3
Fore
SplineSet
-959 1919 m 1,0,-1
 0 1919 l 1,1,-1
 0 0 l 1,2,-1
 -959 0 l 1,3,-1
 -959 1919 l 1,0,-1
EndSplineSet
Layer: 2
SplineSet
-959 1919 m 1
 0 1919 l 1
 0 0 l 1
 -959 0 l 1
 -959 1919 l 1
EndSplineSet
EndChar

StartChar: uni0E10.descless
Encoding: 338 63232 99
Width: 1352
VWidth: 3198
Flags: W
HStem: 348 80<364.908 483.118> 668 86<356.315 484.05> 854 111<326 558.507> 962 183<874.512 1233.83> 1132 103<408.136 684.838>
VStem: 183 156<442.885 655.854> 940 287<414.98 778.824>
LayerCount: 3
Fore
SplineSet
876 259 m 1,0,1
 920 454 920 454 930 514 c 128,-1,2
 940 574 940 574 940 653 c 0,3,4
 940 734 940 734 907.5 769 c 128,-1,5
 875 804 875 804 786 818 c 0,6,7
 564 854 564 854 112 854 c 0,8,9
 57 854 57 854 25 851 c 1,10,11
 66 1035 66 1035 201.5 1135 c 128,-1,12
 337 1235 337 1235 543 1235 c 0,13,14
 593 1235 593 1235 773 1189 c 0,15,16
 944 1145 944 1145 995 1145 c 0,17,18
 1083 1145 1083 1145 1166 1167 c 128,-1,19
 1249 1189 1249 1189 1306 1227 c 1,20,-1
 1306 976 l 1,21,22
 1252 962 1252 962 1196 962 c 0,23,24
 915 962 915 962 716 1072 c 0,25,26
 608 1132 608 1132 534 1132 c 0,27,28
 461 1132 461 1132 407.5 1089 c 128,-1,29
 354 1046 354 1046 326 965 c 1,30,31
 832 965 832 965 1047 892 c 0,32,33
 1145 858 1145 858 1186 801 c 128,-1,34
 1227 744 1227 744 1227 643 c 0,35,36
 1227 573 1227 573 1184 415 c 0,37,38
 1121 180 1121 180 1096 3 c 1,39,-1
 768 3 l 1,40,-1
 576 406 l 1,41,42
 493 348 493 348 419 348 c 0,43,44
 309 348 309 348 246 402 c 128,-1,45
 183 456 183 456 183 550 c 0,46,47
 183 649 183 649 253 701.5 c 128,-1,48
 323 754 323 754 454 754 c 0,49,50
 548 754 548 754 602.5 724 c 128,-1,51
 657 694 657 694 694 622 c 2,52,-1
 876 259 l 1,0,1
425 668 m 0,53,54
 387 668 387 668 363 638 c 128,-1,55
 339 608 339 608 339 562 c 0,56,57
 339 505 339 505 363 466.5 c 128,-1,58
 387 428 387 428 422 428 c 128,-1,59
 457 428 457 428 481.5 464 c 128,-1,60
 506 500 506 500 506 550 c 0,61,62
 506 597 506 597 481.5 632.5 c 128,-1,63
 457 668 457 668 425 668 c 0,53,54
EndSplineSet
Layer: 2
SplineSet
876 259 m 1xee
 935 518 940 547 940 653 c 3
 940 761 904 799 786 818 c 0
 632 843 424 854 112 854 c 3
 68 854 46 853 25 851 c 1
 80 1096 268 1235 543 1235 c 3xee
 584 1235 632 1225 773 1189 c 0
 909 1154 956 1145 995 1145 c 3
 1112 1145 1230 1176 1306 1227 c 1
 1306 976 l 1
 1271 967 1234 962 1196 962 c 3xd6
 1008 962 848 999 716 1072 c 0
 644 1112 584 1132 534 1132 c 3
 436 1132 363 1073 326 965 c 1
 683 965 897 943 1047 892 c 0
 1177 847 1227 778 1227 643 c 3
 1227 589 1218 540 1184 415 c 0
 1139 247 1113 123 1096 3 c 1
 768 3 l 1
 576 406 l 1
 516 364 473 348 419 348 c 3
 273 348 183 425 183 550 c 3
 183 682 279 754 454 754 c 259
 580 754 645 718 694 622 c 2
 876 259 l 1xee
425 668 m 3
 375 668 339 624 339 562 c 3
 339 486 375 428 422 428 c 3
 468 428 506 483 506 550 c 259
 506 612 468 668 425 668 c 3
EndSplineSet
EndChar

StartChar: ellipsis
Encoding: 316 8230 104
Width: 2045
VWidth: 3198
Flags: W
HStem: -28 379<235.352 477.114 902.132 1144.28 1570.53 1811.06>
VStem: 166 381<41.9456 281.648> 831 384<45.0916 278.525> 1501 379<41.5303 282.063>
LayerCount: 3
Fore
SplineSet
1501 162 m 128,-1,1
 1501 241 1501 241 1556.5 296 c 128,-1,2
 1612 351 1612 351 1691 351 c 0,3,4
 1769 351 1769 351 1824.5 296 c 128,-1,5
 1880 241 1880 241 1880 162 c 128,-1,6
 1880 83 1880 83 1824.5 27.5 c 128,-1,7
 1769 -28 1769 -28 1691 -28 c 0,8,9
 1612 -28 1612 -28 1556.5 27.5 c 128,-1,0
 1501 83 1501 83 1501 162 c 128,-1,1
831 162 m 128,-1,11
 831 241 831 241 888.5 296 c 128,-1,12
 946 351 946 351 1023 351 c 256,13,14
 1101 351 1101 351 1158 296 c 128,-1,15
 1215 241 1215 241 1215 162 c 128,-1,16
 1215 83 1215 83 1158 27.5 c 128,-1,17
 1101 -28 1101 -28 1023 -28 c 256,18,19
 946 -28 946 -28 888.5 27.5 c 128,-1,10
 831 83 831 83 831 162 c 128,-1,11
166 162 m 128,-1,21
 166 241 166 241 222 296 c 128,-1,22
 278 351 278 351 355 351 c 0,23,24
 436 351 436 351 491.5 296 c 128,-1,25
 547 241 547 241 547 162 c 128,-1,26
 547 83 547 83 491.5 27.5 c 128,-1,27
 436 -28 436 -28 355 -28 c 0,28,29
 278 -28 278 -28 222 27.5 c 128,-1,20
 166 83 166 83 166 162 c 128,-1,21
EndSplineSet
Layer: 2
SplineSet
1691 -28 m 3
 1587 -28 1501 58 1501 162 c 3
 1501 267 1587 351 1691 351 c 3
 1795 351 1880 266 1880 162 c 3
 1880 58 1795 -28 1691 -28 c 3
1023 -28 m 259
 920 -28 831 59 831 162 c 3
 831 265 920 351 1023 351 c 259
 1127 351 1215 266 1215 162 c 3
 1215 58 1127 -28 1023 -28 c 259
355 -28 m 3
 252 -28 166 59 166 162 c 3
 166 265 252 351 355 351 c 3
 461 351 547 268 547 162 c 3
 547 56 461 -28 355 -28 c 3
EndSplineSet
EndChar

StartChar: uni0E48.low
Encoding: 348 63242 110
Width: 0
VWidth: 3198
Flags: W
HStem: 1468 464<-419 -141>
VStem: -419 278<1468 1932>
LayerCount: 3
Fore
SplineSet
-419 1932 m 1,0,-1
 -141 1932 l 1,1,-1
 -141 1468 l 1,2,-1
 -419 1468 l 1,3,-1
 -419 1932 l 1,0,-1
EndSplineSet
Layer: 2
SplineSet
-419 1932 m 1
 -141 1932 l 1
 -141 1468 l 1
 -419 1468 l 1
 -419 1932 l 1
EndSplineSet
Substitution2: "Single Substitution lookup 21 subtable" uni0E48.left
Substitution2: "Single Substitution lookup 20 subtable" uni0E48
Substitution2: "Single Substitution lookup 22 subtable" uni0E48.low_left
EndChar

StartChar: uni0E49.low
Encoding: 349 63243 111
Width: 0
VWidth: 3198
Flags: W
HStem: 1456 109<-889 -840> 1657 77<-783.871 -719.491> 1945 67<-786.97 -665.267>
VStem: -981 172<1749.16 1935.09> -645 162<1740.87 1934.43>
LayerCount: 3
Fore
SplineSet
-889 1565 m 1,0,1
 -838 1574 -838 1574 -802 1578 c 0,2,3
 -767 1582 -767 1582 -748.5 1600 c 128,-1,4
 -730 1618 -730 1618 -719 1657 c 1,5,6
 -841 1657 -841 1657 -911 1705 c 128,-1,7
 -981 1753 -981 1753 -981 1837 c 0,8,9
 -981 1916 -981 1916 -910 1964 c 128,-1,10
 -839 2012 -839 2012 -722 2012 c 0,11,12
 -483 2012 -483 2012 -483 1813 c 0,13,14
 -483 1713 -483 1713 -550 1621 c 1,15,16
 -449 1666 -449 1666 -379.5 1783.5 c 128,-1,17
 -310 1901 -310 1901 -303 2038 c 1,18,-1
 11 2038 l 1,19,20
 -50 1766 -50 1766 -258.5 1624 c 128,-1,21
 -467 1482 -467 1482 -840 1459 c 2,22,-1
 -889 1456 l 1,23,-1
 -889 1565 l 1,0,1
-722 1734 m 0,24,25
 -682 1734 -682 1734 -663.5 1760 c 128,-1,26
 -645 1786 -645 1786 -645 1843 c 0,27,28
 -645 1889 -645 1889 -668.5 1917 c 128,-1,29
 -692 1945 -692 1945 -731 1945 c 0,30,31
 -765 1945 -765 1945 -787 1915.5 c 128,-1,32
 -809 1886 -809 1886 -809 1840 c 0,33,34
 -809 1799 -809 1799 -782.5 1766.5 c 128,-1,35
 -756 1734 -756 1734 -722 1734 c 0,24,25
EndSplineSet
Layer: 2
SplineSet
-889 1565 m 1
 -853 1571 -834 1574 -802 1578 c 0
 -755 1584 -733 1605 -719 1657 c 1
 -882 1657 -981 1725 -981 1837 c 259
 -981 1942 -878 2012 -722 2012 c 3
 -563 2012 -483 1945 -483 1813 c 3
 -483 1746 -505 1683 -550 1621 c 1
 -415 1681 -312 1855 -303 2038 c 1
 11 2038 l 1
 -71 1675 -343 1490 -840 1459 c 2
 -889 1456 l 1
 -889 1565 l 1
-722 1734 m 3
 -668 1734 -645 1767 -645 1843 c 259
 -645 1905 -679 1945 -731 1945 c 3
 -776 1945 -809 1901 -809 1840 c 259
 -809 1785 -767 1734 -722 1734 c 3
EndSplineSet
Substitution2: "Single Substitution lookup 21 subtable" uni0E49.left
Substitution2: "Single Substitution lookup 20 subtable" uni0E49
Substitution2: "Single Substitution lookup 22 subtable" uni0E49.low_left
EndChar

StartChar: uni0E4A.low
Encoding: 350 63244 112
Width: 0
VWidth: 3198
Flags: W
HStem: 1465 247<-793.447 -615.386>
VStem: -1026 171<1646.77 1823.46> -445 124<1652.35 1831.32>
LayerCount: 3
Fore
SplineSet
-528 1468 m 1,0,-1
 -528 1568 l 1,1,2
 -481 1591 -481 1591 -463 1624.5 c 128,-1,3
 -445 1658 -445 1658 -445 1724 c 0,4,5
 -445 1805 -445 1805 -486 1833 c 1,6,7
 -515 1811 -515 1811 -548 1776 c 0,8,9
 -579.5 1743 -579.5 1743 -617 1743 c 0,10,11
 -634 1743 -634 1743 -653.5 1755 c 128,-1,12
 -673 1767 -673 1767 -708 1801 c 2,13,-1
 -761 1855 l 1,14,15
 -802 1839 -802 1839 -828.5 1805 c 128,-1,16
 -855 1771 -855 1771 -855 1733 c 0,17,18
 -855 1688 -855 1688 -822 1644 c 1,19,20
 -754 1712 -754 1712 -697 1712 c 0,21,22
 -633 1712 -633 1712 -606.5 1685 c 128,-1,23
 -580 1658 -580 1658 -580 1593 c 0,24,25
 -580 1535 -580 1535 -625.5 1500 c 128,-1,26
 -671 1465 -671 1465 -748 1465 c 0,27,28
 -873 1465 -873 1465 -949.5 1527 c 128,-1,29
 -1026 1589 -1026 1589 -1026 1691 c 0,30,31
 -1026 1784 -1026 1784 -967.5 1842.5 c 128,-1,32
 -909 1901 -909 1901 -775 1944 c 1,33,-1
 -700 1944 l 1,34,-1
 -599 1862 l 1,35,36
 -520 1938 -520 1938 -474 1938 c 0,37,38
 -321 1938 -321 1938 -321 1737 c 0,39,40
 -321 1698 -321 1698 -336 1651 c 1,41,42
 -284 1697 -284 1697 -265.5 1758.5 c 128,-1,43
 -247 1820 -247 1820 -247 1944 c 0,44,45
 -247 1964 -247 1964 -250 1974 c 1,46,-1
 -7 1974 l 1,47,48
 -14 1869 -14 1869 -34 1795.5 c 128,-1,49
 -54 1722 -54 1722 -90 1665.5 c 128,-1,50
 -126 1609 -126 1609 -186.5 1572 c 128,-1,51
 -247 1535 -247 1535 -328.5 1510 c 128,-1,52
 -410 1485 -410 1485 -528 1468 c 1,0,-1
EndSplineSet
Layer: 2
SplineSet
-528 1468 m 1
 -528 1568 l 1
 -465 1599 -445 1636 -445 1724 c 3
 -445 1773 -461 1816 -486 1833 c 1
 -504 1819 -524 1801 -548 1776 c 0
 -569 1754 -592 1743 -617 1743 c 3
 -640 1743 -661 1756 -708 1801 c 2
 -761 1855 l 1
 -816 1834 -855 1783 -855 1733 c 3
 -855 1703 -845 1675 -822 1644 c 1
 -775 1691 -737 1712 -697 1712 c 3
 -612 1712 -580 1680 -580 1593 c 3
 -580 1515 -646 1465 -748 1465 c 3
 -915 1465 -1026 1555 -1026 1691 c 259
 -1026 1815 -954 1887 -775 1944 c 1
 -700 1944 l 1
 -599 1862 l 1
 -546 1913 -505 1938 -474 1938 c 3
 -371 1938 -321 1873 -321 1737 c 3
 -321 1711 -326 1682 -336 1651 c 1
 -267 1712 -247 1779 -247 1944 c 3
 -247 1960 -248 1967 -250 1974 c 1
 -7 1974 l 1
 -31 1634 -144 1524 -528 1468 c 1
EndSplineSet
Substitution2: "Single Substitution lookup 21 subtable" uni0E4A.left
Substitution2: "Single Substitution lookup 20 subtable" uni0E4A
Substitution2: "Single Substitution lookup 22 subtable" uni0E4A.low_left
EndChar

StartChar: uni0E4B.low
Encoding: 351 63245 113
Width: 0
VWidth: 3198
Flags: W
HStem: 1474 497<-448 -141> 1666 122<-604 -448 -141 9>
VStem: -448 307<1474 1666 1788 1971>
LayerCount: 3
Fore
SplineSet
-141 1474 m 1,0,-1
 -448 1474 l 1,1,-1
 -448 1666 l 1,2,-1
 -604 1666 l 1,3,-1
 -604 1788 l 1,4,-1
 -448 1788 l 1,5,-1
 -448 1971 l 1,6,-1
 -141 1971 l 1,7,-1
 -141 1788 l 1,8,-1
 9 1788 l 1,9,-1
 9 1666 l 1,10,-1
 -141 1666 l 1,11,-1
 -141 1474 l 1,0,-1
EndSplineSet
Layer: 2
SplineSet
-141 1474 m 1xa0
 -448 1474 l 1xa0
 -448 1666 l 1
 -604 1666 l 1
 -604 1788 l 1
 -448 1788 l 1x60
 -448 1971 l 1
 -141 1971 l 1xa0
 -141 1788 l 1
 9 1788 l 1
 9 1666 l 1
 -141 1666 l 1x60
 -141 1474 l 1xa0
EndSplineSet
Substitution2: "Single Substitution lookup 21 subtable" uni0E4B.left
Substitution2: "Single Substitution lookup 20 subtable" uni0E4B
Substitution2: "Single Substitution lookup 22 subtable" uni0E4B.low_left
EndChar

StartChar: uni0E4C.low
Encoding: 352 63246 114
Width: 0
VWidth: 3198
Flags: W
HStem: 1465 70<-558.637 -440.598>
VStem: -768 178<1553.54 1770.04> -417 169<1547.64 1775.64> -270 284<1955.95 2091>
LayerCount: 3
Fore
SplineSet
-248 1660 m 0,0,1
 -248 1570 -248 1570 -317.5 1517.5 c 128,-1,2
 -387 1465 -387 1465 -506 1465 c 0,3,4
 -626 1465 -626 1465 -697 1518 c 128,-1,5
 -768 1571 -768 1571 -768 1660 c 0,6,7
 -768 1814 -768 1814 -553 1856 c 0,8,9
 -387 1889 -387 1889 -328.5 1937.5 c 128,-1,10
 -270 1986 -270 1986 -270 2091 c 1,11,-1
 14 2091 l 1,12,13
 -2 1972 -2 1972 -80 1889.5 c 128,-1,14
 -158 1807 -158 1807 -285 1776 c 1,15,16
 -248 1727 -248 1727 -248 1660 c 0,0,1
-417 1654 m 0,17,18
 -417 1719 -417 1719 -439 1753.5 c 128,-1,19
 -461 1788 -461 1788 -502 1788 c 0,20,21
 -538 1788 -538 1788 -564 1749 c 128,-1,22
 -590 1710 -590 1710 -590 1657 c 0,23,24
 -590 1608 -590 1608 -562.5 1571.5 c 128,-1,25
 -535 1535 -535 1535 -499 1535 c 0,26,27
 -462 1535 -462 1535 -439.5 1568 c 128,-1,28
 -417 1601 -417 1601 -417 1654 c 0,17,18
EndSplineSet
Layer: 2
SplineSet
-248 1660 m 3xe0
 -248 1540 -348 1465 -506 1465 c 259
 -666 1465 -768 1541 -768 1660 c 3
 -768 1762 -697 1828 -553 1856 c 0
 -332 1900 -270 1951 -270 2091 c 1
 14 2091 l 1xd0
 -7 1932 -115 1818 -285 1776 c 1
 -260 1743 -248 1705 -248 1660 c 3xe0
-417 1654 m 3xe0
 -417 1740 -447 1788 -502 1788 c 3
 -550 1788 -590 1728 -590 1657 c 3
 -590 1592 -547 1535 -499 1535 c 3
 -450 1535 -417 1583 -417 1654 c 3xe0
EndSplineSet
Substitution2: "Single Substitution lookup 21 subtable" uni0E4C.left
Substitution2: "Single Substitution lookup 20 subtable" uni0E4C
Substitution2: "Single Substitution lookup 22 subtable" uni0E4C.low_left
EndChar

StartChar: uni0E0D.descless
Encoding: 353 63247 115
Width: 1956
VWidth: 3198
Flags: W
HStem: -9 82<416.925 549.561> 0 128<1215 1501> 323 116<420.106 553.033> 854 108<195 259 471.839 583> 1117 121<387.812 790.363> 1201 20G<1631.35 1826>
VStem: 103 316<409 746.375> 103 287<108.368 313.483> 573 144<92.3586 303.793> 892 323<128 986.852> 1501 325<128 1110>
LayerCount: 3
Fore
SplineSet
103 614 m 2,0,1
 103 679 103 679 146.5 746.5 c 128,-1,2
 190 814 190 814 259 854 c 1,3,-1
 45 854 l 1,4,-1
 45 1017 l 1,5,6
 273 1154 273 1154 387 1196 c 128,-1,7
 501 1238 501 1238 647 1238 c 0,8,9
 917 1238 917 1238 1066 1119 c 128,-1,10
 1215 1000 1215 1000 1215 784 c 2,11,-1
 1215 128 l 1,12,-1
 1501 128 l 1,13,-1
 1501 1110 l 1,14,-1
 1660 1221 l 1,15,-1
 1826 1221 l 1,16,-1
 1826 119 l 2,17,18
 1826 76 1826 76 1782 38 c 128,-1,19
 1738 0 1738 0 1688 0 c 2,20,-1
 892 0 l 1,21,-1
 892 793 l 2,22,23
 892 961 892 961 828 1039 c 128,-1,24
 764 1117 764 1117 626 1117 c 0,25,26
 509 1117 509 1117 388.5 1073.5 c 128,-1,27
 268 1030 268 1030 195 962 c 1,28,-1
 583 962 l 1,29,-1
 583 867 l 1,30,31
 498 843 498 843 458.5 797 c 128,-1,32
 419 751 419 751 419 675 c 2,33,-1
 419 409 l 1,34,35
 473 439 473 439 518 439 c 0,36,37
 609 439 609 439 663 380.5 c 128,-1,38
 717 322 717 322 717 223 c 0,39,40
 717 104 717 104 646.5 47.5 c 128,-1,41
 576 -9 576 -9 428 -9 c 0,42,43
 287 -9 287 -9 195 58.5 c 128,-1,44
 103 126 103 126 103 230 c 2,45,-1
 103 614 l 2,0,1
573 211 m 256,46,47
 573 261 573 261 544 292 c 128,-1,48
 515 323 515 323 467 323 c 0,49,50
 432 323 432 323 411 290.5 c 128,-1,51
 390 258 390 258 390 205 c 128,-1,52
 390 152 390 152 414.5 112.5 c 128,-1,53
 439 73 439 73 473 73 c 0,54,55
 520 73 520 73 546.5 109.5 c 128,-1,56
 573 146 573 146 573 211 c 256,46,47
EndSplineSet
Layer: 2
SplineSet
103 614 m 2xbae0
 103 701 167 800 259 854 c 1
 45 854 l 1
 45 1017 l 1
 349 1200 453 1238 647 1238 c 3xbae0
 1007 1238 1215 1072 1215 784 c 2
 1215 128 l 1
 1501 128 l 1
 1501 1110 l 1
 1660 1221 l 1
 1826 1221 l 1x76e0
 1826 119 l 2
 1826 61 1755 0 1688 0 c 2
 892 0 l 1
 892 793 l 2
 892 1017 810 1117 626 1117 c 3
 470 1117 292 1053 195 962 c 1
 583 962 l 1
 583 867 l 1
 469 835 419 776 419 675 c 2
 419 409 l 1x7ae0
 457 430 487 439 518 439 c 3
 640 439 717 355 717 223 c 3
 717 65 625 -9 428 -9 c 3
 240 -9 103 92 103 230 c 2xb9e0
 103 614 l 2xbae0
573 211 m 259
 573 278 531 323 467 323 c 3
 421 323 390 276 390 205 c 259xb1e0
 390 134 428 73 473 73 c 3
 536 73 573 124 573 211 c 259
EndSplineSet
EndChar

StartChar: quoteleft
Encoding: 307 8216 116
Width: 702
VWidth: 3198
Flags: W
HStem: 742 329<306.822 487.674>
VStem: 156 125<932 1197.75>
LayerCount: 3
Fore
SplineSet
509 1429 m 1,0,-1
 509 1385 l 1,1,2
 281 1285 281 1285 281 1084 c 0,3,4
 281 1056 281 1056 305 1049 c 1,5,6
 364 1074 364 1074 397 1071 c 0,7,8
 467 1071 467 1071 507 1020.5 c 128,-1,9
 547 970 547 970 547 915 c 0,10,11
 547 836 547 836 491.5 789 c 128,-1,12
 436 742 436 742 372 742 c 0,13,14
 265 742 265 742 210.5 820 c 128,-1,15
 156 898 156 898 156 1001 c 0,16,17
 156 1321 156 1321 509 1429 c 1,0,-1
EndSplineSet
Layer: 2
SplineSet
509 1429 m 1
 509 1385 l 1
 357 1318 281 1218 281 1084 c 3
 281 1065 289 1054 305 1049 c 1
 344 1066 375 1071 397 1071 c 3
 482 1071 547 996 547 915 c 3
 547 818 464 742 372 742 c 3
 231 742 156 863 156 1001 c 3
 156 1214 274 1357 509 1429 c 1
EndSplineSet
EndChar

StartChar: quoteright
Encoding: 308 8217 117
Width: 702
VWidth: 3198
Flags: W
HStem: 1126 303<261.717 420.794>
VStem: 422 125<974.926 1249>
LayerCount: 3
Fore
SplineSet
400 1126 m 0,0,1
 390 1126 390 1126 366 1116 c 0,2,3
 328 1101 328 1101 308 1101 c 0,4,5
 246 1101 246 1101 201 1148 c 128,-1,6
 156 1195 156 1195 156 1260 c 0,7,8
 156 1329 156 1329 208.5 1379 c 128,-1,9
 261 1429 261 1429 333 1429 c 0,10,11
 427 1429 427 1429 487 1358 c 128,-1,12
 547 1287 547 1287 547 1174 c 0,13,14
 547 851 547 851 195 742 c 1,15,-1
 195 790 l 1,16,17
 422 885 422 885 422 1090 c 0,18,19
 422 1126 422 1126 400 1126 c 0,0,1
EndSplineSet
Layer: 2
SplineSet
400 1126 m 3
 393 1126 385 1124 366 1116 c 0
 338 1105 324 1101 308 1101 c 3
 225 1101 156 1173 156 1260 c 3
 156 1352 237 1429 333 1429 c 3
 459 1429 547 1324 547 1174 c 3
 547 959 430 815 195 742 c 1
 195 790 l 1
 346 853 422 953 422 1090 c 3
 422 1114 415 1126 400 1126 c 3
EndSplineSet
EndChar

StartChar: quotedblleft
Encoding: 310 8220 118
Width: 1054
VWidth: 3198
Flags: W
HStem: 742 304<211.25 324.46 707.25 819.551>
VStem: 83 128<925.5 1189.07> 579 128<926 1189.3>
LayerCount: 3
Fore
SplineSet
793 742 m 0,0,1
 700 742 700 742 639.5 815 c 128,-1,2
 579 888 579 888 579 1001 c 0,3,4
 579 1302 579 1302 934 1429 c 1,5,-1
 934 1379 l 1,6,7
 830 1339 830 1339 768.5 1258.5 c 128,-1,8
 707 1178 707 1178 707 1081 c 0,9,10
 707 1046 707 1046 723 1046 c 1,11,12
 779 1078 779 1078 821 1078 c 0,13,14
 880 1078 880 1078 925 1029 c 128,-1,15
 970 980 970 980 970 915 c 0,16,17
 970 844 970 844 918 793 c 128,-1,18
 866 742 866 742 793 742 c 0,0,1
473 915 m 0,19,20
 473 845 473 845 420.5 793.5 c 128,-1,21
 368 742 368 742 297 742 c 0,22,23
 204 742 204 742 143.5 815 c 128,-1,24
 83 888 83 888 83 1001 c 0,25,26
 83 1302 83 1302 439 1429 c 1,27,-1
 439 1379 l 1,28,29
 335 1339 335 1339 273 1258.5 c 128,-1,30
 211 1178 211 1178 211 1081 c 0,31,32
 211 1046 211 1046 226 1046 c 1,33,34
 281 1078 281 1078 326 1078 c 0,35,36
 385 1078 385 1078 429 1029 c 128,-1,37
 473 980 473 980 473 915 c 0,19,20
EndSplineSet
Layer: 2
SplineSet
793 742 m 3
 669 742 579 851 579 1001 c 3
 579 1202 697 1344 934 1429 c 1
 934 1379 l 1
 795 1326 707 1210 707 1081 c 3
 707 1057 712 1046 723 1046 c 1
 765 1070 790 1078 821 1078 c 3
 900 1078 970 1001 970 915 c 3
 970 821 890 742 793 742 c 3
473 915 m 3
 473 822 392 742 297 742 c 3
 173 742 83 850 83 1001 c 3
 83 1201 201 1344 439 1429 c 1
 439 1379 l 1
 300 1326 211 1210 211 1081 c 3
 211 1058 216 1046 226 1046 c 1
 269 1071 293 1078 326 1078 c 3
 404 1078 473 1002 473 915 c 3
EndSplineSet
EndChar

StartChar: quotedblright
Encoding: 311 8221 119
Width: 1054
VWidth: 3198
Flags: W
HStem: 1126 303<235.494 344.21 733.401 840.349>
VStem: 348 128<981.959 1243> 845 128<982.992 1242.5>
LayerCount: 3
Fore
SplineSet
86 1257 m 0,0,1
 86 1329 86 1329 138 1379 c 128,-1,2
 190 1429 190 1429 265 1429 c 0,3,4
 356 1429 356 1429 416 1354.5 c 128,-1,5
 476 1280 476 1280 476 1168 c 0,6,7
 476 872.5 476 872.5 122 742 c 1,8,-1
 122 793 l 1,9,10
 222 829 222 829 285 911.5 c 128,-1,11
 348 994 348 994 348 1090 c 0,12,13
 348 1126 348 1126 333 1126 c 1,14,15
 276 1093 276 1093 234 1093 c 0,16,17
 174 1093 174 1093 130 1141.5 c 128,-1,18
 86 1190 86 1190 86 1257 c 0,0,1
761 1429 m 0,19,20
 852 1429 852 1429 912.5 1354.5 c 128,-1,21
 973 1280 973 1280 973 1168 c 0,22,23
 973 873 973 873 617 742 c 1,24,-1
 617 793 l 1,25,26
 719 832 719 832 782 914 c 128,-1,27
 845 996 845 996 845 1090 c 0,28,29
 845 1126 845 1126 831 1126 c 1,30,31
 770 1093 770 1093 732 1093 c 0,32,33
 670 1093 670 1093 626.5 1141 c 128,-1,34
 583 1189 583 1189 583 1257 c 0,35,36
 583 1329 583 1329 634.5 1379 c 128,-1,37
 686 1429 686 1429 761 1429 c 0,19,20
EndSplineSet
Layer: 2
SplineSet
86 1257 m 3
 86 1353 165 1429 265 1429 c 3
 386 1429 476 1318 476 1168 c 3
 476 971 358 829 122 742 c 1
 122 793 l 1
 256 841 348 962 348 1090 c 3
 348 1114 343 1126 333 1126 c 1
 290 1101 266 1093 234 1093 c 3
 154 1093 86 1168 86 1257 c 3
761 1429 m 3
 882 1429 973 1317 973 1168 c 3
 973 971 854 829 617 742 c 1
 617 793 l 1
 753 845 845 965 845 1090 c 3
 845 1114 840 1126 831 1126 c 1
 785 1101 762 1093 732 1093 c 3
 649 1093 583 1166 583 1257 c 3
 583 1353 661 1429 761 1429 c 3
EndSplineSet
EndChar

StartChar: bullet
Encoding: 315 8226 120
Width: 1307
VWidth: 3198
Flags: W
HStem: 400 720<479.872 828.896>
VStem: 294 720<585.547 934.217>
LayerCount: 3
Fore
SplineSet
294 761 m 256,0,1
 294 916 294 916 397 1018 c 128,-1,2
 500 1120 500 1120 656 1120 c 0,3,4
 808 1120 808 1120 911 1016.5 c 128,-1,5
 1014 913 1014 913 1014 761 c 0,6,7
 1014 605 1014 605 911.5 502.5 c 128,-1,8
 809 400 809 400 653 400 c 0,9,10
 499 400 499 400 396.5 503 c 128,-1,11
 294 606 294 606 294 761 c 256,0,1
EndSplineSet
Layer: 2
SplineSet
294 761 m 259
 294 967 448 1120 656 1120 c 3
 859 1120 1014 964 1014 761 c 259
 1014 553 861 400 653 400 c 259
 448 400 294 554 294 761 c 259
EndSplineSet
EndChar

StartChar: endash
Encoding: 305 8211 121
Width: 1022
VWidth: 3198
Flags: W
HStem: 422 240<0 1023>
LayerCount: 3
Fore
SplineSet
0 662 m 1,0,-1
 1023 662 l 1,1,-1
 1023 422 l 1,2,-1
 0 422 l 1,3,-1
 0 662 l 1,0,-1
EndSplineSet
Layer: 2
SplineSet
0 662 m 1
 1023 662 l 1
 1023 422 l 1
 0 422 l 1
 0 662 l 1
EndSplineSet
EndChar

StartChar: emdash
Encoding: 306 8212 122
Width: 2045
VWidth: 3198
Flags: W
HStem: 422 240<0 2047>
LayerCount: 3
Fore
SplineSet
0 662 m 1,0,-1
 2047 662 l 1,1,-1
 2047 422 l 1,2,-1
 0 422 l 1,3,-1
 0 662 l 1,0,-1
EndSplineSet
Layer: 2
SplineSet
0 662 m 1
 2047 662 l 1
 2047 422 l 1
 0 422 l 1
 0 662 l 1
EndSplineSet
EndChar

StartChar: uni0E01
Encoding: 213 3585 132
Width: 1460
VWidth: 3198
Flags: W
HStem: 0 21G<106 428 998 1201.99> 845 111<211 269> 1129 116<410.758 851.915>
VStem: 106 322<0 742.515> 998 329<159 985.66>
LayerCount: 3
Fore
SplineSet
19 995 m 1,0,1
 147 1113 147 1113 323 1179 c 128,-1,2
 499 1245 499 1245 687 1245 c 0,3,4
 988 1245 988 1245 1157.5 1131 c 128,-1,5
 1327 1017 1327 1017 1327 815 c 2,6,-1
 1327 159 l 1,7,-1
 1184 0 l 1,8,-1
 998 0 l 1,9,-1
 998 828 l 2,10,11
 998 960 998 960 909.5 1044.5 c 128,-1,12
 821 1129 821 1129 684 1129 c 0,13,14
 532 1129 532 1129 418 1087.5 c 128,-1,15
 304 1046 304 1046 211 956 c 1,16,-1
 583 956 l 1,17,-1
 583 870 l 1,18,19
 490 821 490 821 459 778 c 128,-1,20
 428 735 428 735 428 656 c 2,21,-1
 428 0 l 1,22,-1
 106 0 l 1,23,-1
 106 656 l 2,24,25
 106 724 106 724 269 845 c 1,26,-1
 19 845 l 1,27,-1
 19 995 l 1,0,1
EndSplineSet
Layer: 2
SplineSet
19 995 m 1
 190 1153 437 1245 687 1245 c 3
 1088 1245 1327 1084 1327 815 c 2
 1327 159 l 1
 1184 0 l 1
 998 0 l 1
 998 828 l 2
 998 1004 867 1129 684 1129 c 3
 481 1129 335 1076 211 956 c 1
 583 956 l 1
 583 870 l 1
 459 805 428 761 428 656 c 2
 428 0 l 1
 106 0 l 1
 106 656 l 2
 106 702 157 762 269 845 c 1
 19 845 l 1
 19 995 l 1
EndSplineSet
EndChar

StartChar: uni0E02
Encoding: 214 3586 133
Width: 1450
VWidth: 3198
Flags: W
HStem: 0 128<186 317 647 982> 701 67<229.086 348.537> 992 76<235.462 348.946> 1151 87<285.458 563.313>
VStem: 16 179<788.699 976.15> 317 330<128 529.293> 372 162<777.534 977.955> 640 278<819.332 1065.2> 982 330<132.313 1074>
LayerCount: 3
Fore
SplineSet
640 943 m 0,0,1
 640 1037 640 1037 584 1094 c 128,-1,2
 528 1151 528 1151 436 1151 c 0,3,4
 299 1151 299 1151 234 1056 c 1,5,6
 274.5 1068 274.5 1068 330 1068 c 0,7,8
 419 1068 419 1068 476.5 1020 c 128,-1,9
 534 972 534 972 534 898 c 0,10,11
 534 701 534 701 281 701 c 0,12,13
 159 701 159 701 87.5 755.5 c 128,-1,14
 16 810 16 810 16 903 c 0,15,16
 16 1049 16 1049 134 1143.5 c 128,-1,17
 252 1238 252 1238 436 1238 c 0,18,19
 645 1238 645 1238 781.5 1152 c 128,-1,20
 918 1066 918 1066 918 934 c 0,21,22
 918 890 918 890 899.5 857 c 128,-1,23
 881 824 881 824 808 736 c 0,24,25
 704 612 704 612 675.5 562 c 128,-1,26
 647 512 647 512 647 454 c 2,27,-1
 647 128 l 1,28,-1
 982 128 l 1,29,-1
 982 1074 l 1,30,-1
 1135 1224 l 1,31,-1
 1312 1224 l 1,32,-1
 1312 217 l 2,33,34
 1312 0 1312 0 1056 0 c 2,35,-1
 186 0 l 1,36,-1
 186 128 l 1,37,-1
 317 128 l 1,38,-1
 317 415 l 2,39,40
 317 465 317 465 339.5 501 c 128,-1,41
 362 537 362 537 453 635 c 0,42,43
 575 766 575 766 607.5 820 c 128,-1,44
 640 874 640 874 640 943 c 0,0,1
195 892 m 0,45,46
 195 840 195 840 224.5 804 c 128,-1,47
 254 768 254 768 297 768 c 0,48,49
 331 768 331 768 351.5 802 c 128,-1,50
 372 836 372 836 372 892 c 0,51,52
 372 932 372 932 345.5 962 c 128,-1,53
 319 992 319 992 284 992 c 0,54,55
 247 992 247 992 221 963 c 128,-1,56
 195 934 195 934 195 892 c 0,45,46
EndSplineSet
Layer: 2
SplineSet
640 943 m 3xf980
 640 1068 558 1151 436 1151 c 3
 346 1151 277 1119 234 1056 c 1
 261 1064 293 1068 330 1068 c 3
 449 1068 534 997 534 898 c 3
 534 767 449 701 281 701 c 3
 119 701 16 779 16 903 c 3
 16 1098 191 1238 436 1238 c 3
 715 1238 918 1110 918 934 c 3xfb80
 918 875 906 853 808 736 c 0
 670 571 647 531 647 454 c 2
 647 128 l 1
 982 128 l 1
 982 1074 l 1
 1135 1224 l 1
 1312 1224 l 1
 1312 217 l 2
 1312 72 1227 0 1056 0 c 2
 186 0 l 1
 186 128 l 1
 317 128 l 1
 317 415 l 2xfc80
 317 482 332 505 453 635 c 0
 615 810 640 851 640 943 c 3xf980
195 892 m 3
 195 822 240 768 297 768 c 3
 342 768 372 818 372 892 c 259
 372 945 331 992 284 992 c 3
 234 992 195 948 195 892 c 3
EndSplineSet
EndChar

StartChar: uni0E03
Encoding: 215 3587 134
Width: 1325
VWidth: 3198
Flags: W
HStem: 0 128<150 284 611 925> 656 67<222.193 332.768> 925 76<218.715 344.527> 1040 191<275.136 354.755 469.776 567.034>
VStem: 9 164<940 1120.99> 284 327<128 510.619> 355 121<731.36 920.156> 668 208<872.259 1112.93> 925 323<129.504 1129>
LayerCount: 3
Fore
SplineSet
406 1040 m 0,0,1
 369 1040 369 1040 328 1057.5 c 128,-1,2
 287 1075 287 1075 205 1126 c 1,3,4
 173 1084 173 1084 173 1010 c 0,5,6
 173 976 173 976 180 940 c 1,7,8
 189 968 189 968 226.5 984.5 c 128,-1,9
 264 1001 264 1001 317 1001 c 0,10,11
 391 1001 391 1001 433.5 960 c 128,-1,12
 476 919 476 919 476 848 c 0,13,14
 476 757 476 757 420.5 706.5 c 128,-1,15
 365 656 365 656 265 656 c 0,16,17
 9 656 9 656 9 962 c 0,18,19
 9 1088 9 1088 63.5 1159.5 c 128,-1,20
 118 1231 118 1231 214 1231 c 0,21,22
 307 1231 307 1231 415 1142 c 1,23,24
 477 1195 477 1195 522.5 1216.5 c 128,-1,25
 568 1238 568 1238 617 1238 c 0,26,27
 723 1238 723 1238 799.5 1166 c 128,-1,28
 876 1094 876 1094 876 995 c 0,29,30
 876 922 876 922 848 863.5 c 128,-1,31
 820 805 820 805 722 673 c 0,32,33
 649 576 649 576 630 536.5 c 128,-1,34
 611 497 611 497 611 445 c 2,35,-1
 611 128 l 1,36,-1
 925 128 l 1,37,-1
 925 1129 l 1,38,-1
 1101 1224 l 1,39,-1
 1248 1224 l 1,40,-1
 1248 217 l 2,41,42
 1248 0 1248 0 992 0 c 2,43,-1
 150 0 l 1,44,-1
 150 128 l 1,45,-1
 284 128 l 1,46,-1
 284 397 l 2,47,48
 284 440 284 440 308 478.5 c 128,-1,49
 332 517 332 517 426 624 c 0,50,51
 577 796 577 796 622.5 870 c 128,-1,52
 668 944 668 944 668 1017 c 0,53,54
 668 1052 668 1052 658 1071.5 c 128,-1,55
 648 1091 648 1091 614 1123 c 1,56,57
 531 1040 531 1040 406 1040 c 0,0,1
284 925 m 0,58,59
 252 925 252 925 226.5 898 c 128,-1,60
 201 871 201 871 201 836 c 0,61,62
 201 786 201 786 222.5 754.5 c 128,-1,63
 244 723 244 723 278 723 c 0,64,65
 313 723 313 723 334 754.5 c 128,-1,66
 355 786 355 786 355 839 c 0,67,68
 355 880 355 880 336.5 902.5 c 128,-1,69
 318 925 318 925 284 925 c 0,58,59
EndSplineSet
Layer: 2
SplineSet
406 1040 m 3xfd80
 356 1040 314 1058 205 1126 c 1
 183 1097 173 1061 173 1010 c 3
 173 991 175 966 180 940 c 1
 192 977 246 1001 317 1001 c 3
 416 1001 476 943 476 848 c 3xfb80
 476 727 398 656 265 656 c 3
 94 656 9 758 9 962 c 3
 9 1130 86 1231 214 1231 c 259
 281 1231 340 1204 415 1142 c 1
 497 1212 551 1238 617 1238 c 3
 758 1238 876 1127 876 995 c 3
 876 898 853 849 722 673 c 0
 625 543 611 514 611 445 c 2
 611 128 l 1
 925 128 l 1
 925 1129 l 1
 1101 1224 l 1
 1248 1224 l 1
 1248 217 l 2
 1248 72 1163 0 992 0 c 2
 150 0 l 1
 150 128 l 1
 284 128 l 1
 284 397 l 2
 284 455 301 482 426 624 c 0
 627 853 668 919 668 1017 c 3
 668 1064 659 1081 614 1123 c 1
 559 1068 489 1040 406 1040 c 3xfd80
284 925 m 3xfd80
 241 925 201 883 201 836 c 259
 201 769 233 723 278 723 c 259
 325 723 355 769 355 839 c 259xfb80
 355 893 329 925 284 925 c 3xfd80
EndSplineSet
EndChar

StartChar: uni0E04
Encoding: 216 3588 135
Width: 1386
VWidth: 3198
Flags: W
HStem: 0 21G<943 1156.09> 454 93<429.036 565.631> 803 95<410.477 558.486> 1135 100<405.471 809.18>
VStem: 36 159<664.02 953.981> 159 269<3 459.893> 583 146<561.605 781.324> 943 327<128 979.544>
LayerCount: 3
Fore
SplineSet
486 454 m 0,0,1
 463 454 463 454 428 461 c 1,2,-1
 428 3 l 1,3,-1
 159 3 l 1,4,-1
 159 364 l 2,5,6
 159 451 159 451 74 622 c 0,7,8
 36 700 36 700 36 790 c 0,9,10
 36 998 36 998 197.5 1116.5 c 128,-1,11
 359 1235 359 1235 640 1235 c 0,12,13
 920 1235 920 1235 1095 1120 c 128,-1,14
 1270 1005 1270 1005 1270 821 c 2,15,-1
 1270 128 l 1,16,17
 1270 128 1270 128 1135 0 c 1,18,-1
 943 0 l 1,19,-1
 943 831 l 2,20,21
 943 974 943 974 862.5 1054.5 c 128,-1,22
 782 1135 782 1135 637 1135 c 0,23,24
 441 1135 441 1135 318 1042.5 c 128,-1,25
 195 950 195 950 195 803 c 0,26,27
 195 735 195 735 230 662 c 1,28,29
 253 766 253 766 325.5 832 c 128,-1,30
 398 898 398 898 489 898 c 0,31,32
 592 898 592 898 660.5 838 c 128,-1,33
 729 778 729 778 729 687 c 0,34,35
 729 578 729 578 664 516 c 128,-1,36
 599 454 599 454 486 454 c 0,0,1
486 803 m 0,37,38
 441 803 441 803 412.5 764.5 c 128,-1,39
 384 726 384 726 384 665 c 0,40,41
 384 616 384 616 413.5 581.5 c 128,-1,42
 443 547 443 547 486 547 c 0,43,44
 537 547 537 547 560 579.5 c 128,-1,45
 583 612 583 612 583 684 c 0,46,47
 583 732 583 732 554 767.5 c 128,-1,48
 525 803 525 803 486 803 c 0,37,38
EndSplineSet
Layer: 2
SplineSet
486 454 m 3xfb
 471 454 458 455 428 461 c 1
 428 3 l 1
 159 3 l 1
 159 364 l 2xf7
 159 424 132 505 74 622 c 0
 49 673 36 729 36 790 c 3
 36 1067 265 1235 640 1235 c 3
 1013 1235 1270 1066 1270 821 c 2
 1270 128 l 1
 1135 0 l 1
 943 0 l 1
 943 831 l 2
 943 1022 830 1135 637 1135 c 3
 376 1135 195 999 195 803 c 3
 195 757 206 712 230 662 c 1
 260 800 367 898 489 898 c 3
 627 898 729 808 729 687 c 0
 729 542 637 454 486 454 c 3xfb
486 803 m 3
 426 803 384 746 384 665 c 3
 384 600 429 547 486 547 c 3
 554 547 583 588 583 684 c 3
 583 748 538 803 486 803 c 3
EndSplineSet
EndChar

StartChar: uni0E05
Encoding: 217 3589 136
Width: 1407
VWidth: 3198
Flags: W
HStem: 0 21G<156 425 970 1168.44> 412 91<428.027 588.057> 757 97<431.778 582.448> 982 119<557.536 733.363> 1120 118<266.002 449.312>
VStem: 39 147<620.408 1018.23> 156 269<0 424.359> 250 156<579.618 732.586> 604 138<515.162 738.348> 970 325<128 1032.16>
LayerCount: 3
Fore
SplineSet
742 634 m 256,0,1
 742 538 742 538 674 475 c 128,-1,2
 606 412 606 412 503 412 c 0,3,4
 457 412 457 412 425 428 c 1,5,-1
 425 0 l 1,6,-1
 156 0 l 1,7,-1
 156 333 l 2,8,9
 156 417 156 417 74 598 c 0,10,11
 39 676 39 676 39 764 c 0,12,13
 39 991 39 991 127.5 1114.5 c 128,-1,14
 216 1238 216 1238 378 1238 c 0,15,16
 454 1238 454 1238 530 1169 c 0,17,18
 606 1101 606 1101 640 1101 c 0,19,20
 679 1101 679 1101 766 1170 c 0,21,22
 856 1242 856 1242 918 1242 c 0,23,24
 1072 1242 1072 1242 1183.5 1128.5 c 128,-1,25
 1295 1015 1295 1015 1295 860 c 2,26,-1
 1295 128 l 1,27,-1
 1145 0 l 1,28,-1
 970 0 l 1,29,-1
 970 879 l 2,30,31
 970 1087 970 1087 892 1087 c 0,32,33
 841 1087 841 1087 772 1035 c 0,34,35
 700 982 700 982 643 982 c 0,36,37
 564 982 564 982 482 1050 c 0,38,39
 398 1120 398 1120 351 1120 c 0,40,41
 283 1120 283 1120 234.5 1029 c 128,-1,42
 186 938 186 938 186 809 c 0,43,44
 186 710 186 710 250 579 c 1,45,46
 250 702 250 702 321.5 778 c 128,-1,47
 393 854 393 854 509 854 c 0,48,49
 614 854 614 854 678 793.5 c 128,-1,50
 742 733 742 733 742 634 c 256,0,1
406 620 m 0,51,52
 406 571 406 571 436 537 c 128,-1,53
 466 503 466 503 509 503 c 0,54,55
 560 503 560 503 582 534.5 c 128,-1,56
 604 566 604 566 604 640 c 0,57,58
 604 687 604 687 576.5 722 c 128,-1,59
 549 757 549 757 512 757 c 0,60,61
 463 757 463 757 434.5 720.5 c 128,-1,62
 406 684 406 684 406 620 c 0,51,52
EndSplineSet
Layer: 2
SplineSet
742 634 m 259xfdc0
 742 506 641 412 503 412 c 3
 473 412 447 417 425 428 c 1
 425 0 l 1
 156 0 l 1
 156 333 l 2xfac0
 156 393 132 470 74 598 c 0
 51 649 39 705 39 764 c 3
 39 1067 162 1238 378 1238 c 3
 428 1238 479 1215 530 1169 c 0
 580 1124 617 1101 640 1101 c 3
 667 1101 707 1123 766 1170 c 0
 826 1218 877 1242 918 1242 c 3
 1123 1242 1295 1067 1295 860 c 2
 1295 128 l 1
 1145 0 l 1
 970 0 l 1
 970 879 l 2
 970 1018 944 1087 892 1087 c 3
 858 1087 817 1069 772 1035 c 0
 723 999 681 982 643 982 c 3
 588 982 539 1003 482 1050 c 0
 427 1096 382 1120 351 1120 c 3
 260 1120 186 981 186 809 c 3
 186 737 204 673 250 579 c 1
 250 743 355 854 509 854 c 3
 649 854 742 766 742 634 c 259xfdc0
406 620 m 3xf9c0
 406 555 452 503 509 503 c 3
 577 503 604 542 604 640 c 3
 604 702 561 757 512 757 c 3
 446 757 406 705 406 620 c 3xf9c0
EndSplineSet
EndChar

StartChar: uni0E06
Encoding: 218 3590 137
Width: 1502
VWidth: 3198
Flags: W
HStem: 0 21G<283.5 479.5 1057.5 1311> 678 70<215.232 326.435> 950 67<215.755 334.917> 1034 201<291.17 378.364 516.348 575.984> 1123 108<577.613 706.101>
VStem: 25 170<760.259 1112.03> 92 180<118.044 353.714> 348 122<757.041 945.176> 364 289<83.7999 311 500.875 631.882> 711 223<909.098 1120.58> 1065 326<244 1149.93>
LayerCount: 3
Fore
SplineSet
1065 1113 m 1,0,1
 1104 1151 1104 1151 1212 1221 c 1,2,-1
 1391 1221 l 1,3,-1
 1391 103 l 2,4,5
 1391 65 1391 65 1357.5 32.5 c 128,-1,6
 1324 0 1324 0 1285 0 c 2,7,-1
 1117 0 l 1,8,9
 969 113 969 113 653 311 c 1,10,-1
 653 262 l 2,11,12
 653 111 653 111 592.5 52.5 c 128,-1,13
 532 -6 532 -6 375 -6 c 0,14,15
 238 -6 238 -6 165 58.5 c 128,-1,16
 92 123 92 123 92 244 c 0,17,18
 92 335 92 335 170 411.5 c 128,-1,19
 248 488 248 488 364 512 c 1,20,-1
 364 547 l 2,21,22
 364 574 364 574 380 598 c 128,-1,23
 396 622 396 622 444 669 c 0,24,25
 608 826 608 826 659.5 898.5 c 128,-1,26
 711 971 711 971 711 1046 c 0,27,28
 711 1123 711 1123 675 1123 c 0,29,30
 656 1123 656 1123 576 1078 c 0,31,32
 497 1034 497 1034 431 1034 c 0,33,34
 355 1034 355 1034 226 1117 c 1,35,36
 211 1094 211 1094 206 1072 c 128,-1,37
 201 1050 201 1050 201 1004 c 1,38,39
 234 1017 234 1017 287 1017 c 0,40,41
 374 1017 374 1017 422 974.5 c 128,-1,42
 470 932 470 932 470 854 c 0,43,44
 470 773 470 773 412 725.5 c 128,-1,45
 354 678 354 678 256 678 c 0,46,47
 148 678 148 678 86.5 740.5 c 128,-1,48
 25 803 25 803 25 912 c 0,49,50
 25 1090 25 1090 75.5 1162.5 c 128,-1,51
 126 1235 126 1235 250 1235 c 0,52,53
 314.5 1235 314.5 1235 448 1148 c 1,54,55
 557 1231 557 1231 672 1231 c 0,56,57
 934 1231 934 1231 934 1004 c 0,58,59
 934 949 934 949 902 899.5 c 128,-1,60
 870 850 870 850 766 743 c 0,61,62
 694 669 694 669 678 641 c 128,-1,63
 662 613 662 613 662 562 c 2,64,-1
 662 489 l 1,65,66
 870 366 870 366 1065 244 c 1,67,-1
 1065 1113 l 1,0,1
278 950 m 0,68,69
 245 950 245 950 220 922.5 c 128,-1,70
 195 895 195 895 195 860 c 0,71,72
 195 808 195 808 216 778 c 128,-1,73
 237 748 237 748 272 748 c 128,-1,74
 307 748 307 748 327.5 779.5 c 128,-1,75
 348 811 348 811 348 864 c 0,76,77
 348 905 348 905 330 927.5 c 128,-1,78
 312 950 312 950 278 950 c 0,68,69
364 390 m 1,79,80
 324 374 324 374 298 330 c 128,-1,81
 272 286 272 286 272 234 c 0,82,83
 272 183 272 183 298.5 140 c 128,-1,84
 325 97 325 97 364 83 c 1,85,-1
 364 390 l 1,79,80
EndSplineSet
Layer: 2
SplineSet
1065 1113 m 1xed60
 1092 1139 1143 1176 1212 1221 c 1
 1391 1221 l 1
 1391 103 l 2
 1391 53 1337 0 1285 0 c 2
 1117 0 l 1
 998 91 883 167 653 311 c 1
 653 262 l 2
 653 61 584 -6 375 -6 c 3
 192 -6 92 82 92 244 c 3
 92 365 209 480 364 512 c 1
 364 547 l 2
 364 583 380 607 444 669 c 0
 663 878 711 946 711 1046 c 3
 711 1097 699 1123 675 1123 c 3xeae0
 666 1123 617 1101 576 1078 c 0
 524 1049 475 1034 431 1034 c 3
 380 1034 313 1061 226 1117 c 1
 206 1087 201 1065 201 1004 c 1
 224 1013 252 1017 287 1017 c 3
 403 1017 470 958 470 854 c 3
 470 746 387 678 256 678 c 3
 112 678 25 766 25 912 c 3
 25 1149 85 1235 250 1235 c 3xf560
 293 1235 359 1206 448 1148 c 1
 520 1203 595 1231 672 1231 c 3
 845 1231 934 1154 934 1004 c 3
 934 930 905 885 766 743 c 0
 670 644 662 630 662 562 c 2
 662 489 l 1
 823 394 939 323 1065 244 c 1
 1065 1113 l 1xed60
278 950 m 3
 234 950 195 907 195 860 c 259xe560
 195 791 225 748 272 748 c 259
 318 748 348 793 348 864 c 259xe360
 348 919 323 950 278 950 c 3
364 390 m 1xe2e0
 311 369 272 303 272 234 c 3
 272 166 312 101 364 83 c 1
 364 390 l 1xe2e0
EndSplineSet
EndChar

StartChar: uni0E07
Encoding: 219 3591 138
Width: 1032
VWidth: 3198
Flags: W
HStem: 0 21G<557.924 822.5> 768 86<508.876 600.902> 1157 81<513.676 649.388>
VStem: 294 182<884.219 1127.26> 601 327<256 768> 678 250<873.975 1127.13>
LayerCount: 3
Fore
SplineSet
294 1010 m 0,0,1
 294 1120 294 1120 371 1179 c 128,-1,2
 448 1238 448 1238 592 1238 c 0,3,4
 746 1238 746 1238 837 1172 c 128,-1,5
 928 1106 928 1106 928 995 c 2,6,-1
 928 125 l 2,7,8
 928 93 928 93 881 46.5 c 128,-1,9
 834 0 834 0 800 0 c 2,10,-1
 576 0 l 1,11,-1
 3 634 l 1,12,-1
 244 634 l 1,13,-1
 601 256 l 1,14,-1
 601 768 l 1,15,16
 454 768 454 768 374 831 c 128,-1,17
 294 894 294 894 294 1010 c 0,0,1
589 854 m 0,18,19
 628 854 628 854 653 899 c 128,-1,20
 678 944 678 944 678 1014 c 0,21,22
 678 1075 678 1075 652.5 1116 c 128,-1,23
 627 1157 627 1157 589 1157 c 0,24,25
 542 1157 542 1157 509 1115 c 128,-1,26
 476 1073 476 1073 476 1014 c 0,27,28
 476 941 476 941 507 897.5 c 128,-1,29
 538 854 538 854 589 854 c 0,18,19
EndSplineSet
Layer: 2
SplineSet
294 1010 m 3xf8
 294 1157 400 1238 592 1238 c 259
 797 1238 928 1143 928 995 c 2
 928 125 l 2xf4
 928 82 845 0 800 0 c 2
 576 0 l 1
 3 634 l 1
 244 634 l 1
 601 256 l 1
 601 768 l 1
 405 768 294 855 294 1010 c 3xf8
589 854 m 3
 641 854 678 920 678 1014 c 3
 678 1096 640 1157 589 1157 c 3
 527 1157 476 1093 476 1014 c 3
 476 917 521 854 589 854 c 3
EndSplineSet
EndChar

StartChar: uni0E08
Encoding: 220 3592 139
Width: 1194
VWidth: 3198
Flags: W
HStem: 0 21G<567.976 1050.63> 403 95<306.018 438.629> 757 85<309.435 433.058> 1142 96<376.361 724.725>
VStem: 25 73<778 846.07> 119 162<519.342 736.474>
LayerCount: 3
Fore
SplineSet
831 825 m 2,0,1
 831 995 831 995 762 1068.5 c 128,-1,2
 693 1142 693 1142 534 1142 c 0,3,4
 409 1142 409 1142 287 1040.5 c 128,-1,5
 165 939 165 939 98 778 c 1,6,-1
 25 778 l 1,7,-1
 25 1049 l 1,8,9
 116 1146 116 1146 240 1192 c 128,-1,10
 364 1238 364 1238 534 1238 c 0,11,12
 838 1238 838 1238 975.5 1130.5 c 128,-1,13
 1113 1023 1113 1023 1113 787 c 1,14,-1
 1049 0 l 1,15,-1
 573 0 l 1,16,-1
 467 422 l 1,17,18
 418 403 418 403 390 403 c 0,19,20
 259 403 259 403 189 457.5 c 128,-1,21
 119 512 119 512 119 614 c 0,22,23
 119 714 119 714 190 778 c 128,-1,24
 261 842 261 842 372 842 c 0,25,26
 448 842 448 842 496 827 c 128,-1,27
 544 812 544 812 582 769.5 c 128,-1,28
 620 727 620 727 644.5 659.5 c 128,-1,29
 669 592 669 592 693 479 c 2,30,-1
 764 150 l 1,31,-1
 790 150 l 1,32,-1
 831 784 l 1,33,-1
 831 825 l 2,0,1
458 623 m 0,34,35
 458 679 458 679 433 718 c 128,-1,36
 408 757 408 757 372 757 c 0,37,38
 335 757 335 757 308 717 c 128,-1,39
 281 677 281 677 281 623 c 0,40,41
 281 573 281 573 310 535.5 c 128,-1,42
 339 498 339 498 378 498 c 0,43,44
 411 498 411 498 434.5 535 c 128,-1,45
 458 572 458 572 458 623 c 0,34,35
EndSplineSet
Layer: 2
SplineSet
831 825 m 2
 831 1051 746 1142 534 1142 c 3
 367 1142 188 993 98 778 c 1
 25 778 l 1
 25 1049 l 1
 146 1178 307 1238 534 1238 c 3
 939 1238 1113 1102 1113 787 c 1
 1049 0 l 1
 573 0 l 1
 467 422 l 1
 436 410 407 403 390 403 c 3
 215 403 119 478 119 614 c 3
 119 748 224 842 372 842 c 3
 568 842 630 771 693 479 c 2
 764 150 l 1
 790 150 l 1
 831 784 l 1
 831 825 l 2
458 623 m 3
 458 698 420 757 372 757 c 3
 323 757 281 695 281 623 c 3
 281 556 326 498 378 498 c 3
 422 498 458 555 458 623 c 3
EndSplineSet
EndChar

StartChar: uni0E09
Encoding: 221 3593 140
Width: 1393
VWidth: 3198
Flags: W
HStem: -9 86<1032.44 1145.78> 369 92<231.538 319.633> 693 85<231.447 366.585> 1135 100<474.018 843.489>
VStem: 45 166<478.449 674.819> 381 245<472.754 671.974> 825 189<87.3047 221.965> 956 323<418.755 1010.94> 1160 183<83.1964 290.14>
LayerCount: 3
Fore
SplineSet
25 1040 m 1,0,1
 230 1156 230 1156 358 1195.5 c 128,-1,2
 486 1235 486 1235 653 1235 c 0,3,4
 985 1235 985 1235 1132 1134 c 128,-1,5
 1279 1033 1279 1033 1279 806 c 2,6,-1
 1279 515 l 2,7,8
 1279 484 1279 484 1258.5 451.5 c 128,-1,9
 1238 419 1238 419 1187 369 c 1,10,11
 1343 319 1343 319 1343 186 c 0,12,13
 1343 81 1343 81 1284 36 c 128,-1,14
 1225 -9 1225 -9 1087 -9 c 0,15,16
 959 -9 959 -9 892 35 c 128,-1,17
 825 79 825 79 825 162 c 0,18,19
 825 186 825 186 845 223 c 1,20,21
 771 189 771 189 719.5 144 c 128,-1,22
 668 99 668 99 589 0 c 1,23,-1
 320 0 l 1,24,-1
 320 375 l 1,25,26
 291 369 291 369 265 369 c 0,27,28
 161 369 161 369 103 417.5 c 128,-1,29
 45 466 45 466 45 553 c 0,30,31
 45 661 45 661 117.5 719.5 c 128,-1,32
 190 778 190 778 323 778 c 0,33,34
 491 778 491 778 558.5 704.5 c 128,-1,35
 626 631 626 631 626 448 c 2,36,-1
 626 247 l 1,37,38
 719 303 719 303 811 344 c 0,39,40
 890 379 890 379 923 418.5 c 128,-1,41
 956 458 956 458 956 518 c 2,42,-1
 956 812 l 2,43,44
 956 980 956 980 886 1057.5 c 128,-1,45
 816 1135 816 1135 665 1135 c 0,46,47
 528 1135 528 1135 373.5 1040 c 128,-1,48
 219 945 219 945 95 784 c 1,49,-1
 25 784 l 1,50,-1
 25 1040 l 1,0,1
1160 201 m 0,51,52
 1160 239 1160 239 1134.5 272 c 128,-1,53
 1109 305 1109 305 1081 305 c 0,54,55
 1052 305 1052 305 1033 271 c 128,-1,56
 1014 237 1014 237 1014 186 c 0,57,58
 1014 144 1014 144 1035.5 110.5 c 128,-1,59
 1057 77 1057 77 1084 77 c 0,60,61
 1124 77 1124 77 1142 106.5 c 128,-1,62
 1160 136 1160 136 1160 201 c 0,51,52
211 570 m 0,63,64
 211 526 211 526 238 493.5 c 128,-1,65
 265 461 265 461 301 461 c 0,66,67
 335 461 335 461 358 496 c 128,-1,68
 381 531 381 531 381 583 c 0,69,70
 381 636 381 636 363 664.5 c 128,-1,71
 345 693 345 693 311 693 c 0,72,73
 264 693 264 693 237.5 660.5 c 128,-1,74
 211 628 211 628 211 570 c 0,63,64
EndSplineSet
Layer: 2
SplineSet
25 1040 m 1xfd
 298 1194 430 1235 653 1235 c 3
 1095 1235 1279 1109 1279 806 c 2
 1279 515 l 2xfd
 1279 473 1255 435 1187 369 c 1
 1290 336 1343 274 1343 186 c 3
 1343 46 1271 -9 1087 -9 c 3
 917 -9 825 51 825 162 c 3xfe80
 825 179 830 195 845 223 c 1
 747 178 694 132 589 0 c 1
 320 0 l 1
 320 375 l 1
 296 370 285 369 265 369 c 3
 127 369 45 437 45 553 c 3
 45 697 145 778 323 778 c 3
 547 778 626 692 626 448 c 2
 626 247 l 1
 701 292 744 314 811 344 c 0
 917 391 956 438 956 518 c 2
 956 812 l 2
 956 1036 866 1135 665 1135 c 3
 482 1135 260 999 95 784 c 1
 25 784 l 1
 25 1040 l 1xfd
1160 201 m 3xfe80
 1160 251 1119 305 1081 305 c 3
 1043 305 1014 254 1014 186 c 3
 1014 130 1048 77 1084 77 c 3
 1137 77 1160 115 1160 201 c 3xfe80
211 570 m 3
 211 512 253 461 301 461 c 3
 347 461 381 514 381 583 c 259
 381 653 356 693 311 693 c 3
 249 693 211 647 211 570 c 3
EndSplineSet
EndChar

StartChar: uni0E0A
Encoding: 222 3594 141
Width: 1346
VWidth: 3198
Flags: W
HStem: 0 128<170 305 617 925> 668 77<217.647 337.03> 946 103<223.823 346.039> 1145 86<289.872 551.133>
VStem: 25 170<759.039 994.555> 305 312<128 484.097> 355 151<756.493 936.589> 925 323<131.281 799.656>
LayerCount: 3
Fore
SplineSet
278 668 m 0,0,1
 156 668 156 668 90.5 731 c 128,-1,2
 25 794 25 794 25 912 c 0,3,4
 25 1056 25 1056 132 1143.5 c 128,-1,5
 239 1231 239 1231 415 1231 c 0,6,7
 593 1231 593 1231 712.5 1165 c 128,-1,8
 832 1099 832 1099 851 992 c 1,9,10
 908 1020 908 1020 953 1076 c 128,-1,11
 998 1132 998 1132 1078 1276 c 1,12,-1
 1376 1276 l 1,13,14
 1279 1135 1279 1135 1194 1058 c 128,-1,15
 1109 981 1109 981 1004 940 c 1,16,17
 1115 900 1115 900 1181.5 827 c 128,-1,18
 1248 754 1248 754 1248 672 c 2,19,-1
 1248 173 l 2,20,21
 1248 105 1248 105 1167.5 52.5 c 128,-1,22
 1087 0 1087 0 982 0 c 2,23,-1
 170 0 l 1,24,-1
 170 128 l 1,25,-1
 305 128 l 1,26,-1
 305 394 l 2,27,28
 305 432 305 432 369 510 c 0,29,30
 529 709 529 709 577.5 791.5 c 128,-1,31
 626 874 626 874 626 950 c 0,32,33
 626 1033 626 1033 569 1089 c 128,-1,34
 512 1145 512 1145 428 1145 c 0,35,36
 357 1145 357 1145 304 1113.5 c 128,-1,37
 251 1082 251 1082 223 1023 c 1,38,39
 270 1049 270 1049 290 1049 c 0,40,41
 396 1049 396 1049 451 1001.5 c 128,-1,42
 506 954 506 954 506 864 c 0,43,44
 506 668 506 668 278 668 c 0,0,1
925 672 m 2,45,46
 925 762 925 762 908 802.5 c 128,-1,47
 891 843 891 843 842 870 c 1,48,49
 818 810 818 810 775 743 c 0,50,51
 679 597 679 597 648 527.5 c 128,-1,52
 617 458 617 458 617 390 c 2,53,-1
 617 128 l 1,54,-1
 925 128 l 1,55,-1
 925 672 l 2,45,46
272 745 m 0,56,57
 309 745 309 745 332 774.5 c 128,-1,58
 355 804 355 804 355 851 c 0,59,60
 355 946 355 946 269 946 c 0,61,62
 236 946 236 946 215.5 919.5 c 128,-1,63
 195 893 195 893 195 851 c 0,64,65
 195 811 195 811 219 778 c 128,-1,66
 243 745 243 745 272 745 c 0,56,57
EndSplineSet
Layer: 2
SplineSet
278 668 m 3xfb
 115 668 25 754 25 912 c 3
 25 1104 180 1231 415 1231 c 3
 652 1231 826 1135 851 992 c 1
 928 1029 972 1085 1078 1276 c 1
 1376 1276 l 1
 1247 1088 1144 995 1004 940 c 1
 1152 887 1248 781 1248 672 c 2
 1248 173 l 2
 1248 82 1122 0 982 0 c 2
 170 0 l 1
 170 128 l 1
 305 128 l 1
 305 394 l 2xfd
 305 422 320 450 369 510 c 0
 583 775 626 849 626 950 c 3
 626 1060 540 1145 428 1145 c 3
 333 1145 260 1101 223 1023 c 1
 250 1038 279 1049 290 1049 c 3
 431 1049 506 984 506 864 c 3
 506 735 428 668 278 668 c 3xfb
925 672 m 2
 925 792 908 834 842 870 c 1
 826 829 805 789 775 743 c 0
 647 548 617 480 617 390 c 2
 617 128 l 1
 925 128 l 1
 925 672 l 2
272 745 m 3
 321 745 355 788 355 851 c 3xfb
 355 914 326 946 269 946 c 3
 225 946 195 907 195 851 c 3
 195 797 233 745 272 745 c 3
EndSplineSet
EndChar

StartChar: uni0E0B
Encoding: 223 3595 142
Width: 1425
VWidth: 3198
Flags: W
HStem: 0 128<211 369 684 995> 653 67<268.226 378.702> 921 74<263.752 389.786> 1017 221<347.853 395.342 540.681 605.042>
VStem: 28 186<946 1117.76> 369 315<128 518.056> 400 125<729.354 915.446> 704 205<989.689 1108.93> 995 323<129.68 808.379>
LayerCount: 3
Fore
SplineSet
672 1238 m 0,0,1
 909 1238 909 1238 909 989 c 1,2,3
 970 1018 970 1018 1022 1083 c 128,-1,4
 1074 1148 1074 1148 1142 1279 c 1,5,-1
 1449 1279 l 1,6,7
 1382 1171 1382 1171 1300.5 1099 c 128,-1,8
 1219 1027 1219 1027 1078 953 c 1,9,10
 1318 844 1318 844 1318 678 c 2,11,-1
 1318 162 l 2,12,13
 1318 113 1318 113 1234.5 56.5 c 128,-1,14
 1151 0 1151 0 1078 0 c 2,15,-1
 211 0 l 1,16,-1
 211 128 l 1,17,-1
 369 128 l 1,18,-1
 369 400 l 2,19,20
 369 437 369 437 391.5 479.5 c 128,-1,21
 414 522 414 522 503 654 c 0,22,23
 632 843 632 843 668 912 c 128,-1,24
 704 981 704 981 704 1040 c 0,25,26
 704 1078 704 1078 672 1110 c 1,27,28
 557 1017 557 1017 483 1017 c 0,29,30
 389 1017 389 1017 259 1123 c 1,31,32
 214 1096 214 1096 214 992 c 2,33,-1
 214 946 l 1,34,35
 278 995 278 995 355 995 c 0,36,37
 437 995 437 995 481 951.5 c 128,-1,38
 525 908 525 908 525 828 c 128,-1,39
 525 748 525 748 466 700.5 c 128,-1,40
 407 653 407 653 308 653 c 0,41,42
 189 653 189 653 108.5 738 c 128,-1,43
 28 823 28 823 28 950 c 0,44,45
 28 1078 28 1078 94.5 1152.5 c 128,-1,46
 161 1227 161 1227 275 1227 c 0,47,48
 370 1227 370 1227 476 1138 c 1,49,50
 575 1238 575 1238 672 1238 c 0,0,1
995 701 m 2,51,52
 995 767 995 767 967 820.5 c 128,-1,53
 939 874 939 874 892 898 c 1,54,55
 863 841 863 841 830 788 c 0,56,57
 684 553 684 553 684 419 c 2,58,-1
 684 128 l 1,59,-1
 995 128 l 1,60,-1
 995 701 l 2,51,52
330 921 m 0,61,62
 295 921 295 921 271 894.5 c 128,-1,63
 247 868 247 868 247 831 c 0,64,65
 247 779 247 779 267.5 749.5 c 128,-1,66
 288 720 288 720 323 720 c 128,-1,67
 358 720 358 720 379 751.5 c 128,-1,68
 400 783 400 783 400 836 c 0,69,70
 400 921 400 921 330 921 c 0,61,62
EndSplineSet
Layer: 2
SplineSet
672 1238 m 3xfb80
 829 1238 909 1154 909 989 c 1
 991 1028 1052 1104 1142 1279 c 1
 1449 1279 l 1
 1360 1135 1265 1052 1078 953 c 1
 1239 880 1318 790 1318 678 c 2
 1318 162 l 2
 1318 97 1175 0 1078 0 c 2
 211 0 l 1
 211 128 l 1
 369 128 l 1
 369 400 l 2xfd80
 369 450 385 479 503 654 c 0
 675 906 704 962 704 1040 c 3
 704 1065 693 1089 672 1110 c 1
 598 1050 531 1017 483 1017 c 3
 420 1017 346 1052 259 1123 c 1
 227 1104 214 1067 214 992 c 2
 214 946 l 1
 257 979 304 995 355 995 c 3
 464 995 525 935 525 828 c 3
 525 722 440 653 308 653 c 3
 149 653 28 781 28 950 c 3
 28 1120 123 1227 275 1227 c 3
 339 1227 406 1197 476 1138 c 1
 542 1205 607 1238 672 1238 c 3xfb80
995 701 m 2
 995 788 955 866 892 898 c 1
 866 847 848 817 830 788 c 0
 730 627 684 511 684 419 c 2
 684 128 l 1
 995 128 l 1
 995 701 l 2
330 921 m 3
 284 921 247 881 247 831 c 259
 247 762 276 720 323 720 c 259
 370 720 400 765 400 836 c 259xfb80
 400 891 375 921 330 921 c 3
EndSplineSet
EndChar

StartChar: uni0E0C
Encoding: 224 3596 143
Width: 1972
VWidth: 3198
Flags: W
HStem: -12 82<427.654 558.682> 320 95<448.656 566.864> 867 98<220 256 469.866 583> 1138 100<430.488 854.011> 1201 20G<1660.82 1852>
VStem: 134 314<400 790.237> 134 269<112.152 309.997> 586 134<90.154 302.348> 761 145<111.194 318.054> 976 316<83.3309 269 443.562 1026.92> 1529 323<256 1104>
LayerCount: 3
Fore
SplineSet
31 1001 m 1,0,1
 314 1238 314 1238 693 1238 c 0,2,3
 955 1238 955 1238 1123.5 1146 c 128,-1,4
 1292 1054 1292 1054 1292 912 c 2,5,-1
 1292 436 l 1,6,-1
 1529 256 l 1,7,-1
 1529 1104 l 1,8,-1
 1688 1221 l 1,9,-1
 1852 1221 l 1,10,-1
 1852 112 l 2,11,12
 1852 69 1852 69 1820.5 34.5 c 128,-1,13
 1789 0 1789 0 1749 0 c 2,14,-1
 1577 0 l 1,15,16
 1457 151 1457 151 1292 269 c 1,17,-1
 1292 156 l 2,18,19
 1292 80 1292 80 1223.5 34 c 128,-1,20
 1155 -12 1155 -12 1043 -12 c 0,21,22
 917 -12 917 -12 839 56 c 128,-1,23
 761 124 761 124 761 234 c 0,24,25
 761 316 761 316 824.5 380 c 128,-1,26
 888 444 888 444 976 451 c 1,27,-1
 976 854 l 2,28,29
 976 1138 976 1138 662 1138 c 0,30,31
 538 1138 538 1138 422.5 1093 c 128,-1,32
 307 1048 307 1048 220 965 c 1,33,-1
 583 965 l 1,34,-1
 583 879 l 1,35,36
 510 873 510 873 479 836 c 128,-1,37
 448 799 448 799 448 717 c 2,38,-1
 448 400 l 1,39,40
 468 415 468 415 525 415 c 0,41,42
 610 415 610 415 665 357.5 c 128,-1,43
 720 300 720 300 720 211 c 0,44,45
 720 111 720 111 646.5 49.5 c 128,-1,46
 573 -12 573 -12 454 -12 c 0,47,48
 312 -12 312 -12 223 62.5 c 128,-1,49
 134 137 134 137 134 256 c 2,50,-1
 134 672 l 2,51,52
 134 769 134 769 256 867 c 1,53,-1
 31 867 l 1,54,-1
 31 1001 l 1,0,1
979 339 m 1,55,56
 933 310 933 310 919.5 285 c 128,-1,57
 906 260 906 260 906 205 c 0,58,59
 906 153 906 153 979 80 c 1,60,-1
 979 339 l 1,55,56
586 208 m 256,61,62
 586 259 586 259 557 289.5 c 128,-1,63
 528 320 528 320 479 320 c 0,64,65
 446 320 446 320 424.5 286.5 c 128,-1,66
 403 253 403 253 403 201 c 0,67,68
 403 148 403 148 427.5 109 c 128,-1,69
 452 70 452 70 486 70 c 0,70,71
 533 70 533 70 559.5 107 c 128,-1,72
 586 144 586 144 586 208 c 256,61,62
EndSplineSet
Layer: 2
SplineSet
31 1001 m 1xf5e0
 222 1161 436 1238 693 1238 c 3xf5e0
 1042 1238 1292 1102 1292 912 c 2
 1292 436 l 1
 1529 256 l 1
 1529 1104 l 1
 1688 1221 l 1
 1852 1221 l 1xede0
 1852 112 l 2
 1852 55 1802 0 1749 0 c 2
 1577 0 l 1
 1496 102 1401 191 1292 269 c 1
 1292 156 l 2
 1292 55 1192 -12 1043 -12 c 3
 875 -12 761 88 761 234 c 3
 761 343 859 442 976 451 c 1
 976 854 l 2
 976 1043 871 1138 662 1138 c 3
 496 1138 336 1075 220 965 c 1
 583 965 l 1
 583 879 l 1
 486 871 448 826 448 717 c 2
 448 400 l 1xf5e0
 464 412 479 415 525 415 c 3
 638 415 720 330 720 211 c 3
 720 78 613 -12 454 -12 c 3
 264 -12 134 97 134 256 c 2xf3e0
 134 672 l 2
 134 738 173 800 256 867 c 1
 31 867 l 1
 31 1001 l 1xf5e0
979 339 m 1
 918 301 906 279 906 205 c 3
 906 167 926 133 979 80 c 1
 979 339 l 1
586 208 m 259
 586 276 544 320 479 320 c 3
 435 320 403 270 403 201 c 259xe3e0
 403 130 441 70 486 70 c 3
 548 70 586 122 586 208 c 259
EndSplineSet
EndChar

StartChar: uni0E0D
Encoding: 225 3597 144
Width: 1956
VWidth: 3198
Flags: W
HStem: -503 100<1073.16 1350.31> -159 67<1088.49 1219.87> -9 82<416.925 549.561> 0 128<1215 1501> 323 116<420.106 553.033> 854 108<195 259 471.839 583> 1117 121<387.812 790.363> 1201 20G<1631.35 1826>
VStem: 103 316<409 746.375> 103 287<108.368 313.483> 573 144<92.3586 303.793> 892 323<128 986.852> 892 164<-391.902 -180.073> 1248 150<-380.807 -174.549> 1501 325<128 1110> 1541 269<-325.125 -131>
LayerCount: 3
Fore
SplineSet
103 614 m 2,0,1
 103 679 103 679 146.5 746.5 c 128,-1,2
 190 814 190 814 259 854 c 1,3,-1
 45 854 l 1,4,-1
 45 1017 l 1,5,6
 273 1154 273 1154 387 1196 c 128,-1,7
 501 1238 501 1238 647 1238 c 0,8,9
 917 1238 917 1238 1066 1119 c 128,-1,10
 1215 1000 1215 1000 1215 784 c 2,11,-1
 1215 128 l 1,12,-1
 1501 128 l 1,13,-1
 1501 1110 l 1,14,-1
 1660 1221 l 1,15,-1
 1826 1221 l 1,16,-1
 1826 119 l 2,17,18
 1826 76 1826 76 1782 38 c 128,-1,19
 1738 0 1738 0 1688 0 c 2,20,-1
 892 0 l 1,21,-1
 892 793 l 2,22,23
 892 961 892 961 828 1039 c 128,-1,24
 764 1117 764 1117 626 1117 c 0,25,26
 509 1117 509 1117 388.5 1073.5 c 128,-1,27
 268 1030 268 1030 195 962 c 1,28,-1
 583 962 l 1,29,-1
 583 867 l 1,30,31
 498 843 498 843 458.5 797 c 128,-1,32
 419 751 419 751 419 675 c 2,33,-1
 419 409 l 1,34,35
 473 439 473 439 518 439 c 0,36,37
 609 439 609 439 663 380.5 c 128,-1,38
 717 322 717 322 717 223 c 0,39,40
 717 104 717 104 646.5 47.5 c 128,-1,41
 576 -9 576 -9 428 -9 c 0,42,43
 287 -9 287 -9 195 58.5 c 128,-1,44
 103 126 103 126 103 230 c 2,45,-1
 103 614 l 2,0,1
1145 -92 m 0,46,47
 1398 -92 1398 -92 1398 -259 c 0,48,49
 1398 -354 1398 -354 1352 -397 c 1,50,51
 1466 -374 1466 -374 1500.5 -325.5 c 128,-1,52
 1535 -277 1535 -277 1541 -131 c 1,53,-1
 1810 -131 l 1,54,-1
 1810 -189 l 2,55,56
 1810 -334 1810 -334 1656 -418.5 c 128,-1,57
 1502 -503 1502 -503 1238 -503 c 0,58,59
 1074 -503 1074 -503 983 -448 c 128,-1,60
 892 -393 892 -393 892 -294 c 0,61,62
 892 -203 892 -203 961.5 -147.5 c 128,-1,63
 1031 -92 1031 -92 1145 -92 c 0,46,47
1142 -403 m 0,64,65
 1189 -403 1189 -403 1218.5 -367 c 128,-1,66
 1248 -331 1248 -331 1248 -275 c 0,67,68
 1248 -226 1248 -226 1223 -192.5 c 128,-1,69
 1198 -159 1198 -159 1160 -159 c 0,70,71
 1113 -159 1113 -159 1084.5 -194 c 128,-1,72
 1056 -229 1056 -229 1056 -287 c 0,73,74
 1056 -342 1056 -342 1078.5 -372.5 c 128,-1,75
 1101 -403 1101 -403 1142 -403 c 0,64,65
573 211 m 256,76,77
 573 261 573 261 544 292 c 128,-1,78
 515 323 515 323 467 323 c 0,79,80
 432 323 432 323 411 290.5 c 128,-1,81
 390 258 390 258 390 205 c 128,-1,82
 390 152 390 152 414.5 112.5 c 128,-1,83
 439 73 439 73 473 73 c 0,84,85
 520 73 520 73 546.5 109.5 c 128,-1,86
 573 146 573 146 573 211 c 256,76,77
EndSplineSet
Layer: 2
SplineSet
103 614 m 2xeea4
 103 701 167 800 259 854 c 1
 45 854 l 1
 45 1017 l 1
 349 1200 453 1238 647 1238 c 3
 1007 1238 1215 1072 1215 784 c 2
 1215 128 l 1xdeb4
 1501 128 l 1
 1501 1110 l 1
 1660 1221 l 1
 1826 1221 l 1
 1826 119 l 2
 1826 61 1755 0 1688 0 c 2
 892 0 l 1xdd2e
 892 793 l 2
 892 1017 810 1117 626 1117 c 3
 470 1117 292 1053 195 962 c 1
 583 962 l 1
 583 867 l 1
 469 835 419 776 419 675 c 2
 419 409 l 1xdeb4
 457 430 487 439 518 439 c 3
 640 439 717 355 717 223 c 3
 717 65 625 -9 428 -9 c 3
 240 -9 103 92 103 230 c 2xee64
 103 614 l 2xeea4
1145 -92 m 3
 1311 -92 1398 -149 1398 -259 c 3
 1398 -319 1381 -370 1352 -397 c 1
 1504 -366 1533 -325 1541 -131 c 1
 1810 -131 l 1
 1810 -189 l 2
 1810 -382 1590 -503 1238 -503 c 3
 1020 -503 892 -426 892 -294 c 3xcc2d
 892 -173 993 -92 1145 -92 c 3
1142 -403 m 3
 1204 -403 1248 -350 1248 -275 c 3
 1248 -209 1210 -159 1160 -159 c 3
 1098 -159 1056 -210 1056 -287 c 3
 1056 -360 1088 -403 1142 -403 c 3
573 211 m 259
 573 278 531 323 467 323 c 3
 421 323 390 276 390 205 c 259
 390 134 428 73 473 73 c 3xec64
 536 73 573 124 573 211 c 259
EndSplineSet
Substitution2: "Single Substitution lookup 22 subtable" uni0E0D.descless
EndChar

StartChar: uni0E0E
Encoding: 226 3598 145
Width: 1553
VWidth: 3198
Flags: W
HStem: -531 86<468.187 647.108> -250 100<456.149 666.507> -20 20G<762.286 973> -9 79<203.439 316.88> 314 98<198.468 280.499> 864 109<336 419 641.188 742> 1126 101<546.673 977.899>
VStem: 19 164<82.4497 302.967> 272 173<-420.958 -260.698> 333 275<103.742 308.344> 1117 323<-342 976.828>
LayerCount: 3
Fore
SplineSet
803 1227 m 0,0,1
 1128 1227 1128 1227 1284 1117 c 128,-1,2
 1440 1007 1440 1007 1440 778 c 2,3,-1
 1440 -522 l 2,4,5
 1440 -531 1440 -531 1398 -531 c 2,6,-1
 1157 -531 l 1,7,8
 1059 -478 1059 -478 895 -372 c 1,9,10
 872 -442 872 -442 789 -486.5 c 128,-1,11
 706 -531 706 -531 598 -531 c 0,12,13
 443 -531 443 -531 357.5 -486.5 c 128,-1,14
 272 -442 272 -442 272 -361 c 0,15,16
 272 -261 272 -261 347.5 -205.5 c 128,-1,17
 423 -150 423 -150 559 -150 c 0,18,19
 602 -150 602 -150 668 -170 c 1,20,-1
 668 -70 l 1,21,-1
 800 0 l 1,22,-1
 973 0 l 1,23,24
 963 -151 963 -151 943 -244 c 1,25,-1
 1117 -342 l 1,26,-1
 1117 771 l 2,27,28
 1117 940 1117 940 1038.5 1033 c 128,-1,29
 960 1126 960 1126 818 1126 c 0,30,31
 687 1126 687 1126 554.5 1084 c 128,-1,32
 422 1042 422 1042 336 973 c 1,33,-1
 742 973 l 1,34,-1
 742 876 l 1,35,36
 666 862 666 862 637 814.5 c 128,-1,37
 608 767 608 767 608 656 c 2,38,-1
 608 320 l 2,39,40
 608 139 608 139 534 65 c 128,-1,41
 460 -9 460 -9 281 -9 c 0,42,43
 152 -9 152 -9 85.5 43 c 128,-1,44
 19 95 19 95 19 195 c 0,45,46
 19 291 19 291 79 351.5 c 128,-1,47
 139 412 139 412 234 412 c 0,48,49
 248 412 248 412 281 406 c 1,50,-1
 281 650 l 2,51,52
 281 765 281 765 419 864 c 1,53,-1
 159 864 l 1,54,-1
 159 998 l 1,55,56
 275 1109 275 1109 441 1168 c 128,-1,57
 607 1227 607 1227 803 1227 c 0,0,1
183 189 m 256,58,59
 183 70 183 70 272 70 c 0,60,61
 300 70 300 70 316.5 101 c 128,-1,62
 333 132 333 132 333 184 c 0,63,64
 333 239 333 239 314.5 276.5 c 128,-1,65
 296 314 296 314 269 314 c 0,66,67
 183 314 183 314 183 189 c 256,58,59
672 -308 m 0,68,69
 672 -287 672 -287 629 -268.5 c 128,-1,70
 586 -250 586 -250 537 -250 c 0,71,72
 445 -250 445 -250 445 -342 c 0,73,74
 445 -387 445 -387 482.5 -416 c 128,-1,75
 520 -445 520 -445 579 -445 c 0,76,77
 622 -445 622 -445 647 -408 c 128,-1,78
 672 -371 672 -371 672 -308 c 0,68,69
EndSplineSet
Layer: 2
SplineSet
803 1227 m 3xdf60
 1236 1227 1440 1083 1440 778 c 2
 1440 -522 l 2
 1440 -527 1422 -531 1398 -531 c 2
 1157 -531 l 1
 1086 -493 1015 -450 895 -372 c 1
 865 -465 742 -531 598 -531 c 259
 392 -531 272 -469 272 -361 c 3
 272 -228 378 -150 559 -150 c 3
 591 -150 622 -156 668 -170 c 1
 668 -70 l 1
 800 0 l 1
 973 0 l 1xefa0
 966 -101 955 -187 943 -244 c 1
 1117 -342 l 1
 1117 771 l 2
 1117 996 1007 1126 818 1126 c 3
 643 1126 451 1065 336 973 c 1
 742 973 l 1
 742 876 l 1
 641 858 608 804 608 656 c 2
 608 320 l 2
 608 79 520 -9 281 -9 c 3
 109 -9 19 61 19 195 c 3
 19 323 107 412 234 412 c 3
 245 412 259 410 281 406 c 1
 281 650 l 2
 281 729 324 796 419 864 c 1
 159 864 l 1
 159 998 l 1
 314 1146 541 1227 803 1227 c 3xdf60
183 189 m 259
 183 112 214 70 272 70 c 3xdfa0
 309 70 333 115 333 184 c 3xdf60
 333 258 305 314 269 314 c 3
 213 314 183 271 183 189 c 259
672 -308 m 3
 672 -280 602 -250 537 -250 c 3
 476 -250 445 -281 445 -342 c 3
 445 -402 501 -445 579 -445 c 3
 636 -445 672 -392 672 -308 c 3
EndSplineSet
Substitution2: "Single Substitution lookup 22 subtable" uni0E0E.alt1
EndChar

StartChar: uni0E0F
Encoding: 227 3599 146
Width: 1557
VWidth: 3198
Flags: W
HStem: -547 89<288.071 483.524> -262 103<281.232 531.107> -9 79<206.847 322.753> 314 101<201.409 277.008> 860 116<336 406> 879 97<631.782 739> 1120 122<500.426 978.042>
VStem: 19 167<84.1585 303.624> 109 156<-433.116 -281.924> 278 326<412 780.01> 336 268<110.348 308.259> 576 275<-207.083 -44.7568> 1117 323<-294 987.321>
LayerCount: 3
Fore
SplineSet
19 208 m 0,0,1
 19 415 19 415 250 415 c 0,2,3
 262 415 262 415 278 412 c 1,4,-1
 278 668 l 2,5,6
 278 718 278 718 308 763 c 128,-1,7
 338 808 338 808 406 860 c 1,8,-1
 150 860 l 1,9,-1
 150 995 l 1,10,11
 315 1138 315 1138 452.5 1190 c 128,-1,12
 590 1242 590 1242 806 1242 c 0,13,14
 1089 1242 1089 1242 1264.5 1135.5 c 128,-1,15
 1440 1029 1440 1029 1440 858 c 2,16,-1
 1440 -525 l 1,17,-1
 1135 -525 l 1,18,-1
 989 -394 l 1,19,-1
 906 -525 l 1,20,-1
 749 -525 l 1,21,22
 732 -472 732 -472 722 -451.5 c 128,-1,23
 712 -431 712 -431 693 -409 c 1,24,25
 553 -547 553 -547 397 -547 c 0,26,27
 273 -547 273 -547 191 -490.5 c 128,-1,28
 109 -434 109 -434 109 -348 c 0,29,30
 109 -263 109 -263 179 -211 c 128,-1,31
 249 -159 249 -159 364 -159 c 0,32,33
 471 -159 471 -159 576 -208 c 1,34,-1
 576 -52 l 1,35,36
 679 6 679 6 851 6 c 1,37,38
 837 -197 837 -197 761 -308 c 1,39,-1
 812 -339 l 1,40,41
 861 -290 861 -290 934 -186 c 1,42,-1
 995 -186 l 1,43,-1
 1117 -294 l 1,44,-1
 1117 818 l 2,45,46
 1117 960 1117 960 1034 1040 c 128,-1,47
 951 1120 951 1120 803 1120 c 0,48,49
 472 1120 472 1120 336 976 c 1,50,-1
 739 976 l 1,51,-1
 739 879 l 1,52,53
 652 864 652 864 628 830.5 c 128,-1,54
 604 797 604 797 604 690 c 2,55,-1
 604 253 l 2,56,57
 604 133 604 133 518 62 c 128,-1,58
 432 -9 432 -9 287 -9 c 0,59,60
 163 -9 163 -9 91 49.5 c 128,-1,61
 19 108 19 108 19 208 c 0,0,1
186 189 m 0,62,63
 186 135 186 135 210.5 102.5 c 128,-1,64
 235 70 235 70 275 70 c 0,65,66
 303 70 303 70 319.5 101 c 128,-1,67
 336 132 336 132 336 184 c 0,68,69
 336 239 336 239 317.5 276.5 c 128,-1,70
 299 314 299 314 272 314 c 0,71,72
 186 314 186 314 186 189 c 0,62,63
265 -348 m 0,73,74
 265 -397 265 -397 300.5 -427.5 c 128,-1,75
 336 -458 336 -458 394 -458 c 0,76,77
 480 -458 480 -458 550 -317 c 1,78,79
 453 -262 453 -262 381 -262 c 0,80,81
 332 -262 332 -262 298.5 -287 c 128,-1,82
 265 -312 265 -312 265 -348 c 0,73,74
EndSplineSet
Layer: 2
SplineSet
19 208 m 3xf728
 19 346 96 415 250 415 c 3
 258 415 267 414 278 412 c 1
 278 668 l 2xf748
 278 734 315 790 406 860 c 1
 150 860 l 1
 150 995 l 1
 370 1186 518 1242 806 1242 c 3
 1183 1242 1440 1086 1440 858 c 2
 1440 -525 l 1
 1135 -525 l 1
 989 -394 l 1
 906 -525 l 1
 749 -525 l 1
 727 -455 719 -438 693 -409 c 1
 601 -500 500 -547 397 -547 c 3
 232 -547 109 -462 109 -348 c 3
 109 -234 211 -159 364 -159 c 3
 441 -159 499 -172 576 -208 c 1
 576 -52 l 1
 647 -12 733 6 851 6 c 1xfa98
 841 -135 814 -230 761 -308 c 1
 812 -339 l 1
 847 -304 882 -260 934 -186 c 1
 995 -186 l 1
 1117 -294 l 1
 1117 818 l 2
 1117 1007 1000 1120 803 1120 c 3
 588 1120 425 1070 336 976 c 1xfa28
 739 976 l 1
 739 879 l 1
 623 859 604 833 604 690 c 2xf648
 604 253 l 2
 604 93 480 -9 287 -9 c 3
 122 -9 19 75 19 208 c 3xf728
186 189 m 3
 186 117 221 70 275 70 c 3
 312 70 336 115 336 184 c 3xf328
 336 257 308 314 272 314 c 3
 216 314 186 271 186 189 c 3
265 -348 m 3xf288
 265 -414 317 -458 394 -458 c 3
 452 -458 504 -410 550 -317 c 1
 481 -278 432 -262 381 -262 c 259
 316 -262 265 -300 265 -348 c 3xf288
EndSplineSet
Substitution2: "Single Substitution lookup 22 subtable" uni0E0F.alt1
EndChar

StartChar: uni0E10
Encoding: 228 3600 147
Width: 1352
VWidth: 3198
Flags: W
HStem: -531 83<192.371 334.956 831 918> -369 68<881.939 932.772> -278 95<192.94 328.286> -150 70<881.651 987.95> 348 80<364.908 483.118> 668 86<356.315 484.05> 854 111<326 558.507> 962 183<874.512 1233.83> 1132 103<408.136 684.838>
VStem: 36 150<-454.045 -280.026> 183 156<442.885 655.854> 361 273<-217.442 -77> 748 125<-299.275 -151.844> 940 287<414.98 778.824> 995 156<-297.533 -152.857>
LayerCount: 3
Fore
SplineSet
876 259 m 1,0,1
 920 454 920 454 930 514 c 128,-1,2
 940 574 940 574 940 653 c 0,3,4
 940 734 940 734 907.5 769 c 128,-1,5
 875 804 875 804 786 818 c 0,6,7
 564 854 564 854 112 854 c 0,8,9
 57 854 57 854 25 851 c 1,10,11
 66 1035 66 1035 201.5 1135 c 128,-1,12
 337 1235 337 1235 543 1235 c 0,13,14
 593 1235 593 1235 773 1189 c 0,15,16
 944 1145 944 1145 995 1145 c 0,17,18
 1083 1145 1083 1145 1166 1167 c 128,-1,19
 1249 1189 1249 1189 1306 1227 c 1,20,-1
 1306 976 l 1,21,22
 1252 962 1252 962 1196 962 c 0,23,24
 915 962 915 962 716 1072 c 0,25,26
 608 1132 608 1132 534 1132 c 0,27,28
 461 1132 461 1132 407.5 1089 c 128,-1,29
 354 1046 354 1046 326 965 c 1,30,31
 832 965 832 965 1047 892 c 0,32,33
 1145 858 1145 858 1186 801 c 128,-1,34
 1227 744 1227 744 1227 643 c 0,35,36
 1227 573 1227 573 1184 415 c 0,37,38
 1121 180 1121 180 1096 3 c 1,39,-1
 768 3 l 1,40,-1
 576 406 l 1,41,42
 493 348 493 348 419 348 c 0,43,44
 309 348 309 348 246 402 c 128,-1,45
 183 456 183 456 183 550 c 0,46,47
 183 649 183 649 253 701.5 c 128,-1,48
 323 754 323 754 454 754 c 0,49,50
 548 754 548 754 602.5 724 c 128,-1,51
 657 694 657 694 694 622 c 2,52,-1
 876 259 l 1,0,1
1151 -301 m 2,53,54
 1151 -425 1151 -425 1103 -478 c 128,-1,55
 1055 -531 1055 -531 943 -531 c 2,56,-1
 757 -531 l 1,57,-1
 672 -425 l 1,58,-1
 601 -531 l 1,59,-1
 537 -531 l 1,60,-1
 470 -428 l 1,61,62
 445 -481 445 -481 383 -512 c 128,-1,63
 321 -543 321 -543 241 -543 c 0,64,65
 140 -543 140 -543 88 -493.5 c 128,-1,66
 36 -444 36 -444 36 -348 c 0,67,68
 36 -269 36 -269 82.5 -226 c 128,-1,69
 129 -183 129 -183 214 -183 c 0,70,71
 268 -183 268 -183 361 -220 c 1,72,-1
 361 -77 l 1,73,-1
 634 -77 l 1,74,75
 634 -200 634 -200 540 -317 c 1,76,-1
 586 -361 l 1,77,-1
 647 -272 l 1,78,-1
 684 -272 l 1,79,-1
 831 -448 l 1,80,-1
 918 -448 l 1,81,-1
 934 -369 l 1,82,83
 833 -369 833 -369 790.5 -336.5 c 128,-1,84
 748 -304 748 -304 748 -226 c 0,85,86
 748 -80 748 -80 918 -80 c 0,87,88
 1024 -80 1024 -80 1087.5 -116.5 c 128,-1,89
 1151 -153 1151 -153 1151 -214 c 2,90,-1
 1151 -301 l 2,53,54
425 668 m 0,91,92
 387 668 387 668 363 638 c 128,-1,93
 339 608 339 608 339 562 c 0,94,95
 339 505 339 505 363 466.5 c 128,-1,96
 387 428 387 428 422 428 c 128,-1,97
 457 428 457 428 481.5 464 c 128,-1,98
 506 500 506 500 506 550 c 0,99,100
 506 597 506 597 481.5 632.5 c 128,-1,101
 457 668 457 668 425 668 c 0,91,92
931 -301 m 256,102,103
 960 -301 960 -301 977.5 -277.5 c 128,-1,104
 995 -254 995 -254 995 -217 c 0,105,106
 995 -150 995 -150 928 -150 c 0,107,108
 905 -150 905 -150 889 -169.5 c 128,-1,109
 873 -189 873 -189 873 -217 c 0,110,111
 873 -301 873 -301 931 -301 c 256,102,103
256 -458 m 256,112,113
 297 -458 297 -458 321 -430 c 128,-1,114
 345 -402 345 -402 345 -355 c 0,115,116
 345 -330 345 -330 307.5 -304 c 128,-1,117
 270 -278 270 -278 234 -278 c 0,118,119
 217 -278 217 -278 201.5 -303.5 c 128,-1,120
 186 -329 186 -329 186 -358 c 0,121,122
 186 -458 186 -458 256 -458 c 256,112,113
EndSplineSet
Layer: 2
SplineSet
876 259 m 1xfebc
 935 518 940 547 940 653 c 3
 940 761 904 799 786 818 c 0
 632 843 424 854 112 854 c 3
 68 854 46 853 25 851 c 1
 80 1096 268 1235 543 1235 c 3xfebc
 584 1235 632 1225 773 1189 c 0
 909 1154 956 1145 995 1145 c 3
 1112 1145 1230 1176 1306 1227 c 1
 1306 976 l 1
 1271 967 1234 962 1196 962 c 3xfd1a
 1008 962 848 999 716 1072 c 0
 644 1112 584 1132 534 1132 c 3
 436 1132 363 1073 326 965 c 1
 683 965 897 943 1047 892 c 0
 1177 847 1227 778 1227 643 c 3
 1227 589 1218 540 1184 415 c 0
 1139 247 1113 123 1096 3 c 1
 768 3 l 1
 576 406 l 1
 516 364 473 348 419 348 c 3
 273 348 183 425 183 550 c 3
 183 682 279 754 454 754 c 259
 580 754 645 718 694 622 c 2
 876 259 l 1xfebc
1151 -301 m 2xfc5a
 1151 -466 1092 -531 943 -531 c 2
 757 -531 l 1
 672 -425 l 1
 601 -531 l 1
 537 -531 l 1
 470 -428 l 1
 436 -499 348 -543 241 -543 c 3
 106 -543 36 -476 36 -348 c 3
 36 -243 101 -183 214 -183 c 3
 254 -183 291 -192 361 -220 c 1
 361 -77 l 1
 634 -77 l 1
 634 -157 601 -241 540 -317 c 1
 586 -361 l 1
 647 -272 l 1
 684 -272 l 1
 831 -448 l 1
 918 -448 l 1
 934 -369 l 1
 799 -369 748 -330 748 -226 c 3
 748 -129 805 -80 918 -80 c 3
 1059 -80 1151 -133 1151 -214 c 2
 1151 -301 l 2xfc5a
425 668 m 3
 375 668 339 624 339 562 c 3xfc38
 339 486 375 428 422 428 c 3
 468 428 506 483 506 550 c 259
 506 612 468 668 425 668 c 3
931 -301 m 259
 969 -301 995 -267 995 -217 c 3xfc1a
 995 -172 973 -150 928 -150 c 3
 898 -150 873 -180 873 -217 c 3
 873 -272 893 -301 931 -301 c 259
256 -458 m 259
 310 -458 345 -418 345 -355 c 3
 345 -322 282 -278 234 -278 c 3
 211 -278 186 -320 186 -358 c 3xfc58
 186 -426 208 -458 256 -458 c 259
EndSplineSet
Substitution2: "Single Substitution lookup 22 subtable" uni0E10.descless
EndChar

StartChar: uni0E11
Encoding: 229 3601 148
Width: 1725
VWidth: 3198
Flags: W
HStem: 0 21G<412 740.971 1288 1506.07> 640 64<259.757 367.197> 898 78<250.018 381.983> 1020 218<289.52 347.961 514.653 562.985> 1107 124<560.875 710.219 1192.23 1280.9>
VStem: 19 170<918.858 1124.83> 390 116<712.917 894.33> 412 289<265 595.793> 717 192<882.297 1104.74> 1288 324<116 1102.03>
LayerCount: 3
Fore
SplineSet
1231 1231 m 0,0,1
 1429 1231 1429 1231 1520.5 1177 c 128,-1,2
 1612 1123 1612 1123 1612 1007 c 2,3,-1
 1612 116 l 1,4,-1
 1484 0 l 1,5,-1
 1288 0 l 1,6,-1
 1288 1014 l 2,7,8
 1288 1058 1288 1058 1276.5 1082.5 c 128,-1,9
 1265 1107 1265 1107 1245 1107 c 0,10,11
 1217 1107 1217 1107 1189 1060 c 128,-1,12
 1161 1013 1161 1013 1123 906 c 0,13,14
 1061 730 1061 730 950 486 c 2,15,-1
 732 0 l 1,16,-1
 412 0 l 1,17,-1
 412 470 l 2,18,19
 412 522 412 522 433 560 c 128,-1,20
 454 598 454 598 539 703 c 0,21,22
 653 844 653 844 685 901 c 128,-1,23
 717 958 717 958 717 1023 c 0,24,25
 717 1058 717 1058 700.5 1082.5 c 128,-1,26
 684 1107 684 1107 659 1107 c 0,27,28
 636 1107 636 1107 563 1064 c 0,29,30
 491 1020 491 1020 428 1020 c 0,31,32
 325 1020 325 1020 211 1126 c 1,33,34
 189 1088 189 1088 189 1010 c 0,35,36
 189 951 189 951 208 918 c 1,37,38
 222 943 222 943 256.5 959.5 c 128,-1,39
 291 976 291 976 330 976 c 0,40,41
 410 976 410 976 458 935 c 128,-1,42
 506 894 506 894 506 825 c 0,43,44
 506 740 506 740 456 690 c 128,-1,45
 406 640 406 640 320 640 c 0,46,47
 184 640 184 640 101.5 737.5 c 128,-1,48
 19 835 19 835 19 995 c 0,49,50
 19 1112 19 1112 77.5 1173.5 c 128,-1,51
 136 1235 136 1235 247 1235 c 0,52,53
 326 1235 326 1235 425 1117 c 1,54,55
 538 1238 538 1238 637 1238 c 0,56,57
 762 1238 762 1238 835.5 1174 c 128,-1,58
 909 1110 909 1110 909 1001 c 0,59,60
 909 962 909 962 895 924.5 c 128,-1,61
 881 887 881 887 831 790 c 0,62,63
 753 641 753 641 727 562 c 128,-1,64
 701 483 701 483 701 394 c 2,65,-1
 701 265 l 1,66,67
 791 462 791 462 891 697.5 c 128,-1,68
 991 933 991 933 1020 1016 c 0,69,70
 1093 1231 1093 1231 1231 1231 c 0,0,1
320 898 m 0,71,72
 285 898 285 898 261 873.5 c 128,-1,73
 237 849 237 849 237 812 c 0,74,75
 237 763 237 763 258 733.5 c 128,-1,76
 279 704 279 704 314 704 c 0,77,78
 348 704 348 704 369 735 c 128,-1,79
 390 766 390 766 390 815 c 0,80,81
 390 898 390 898 320 898 c 0,71,72
EndSplineSet
Layer: 2
SplineSet
1231 1231 m 3xedc0
 1495 1231 1612 1162 1612 1007 c 2
 1612 116 l 1
 1484 0 l 1
 1288 0 l 1
 1288 1014 l 2
 1288 1072 1272 1107 1245 1107 c 3
 1208 1107 1173 1049 1123 906 c 0
 1079 782 1032 667 950 486 c 2
 732 0 l 1
 412 0 l 1
 412 470 l 2
 412 539 425 563 539 703 c 0
 691 890 717 936 717 1023 c 3
 717 1070 692 1107 659 1107 c 3xedc0
 640 1107 617 1096 563 1064 c 0
 512 1033 472 1020 428 1020 c 3
 356 1020 292 1051 211 1126 c 1
 196 1100 189 1061 189 1010 c 3
 189 966 194 942 208 918 c 1
 226 951 278 976 330 976 c 3
 437 976 506 917 506 825 c 3
 506 711 434 640 320 640 c 3
 139 640 19 782 19 995 c 3
 19 1151 99 1235 247 1235 c 3
 300 1235 359 1196 425 1117 c 1
 500 1197 572 1238 637 1238 c 3xf6c0
 803 1238 909 1146 909 1001 c 3
 909 949 898 919 831 790 c 0
 726 590 701 512 701 394 c 2
 701 265 l 1
 822 529 982 906 1020 1016 c 0
 1068 1158 1140 1231 1231 1231 c 3xedc0
320 898 m 3
 273 898 237 861 237 812 c 259
 237 746 267 704 314 704 c 259
 359 704 390 749 390 815 c 259xe6c0
 390 869 366 898 320 898 c 3
EndSplineSet
EndChar

StartChar: uni0E12
Encoding: 230 3602 149
Width: 1905
VWidth: 3198
Flags: W
HStem: -9 86<906.331 1018.2> 326 119<901.512 981.054> 815 80<480.833 613.78> 1132 99<270.19 453.573>
VStem: 28 152<710.033 1027.46> 159 280<0 230.406> 159 228<369 525.444> 330 128<604.157 799.274> 629 132<600.298 803.856> 742 140<96.8095 312.572> 982 313<439.063 1025.13> 1026 247<77.5234 211.174> 1462 326<259 1107>
LayerCount: 3
Fore
SplineSet
650 1110 m 1,0,1
 749 1189 749 1189 821 1231 c 1,2,3
 1027 1231 1027 1231 1161 1126 c 128,-1,4
 1295 1021 1295 1021 1295 860 c 2,5,-1
 1295 387 l 1,6,-1
 1462 259 l 1,7,-1
 1462 1107 l 1,8,-1
 1679 1221 l 1,9,-1
 1788 1221 l 1,10,-1
 1788 109 l 2,11,12
 1788 46 1788 46 1694 0 c 1,13,-1
 1532 0 l 1,14,-1
 1273 214 l 1,15,16
 1273 -9 1273 -9 992 -9 c 0,17,18
 879 -9 879 -9 810.5 52 c 128,-1,19
 742 113 742 113 742 214 c 0,20,21
 742 310 742 310 808.5 374 c 128,-1,22
 875 438 875 438 982 445 c 1,23,-1
 982 906 l 2,24,25
 982 1078 982 1078 882 1096 c 1,26,27
 826 1062 826 1062 776 1016 c 0,28,29
 724 970 724 970 653 970 c 128,-1,30
 582 970 582 970 496 1050 c 0,31,32
 408 1132 408 1132 375 1132 c 0,33,34
 291 1132 291 1132 235.5 1053.5 c 128,-1,35
 180 975 180 975 180 857 c 0,36,37
 180 802 180 802 200 756.5 c 128,-1,38
 220 711 220 711 284 618 c 0,39,40
 343 532 343 532 365 479.5 c 128,-1,41
 387 427 387 427 387 369 c 1,42,43
 463 439 463 439 506 509 c 1,44,45
 435 515 435 515 382.5 575 c 128,-1,46
 330 635 330 635 330 711 c 128,-1,47
 330 787 330 787 398 841 c 128,-1,48
 466 895 466 895 562 895 c 0,49,50
 659 895 659 895 710 847.5 c 128,-1,51
 761 800 761 800 761 711 c 0,52,53
 761 637 761 637 722 565.5 c 128,-1,54
 683 494 683 494 545 313 c 0,55,56
 475 221 475 221 457 189 c 128,-1,57
 439 157 439 157 439 122 c 2,58,-1
 439 0 l 1,59,-1
 159 0 l 1,60,-1
 159 381 l 2,61,62
 159 413 159 413 146 453.5 c 128,-1,63
 133 494 133 494 94 589 c 0,64,65
 28 745 28 745 28 821 c 0,66,67
 28 1006 28 1006 133.5 1118.5 c 128,-1,68
 239 1231 239 1231 412 1231 c 0,69,70
 523 1231 523 1231 650 1110 c 1,0,1
458 707 m 0,71,72
 458 658 458 658 484.5 622 c 128,-1,73
 511 586 511 586 547 586 c 0,74,75
 582 586 582 586 605.5 623 c 128,-1,76
 629 660 629 660 629 714 c 0,77,78
 629 761 629 761 606 788 c 128,-1,79
 583 815 583 815 543 815 c 0,80,81
 509 815 509 815 483.5 782.5 c 128,-1,82
 458 750 458 750 458 707 c 0,71,72
882 195 m 0,83,84
 882 147 882 147 910.5 112 c 128,-1,85
 939 77 939 77 979 77 c 0,86,87
 1026 77 1026 77 1026 186 c 0,88,89
 1026 326 1026 326 965 326 c 0,90,91
 929 326 929 326 905.5 289 c 128,-1,92
 882 252 882 252 882 195 c 0,83,84
EndSplineSet
Layer: 2
SplineSet
650 1110 m 1xf808
 716 1163 776 1205 821 1231 c 1
 1096 1231 1295 1075 1295 860 c 2
 1295 387 l 1xf828
 1462 259 l 1
 1462 1107 l 1
 1679 1221 l 1
 1788 1221 l 1
 1788 109 l 2
 1788 68 1757 31 1694 0 c 1
 1532 0 l 1
 1273 214 l 1xf018
 1273 64 1181 -9 992 -9 c 3
 841 -9 742 79 742 214 c 3
 742 342 840 436 982 445 c 1
 982 906 l 2
 982 1024 950 1084 882 1096 c 1
 843 1072 809 1046 776 1016 c 0
 741 985 700 970 653 970 c 3
 607 970 552 998 496 1050 c 0
 437 1105 397 1132 375 1132 c 3
 263 1132 180 1015 180 857 c 3xf868
 180 784 198 742 284 618 c 0
 363 504 387 447 387 369 c 1xf208
 438 416 477 462 506 509 c 1
 411 517 330 609 330 711 c 3xf108
 330 812 434 895 562 895 c 3
 691 895 761 830 761 711 c 3
 761 613 729 554 545 313 c 0
 451 190 439 168 439 122 c 2
 439 0 l 1
 159 0 l 1xf488
 159 381 l 2xf208
 159 424 146 464 94 589 c 0
 44 707 28 764 28 821 c 3
 28 1068 181 1231 412 1231 c 3
 486 1231 565 1191 650 1110 c 1xf808
458 707 m 3xf188
 458 642 499 586 547 586 c 259
 593 586 629 642 629 714 c 3
 629 777 596 815 543 815 c 3
 498 815 458 764 458 707 c 3xf188
882 195 m 3xf058
 882 131 926 77 979 77 c 3
 1009 77 1026 117 1026 186 c 3
 1026 280 1006 326 965 326 c 3
 917 326 882 271 882 195 c 3xf058
EndSplineSet
EndChar

StartChar: uni0E13
Encoding: 231 3603 150
Width: 1917
VWidth: 3198
Flags: W
HStem: -12 79<395.803 524.519 1544.43 1696.63> 317 95<397.725 531.34> 864 106<189 262> 879 91<465.986 550> 1126 109<372.217 766.722>
VStem: 80 317<390 730.25> 80 289<108.553 308.672> 550 140<85.7344 298.582> 879 324<244 1000.73> 1373 150<82.2895 188.83> 1477 327<399.765 1117> 1721 141<85.4333 266.048>
LayerCount: 3
Fore
SplineSet
1712 358 m 1,0,1
 1789 332 1789 332 1825.5 289.5 c 128,-1,2
 1862 247 1862 247 1862 183 c 0,3,4
 1862 88 1862 88 1800.5 38 c 128,-1,5
 1739 -12 1739 -12 1621 -12 c 0,6,7
 1504 -12 1504 -12 1438.5 41 c 128,-1,8
 1373 94 1373 94 1373 189 c 1,9,10
 1251.5 115.5 1251.5 115.5 1151 0 c 1,11,-1
 879 0 l 1,12,-1
 879 787 l 2,13,14
 879 1126 879 1126 608 1126 c 0,15,16
 492 1126 492 1126 391 1088.5 c 128,-1,17
 290 1051 290 1051 189 970 c 1,18,-1
 550 970 l 1,19,-1
 550 879 l 1,20,21
 484 866 484 866 440.5 805.5 c 128,-1,22
 397 745 397 745 397 668 c 2,23,-1
 397 390 l 1,24,25
 431 412 431 412 483 412 c 0,26,27
 584 412 584 412 637 360.5 c 128,-1,28
 690 309 690 309 690 211 c 0,29,30
 690 104 690 104 620 46 c 128,-1,31
 550 -12 550 -12 422 -12 c 0,32,33
 341 -12 341 -12 260.5 19 c 128,-1,34
 180 50 180 50 130 99 c 128,-1,35
 80 148 80 148 80 198 c 2,36,-1
 80 595 l 2,37,38
 80 667 80 667 123 730 c 128,-1,39
 166 793 166 793 262 864 c 1,40,-1
 42 864 l 1,41,-1
 42 1029 l 1,42,43
 241 1153 241 1153 363.5 1194 c 128,-1,44
 486 1235 486 1235 659 1235 c 0,45,46
 912 1235 912 1235 1057.5 1131.5 c 128,-1,47
 1203 1028 1203 1028 1203 848 c 2,48,-1
 1203 244 l 1,49,50
 1330 308 1330 308 1419 362 c 0,51,52
 1461 387 1461 387 1469 402.5 c 128,-1,53
 1477 418 1477 418 1477 473 c 2,54,-1
 1477 1117 l 1,55,-1
 1666 1221 l 1,56,-1
 1804 1221 l 1,57,-1
 1804 470 l 2,58,59
 1804 447 1804 447 1787 426 c 128,-1,60
 1770 405 1770 405 1712 358 c 1,0,1
1618 67 m 256,61,62
 1662 67 1662 67 1691.5 98.5 c 128,-1,63
 1721 130 1721 130 1721 176 c 0,64,65
 1721 219 1721 219 1690.5 253 c 128,-1,66
 1660 287 1660 287 1621 287 c 0,67,68
 1578 287 1578 287 1550.5 254.5 c 128,-1,69
 1523 222 1523 222 1523 170 c 0,70,71
 1523 126 1523 126 1550 96.5 c 128,-1,72
 1577 67 1577 67 1618 67 c 256,61,62
550 205 m 256,73,74
 550 256 550 256 521 286.5 c 128,-1,75
 492 317 492 317 445 317 c 0,76,77
 410 317 410 317 389.5 285 c 128,-1,78
 369 253 369 253 369 198 c 128,-1,79
 369 143 369 143 393 105 c 128,-1,80
 417 67 417 67 451 67 c 0,81,82
 498 67 498 67 524 103.5 c 128,-1,83
 550 140 550 140 550 205 c 256,73,74
EndSplineSet
Layer: 2
SplineSet
1712 358 m 1xeda0
 1815 323 1862 268 1862 183 c 3
 1862 56 1778 -12 1621 -12 c 3
 1465 -12 1373 63 1373 189 c 1
 1292 140 1218 77 1151 0 c 1
 879 0 l 1
 879 787 l 2
 879 1014 790 1126 608 1126 c 3
 453 1126 324 1078 189 970 c 1xe9d0
 550 970 l 1
 550 879 l 1
 462 861 397 771 397 668 c 2
 397 390 l 1xddd0
 420 405 448 412 483 412 c 3
 618 412 690 342 690 211 c 3
 690 69 593 -12 422 -12 c 3
 255 -12 80 96 80 198 c 2xdb80
 80 595 l 2
 80 691 134 770 262 864 c 1
 42 864 l 1
 42 1029 l 1
 308 1195 429 1235 659 1235 c 3
 997 1235 1203 1088 1203 848 c 2
 1203 244 l 1
 1304 295 1338 313 1419 362 c 0
 1475 395 1477 400 1477 473 c 2
 1477 1117 l 1
 1666 1221 l 1
 1804 1221 l 1
 1804 470 l 2
 1804 439 1789 421 1712 358 c 1xeda0
1618 67 m 259
 1676 67 1721 114 1721 176 c 3
 1721 234 1673 287 1621 287 c 3
 1563 287 1523 239 1523 170 c 3
 1523 111 1563 67 1618 67 c 259
550 205 m 259
 550 273 508 317 445 317 c 3
 398 317 369 271 369 198 c 259xcb80
 369 125 406 67 451 67 c 3
 514 67 550 118 550 205 c 259
EndSplineSet
EndChar

StartChar: uni0E14
Encoding: 232 3604 151
Width: 1349
VWidth: 3198
Flags: W
HStem: 0 21G<134 412 909 1107.62> 815 83<448.532 584.771> 1123 108<344.268 778.235>
VStem: 28 134<661.942 967.758> 134 278<0 244.776> 134 227<372 508.073> 305 123<604.324 800.144> 601 128<602.18 803.107> 909 326<106 998.727>
LayerCount: 3
Fore
SplineSet
522 898 m 0,0,1
 617 898 617 898 673 847.5 c 128,-1,2
 729 797 729 797 729 711 c 0,3,4
 729 636 729 636 688 562 c 128,-1,5
 647 488 647 488 508 312 c 0,6,7
 447 235 447 235 429.5 203 c 128,-1,8
 412 171 412 171 412 134 c 2,9,-1
 412 0 l 1,10,-1
 134 0 l 1,11,-1
 134 381 l 2,12,13
 134 446 134 446 60 632 c 0,14,15
 28 716 28 716 28 796 c 0,16,17
 28 978 28 978 185.5 1104.5 c 128,-1,18
 343 1231 343 1231 570 1231 c 0,19,20
 1235 1231 1235 1231 1235 825 c 2,21,-1
 1235 106 l 1,22,-1
 1078 0 l 1,23,-1
 909 0 l 1,24,-1
 909 831 l 2,25,26
 909 979 909 979 820.5 1051 c 128,-1,27
 732 1123 732 1123 550 1123 c 0,28,29
 380 1123 380 1123 271 1038 c 128,-1,30
 162 953 162 953 162 821 c 0,31,32
 162 759 162 759 185 705 c 128,-1,33
 208 651 208 651 262 582 c 0,34,35
 319 511 319 511 340 467 c 128,-1,36
 361 423 361 423 361 372 c 1,37,38
 438 454 438 454 476 512 c 1,39,40
 404 518 404 518 354.5 573.5 c 128,-1,41
 305 629 305 629 305 704 c 0,42,43
 305 790 305 790 365 844 c 128,-1,44
 425 898 425 898 522 898 c 0,0,1
428 707 m 0,45,46
 428 657 428 657 454.5 621.5 c 128,-1,47
 481 586 481 586 518 586 c 0,48,49
 552 586 552 586 576.5 623.5 c 128,-1,50
 601 661 601 661 601 714 c 0,51,52
 601 760 601 760 577.5 787.5 c 128,-1,53
 554 815 554 815 515 815 c 0,54,55
 480 815 480 815 454 783 c 128,-1,56
 428 751 428 751 428 707 c 0,45,46
EndSplineSet
Layer: 2
SplineSet
522 898 m 3xe380
 649 898 729 826 729 711 c 3
 729 611 694 547 508 312 c 0
 427 210 412 183 412 134 c 2
 412 0 l 1
 134 0 l 1xe980
 134 381 l 2xe580
 134 431 116 491 60 632 c 0
 39 687 28 741 28 796 c 3
 28 1039 267 1231 570 1231 c 3
 1014 1231 1235 1096 1235 825 c 2
 1235 106 l 1
 1078 0 l 1
 909 0 l 1
 909 831 l 2
 909 1029 793 1123 550 1123 c 3
 323 1123 162 997 162 821 c 259xf180
 162 738 190 673 262 582 c 0
 338 488 361 440 361 372 c 1xe580
 420 435 447 468 476 512 c 1
 380 520 305 604 305 704 c 3
 305 819 393 898 522 898 c 3xe380
428 707 m 3xe380
 428 640 468 586 518 586 c 259
 564 586 601 644 601 714 c 3
 601 775 567 815 515 815 c 3
 468 815 428 765 428 707 c 3xe380
EndSplineSet
EndChar

StartChar: uni0E15
Encoding: 233 3605 152
Width: 1386
VWidth: 3198
Flags: W
HStem: 0 21G<156 439 946 1150.32> 512 74<486.252 509> 815 80<480.575 614.797> 973 131<540.434 722.064> 1123 104<251.86 435.863>
VStem: 42 134<705.1 1040.79> 156 283<0 211.072> 156 244<361 497.285> 323 135<604.503 798.82> 629 139<599.974 805.135> 946 330<112 1054.91>
LayerCount: 3
Fore
SplineSet
946 0 m 1,0,-1
 946 976 l 2,1,2
 946 1075 946 1075 882 1084 c 1,3,4
 844 1062 844 1062 766 1011 c 0,5,6
 707 973 707 973 634 973 c 0,7,8
 558 973 558 973 474 1047 c 0,9,10
 388 1123 388 1123 358 1123 c 0,11,12
 286 1123 286 1123 231 1057.5 c 128,-1,13
 176 992 176 992 176 906 c 0,14,15
 176 736 176 736 285 598 c 0,16,17
 349 517 349 517 373.5 466.5 c 128,-1,18
 398 416 398 416 400 361 c 1,19,20
 456 432 456 432 509 512 c 1,21,22
 435 515 435 515 379 573 c 128,-1,23
 323 631 323 631 323 704 c 0,24,25
 323 781 323 781 390 838 c 128,-1,26
 457 895 457 895 547 895 c 0,27,28
 643 895 643 895 705.5 843 c 128,-1,29
 768 791 768 791 768 711 c 0,30,31
 768 632 768 632 722 549 c 128,-1,32
 676 466 676 466 516 255 c 0,33,34
 469 193 469 193 454 163.5 c 128,-1,35
 439 134 439 134 439 106 c 2,36,-1
 439 0 l 1,37,-1
 156 0 l 1,38,-1
 156 378 l 2,39,40
 156 429 156 429 144 477 c 128,-1,41
 132 525 132 525 100 604 c 0,42,43
 42 748 42 748 42 836 c 0,44,45
 42 1014 42 1014 126 1120.5 c 128,-1,46
 210 1227 210 1227 351 1227 c 0,47,48
 422 1227 422 1227 514 1166 c 0,49,50
 608 1104 608 1104 623 1104 c 0,51,52
 667 1104 667 1104 750 1169 c 0,53,54
 828 1231 828 1231 895 1231 c 0,55,56
 1073 1231 1073 1231 1174.5 1131.5 c 128,-1,57
 1276 1032 1276 1032 1276 857 c 2,58,-1
 1276 112 l 1,59,-1
 1123 0 l 1,60,-1
 946 0 l 1,0,-1
629 714 m 0,61,62
 629 761 629 761 606 788 c 128,-1,63
 583 815 583 815 543 815 c 0,64,65
 509 815 509 815 483.5 782.5 c 128,-1,66
 458 750 458 750 458 707 c 0,67,68
 458 658 458 658 484.5 622 c 128,-1,69
 511 586 511 586 547 586 c 0,70,71
 582 586 582 586 605.5 623 c 128,-1,72
 629 660 629 660 629 714 c 0,61,62
EndSplineSet
Layer: 2
SplineSet
946 0 m 1xfc60
 946 976 l 2
 946 1045 926 1078 882 1084 c 1
 853 1067 826 1050 766 1011 c 0
 727 986 682 973 634 973 c 3
 586 973 526 1001 474 1047 c 0
 414 1100 379 1123 358 1123 c 3
 262 1123 176 1020 176 906 c 3xfc60
 176 796 214 688 285 598 c 0
 370 490 397 434 400 361 c 1xf960
 440 412 473 458 509 512 c 1
 411 516 323 606 323 704 c 3xf8e0
 323 806 427 895 547 895 c 3
 675 895 768 818 768 711 c 3
 768 606 730 537 516 255 c 0
 454 173 439 144 439 106 c 2
 439 0 l 1
 156 0 l 1xfa60
 156 378 l 2xf960
 156 446 143 499 100 604 c 0
 56 713 42 770 42 836 c 3
 42 1073 163 1227 351 1227 c 3
 402 1227 446 1211 514 1166 c 0
 593 1114 611 1104 623 1104 c 3
 652 1104 694 1125 750 1169 c 0
 803 1211 851 1231 895 1231 c 3
 1132 1231 1276 1090 1276 857 c 2
 1276 112 l 1
 1123 0 l 1
 946 0 l 1xfc60
629 714 m 3
 629 777 596 815 543 815 c 3
 498 815 458 764 458 707 c 3xf8e0
 458 642 499 586 547 586 c 259
 593 586 629 642 629 714 c 3
EndSplineSet
EndChar

